<svg width="16" height="16" viewBox="0 0 16 16" fill="none" xmlns="http://www.w3.org/2000/svg">
<path d="M8.00781 1.29297C4.12969 1.29297 1.00781 4.02422 1.00781 7.39141C1.00781 9.46484 2.20312 11.2945 4.00781 12.4164V14.2945C4.00781 14.5383 4.17812 14.7086 4.39844 14.7086C4.47187 14.7086 4.54531 14.6836 4.59375 14.6602L6.49531 13.3914C6.98281 13.4883 7.47031 13.5133 7.98281 13.5133C11.8625 13.5133 14.9844 10.782 14.9844 7.41484C15.0078 4.02422 11.8625 1.29297 8.00781 1.29297ZM4.86094 8.39141C4.39687 8.39141 4.03125 8.00078 4.03125 7.56172C4.03125 7.09766 4.42188 6.73203 4.86094 6.73203C5.325 6.73203 5.69062 7.12266 5.69062 7.56172C5.71406 8.00078 5.325 8.39141 4.86094 8.39141ZM8.05625 8.39141C7.59219 8.39141 7.22656 8.00078 7.22656 7.56172C7.22656 7.09766 7.61719 6.73203 8.05625 6.73203C8.52031 6.73203 8.88594 7.12266 8.88594 7.56172C8.88594 8.00078 8.49531 8.39141 8.05625 8.39141ZM11.1297 8.39141C10.6656 8.39141 10.3 8.00078 10.3 7.56172C10.3 7.09766 10.6906 6.73203 11.1297 6.73203C11.5937 6.73203 11.9594 7.12266 11.9594 7.56172C11.9594 8.00078 11.5937 8.39141 11.1297 8.39141Z" fill="#1AABA8"/>
</svg>
