<svg width="16" height="16" viewBox="0 0 16 16" fill="none" xmlns="http://www.w3.org/2000/svg">
<path d="M6.4889 10.0305C6.4889 8.08344 8.06728 6.50505 10.0143 6.50505C10.9293 6.50505 11.7628 6.85365 12.3894 7.42518C12.4177 6.23559 12.4434 5.3376 12.4434 5.3376L8.58547 1H2.19389C1.53183 1 0.995117 1.57268 0.995117 2.27913V11.9366C0.995117 12.643 1.53183 13.2157 2.19389 13.2157H8.50187C7.3117 12.6496 6.4889 11.4362 6.4889 10.0305ZM8.37568 1.91261L11.7217 5.67525H9.19308C8.74236 5.67525 8.37567 5.26757 8.37567 4.76649L8.37568 1.91261ZM3.22728 4.06207H6.41696V4.54174H3.22728V4.06207ZM3.22728 5.9327H6.41696V6.41238H3.22728V5.9327ZM6.41696 10.1536H3.22728V9.67397H6.41696V10.1536ZM6.41696 8.28301H3.22728V7.80334H6.41696V8.28301ZM12.168 7.87681C11.5927 7.30154 10.8279 6.98473 10.0143 6.98473C9.20079 6.98473 8.43593 7.30154 7.86065 7.87681C7.28538 8.45208 6.96857 9.21694 6.96857 10.0305C6.96857 10.844 7.28538 11.6089 7.86065 12.1842C8.43593 12.7594 9.20079 13.0762 10.0143 13.0762C10.8279 13.0762 11.5927 12.7594 12.168 12.1842C12.7433 11.6089 13.0601 10.844 13.0601 10.0305C13.0601 9.21694 12.7433 8.45207 12.168 7.87681ZM10.3261 10.1536H7.73933C7.73715 10.1129 7.73599 10.0718 7.73599 10.0305C7.73599 9.90919 7.74556 9.79015 7.76382 9.67397H10.3261V10.1536ZM10.3261 8.28301H8.55255C8.83065 8.05013 9.16516 7.88245 9.53263 7.80334H10.3261V8.28301ZM14.901 14.441L13.1459 12.6858L12.6937 13.1381L14.4488 14.8932C14.5112 14.9556 14.5931 14.9869 14.6749 14.9869C14.7568 14.9869 14.8386 14.9556 14.901 14.8932C15.0259 14.7683 15.0259 14.5658 14.901 14.441Z" fill="#1D6FE9"/>
<path d="M6.4889 10.0305C6.4889 8.08344 8.06728 6.50505 10.0143 6.50505C10.9293 6.50505 11.7628 6.85365 12.3894 7.42518C12.4177 6.23559 12.4434 5.3376 12.4434 5.3376L8.58547 1H2.19389C1.53183 1 0.995117 1.57268 0.995117 2.27913V11.9366C0.995117 12.643 1.53183 13.2157 2.19389 13.2157H8.50187C7.3117 12.6496 6.4889 11.4362 6.4889 10.0305ZM8.37568 1.91261L11.7217 5.67525H9.19308C8.74236 5.67525 8.37567 5.26757 8.37567 4.76649L8.37568 1.91261ZM3.22728 4.06207H6.41696V4.54174H3.22728V4.06207ZM3.22728 5.9327H6.41696V6.41238H3.22728V5.9327ZM6.41696 10.1536H3.22728V9.67397H6.41696V10.1536ZM6.41696 8.28301H3.22728V7.80334H6.41696V8.28301ZM12.168 7.87681C11.5927 7.30154 10.8279 6.98473 10.0143 6.98473C9.20079 6.98473 8.43593 7.30154 7.86065 7.87681C7.28538 8.45208 6.96857 9.21694 6.96857 10.0305C6.96857 10.844 7.28538 11.6089 7.86065 12.1842C8.43593 12.7594 9.20079 13.0762 10.0143 13.0762C10.8279 13.0762 11.5927 12.7594 12.168 12.1842C12.7433 11.6089 13.0601 10.844 13.0601 10.0305C13.0601 9.21694 12.7433 8.45207 12.168 7.87681ZM10.3261 10.1536H7.73933C7.73715 10.1129 7.73599 10.0718 7.73599 10.0305C7.73599 9.90919 7.74556 9.79015 7.76382 9.67397H10.3261V10.1536ZM10.3261 8.28301H8.55255C8.83065 8.05013 9.16516 7.88245 9.53263 7.80334H10.3261V8.28301ZM14.901 14.441L13.1459 12.6858L12.6937 13.1381L14.4488 14.8932C14.5112 14.9556 14.5931 14.9869 14.6749 14.9869C14.7568 14.9869 14.8386 14.9556 14.901 14.8932C15.0259 14.7683 15.0259 14.5658 14.901 14.441Z" fill="white" fill-opacity="0.4"/>
</svg>
