<svg  viewBox="0 0 4 98" fill="none" xmlns="http://www.w3.org/2000/svg">
<path d="M0.548092 5.08149L0.548091 7.62939e-06L3.4518 2.90371L0.911055 5.44445L3.4518 7.98519L0.548092 10.8889L0.548092 5.08149ZM3.4518 48.637L0.548094 51.5407L0.548093 45.7333L3.4518 48.637ZM3.4518 71.8667L0.548095 74.7704L0.548094 68.963L3.4518 71.8667ZM3.4518 25.4074L0.548093 28.3111L0.548092 22.5037L3.4518 25.4074ZM3.4518 83.4815L0.548095 86.3852L0.548095 80.5778L3.4518 83.4815ZM3.4518 37.0222L0.548093 39.9259L0.548093 34.1185L3.4518 37.0222ZM3.4518 60.2519L0.548094 63.1556L0.548094 57.3482L3.4518 60.2519ZM3.4518 13.7926L0.548092 16.6963L0.548092 10.8889L3.4518 13.7926ZM3.4518 89.2889L0.548095 92.1926L0.548095 86.3852L3.4518 89.2889ZM3.4518 95.0963L0.548096 98L0.548095 92.1926L3.4518 95.0963ZM3.4518 42.8296L0.548093 45.7333L0.548093 39.9259L3.4518 42.8296ZM3.4518 66.0593L0.548094 68.963L0.548094 63.1556L3.4518 66.0593ZM3.4518 19.6L0.548092 22.5037L0.548092 16.6963L3.4518 19.6ZM3.4518 77.6741L0.548095 80.5778L0.548095 74.7704L3.4518 77.6741ZM3.4518 31.2148L0.548093 34.1185L0.548093 28.3111L3.4518 31.2148ZM3.4518 54.4444L0.548094 57.3482L0.548094 51.5407L3.4518 54.4444Z" fill="currentColor"/>
</svg>
