<svg width="18" height="18" viewBox="0 0 18 18" fill="none" xmlns="http://www.w3.org/2000/svg">
<path d="M10.0078 8.86224C10.7786 8.11944 11.8267 7.66248 12.9818 7.66248C13.543 7.66248 14.0789 7.77049 14.5701 7.96658L15.92 2.40094C15.9337 2.3443 15.9134 2.28508 15.8678 2.24908C15.8219 2.2128 15.7592 2.2064 15.7081 2.23342L1.28308 9.60998C1.22936 9.63757 1.1977 9.69449 1.20236 9.75459C1.20758 9.81469 1.24824 9.86579 1.30572 9.88407L6.13437 11.4189C6.18519 11.4349 6.24005 11.423 6.27897 11.3876L12.959 5.36899L10.0078 8.86224Z" fill="#1AABA8"/>
<path d="M7.59644 11.8202C7.61066 11.8681 7.64782 11.9059 7.69575 11.9204L8.70463 12.2277C8.69871 12.1355 8.69539 12.0427 8.69539 11.949C8.69539 11.0539 8.96989 10.2231 9.43907 9.53564L7.62548 11.6823C7.59326 11.7203 7.5822 11.7723 7.59644 11.8202Z" fill="#1AABA8"/>
<path d="M7.78255 12.6371C7.73783 12.6225 7.68847 12.6312 7.65071 12.6594C7.61269 12.6876 7.59033 12.732 7.59033 12.779V15.574C7.59033 15.6402 7.63389 15.6983 7.69775 15.7169C7.71111 15.7207 7.72503 15.7227 7.73899 15.7227C7.78893 15.7227 7.83683 15.6974 7.86443 15.6536L9.08196 13.7301C8.96902 13.4832 8.87897 13.2238 8.81423 12.9544L7.78255 12.6371Z" fill="#1AABA8"/>
<path d="M9.43896 9.53567L10.0078 8.8623C9.79608 9.06635 9.60529 9.29197 9.43896 9.53567Z" fill="#1AABA8"/>
<path d="M15.9231 12.0406C15.9231 13.6281 14.6361 14.915 13.0486 14.915C11.4611 14.915 10.1741 13.6281 10.1741 12.0406C10.1741 10.453 11.4611 9.16616 13.0486 9.16616C13.9457 9.16616 14.7459 9.57784 15.2731 10.2218L14.8328 10.6159L16.7982 11.2033L16.4657 9.15443L15.9207 9.64226C15.2341 8.82096 14.2028 8.29785 13.0486 8.29785C10.9816 8.29785 9.30591 9.9735 9.30591 12.0406C9.30591 14.1075 10.9816 15.7831 13.0486 15.7831C15.0394 15.7831 16.6665 14.2287 16.7839 12.2673L15.9212 11.9629C15.9218 11.9888 15.9231 12.0146 15.9231 12.0406Z" fill="#1AABA8"/>
</svg>
