<svg width="32" height="32" viewBox="0 0 32 32" fill="none" xmlns="http://www.w3.org/2000/svg">
<path d="M16 1.9375C8.2375 1.9375 1.9375 8.2375 1.9375 16C1.9375 23.7625 8.2375 30.0625 16 30.0625C23.7625 30.0625 30.0625 23.7625 30.0625 16C30.0625 8.2375 23.7625 1.9375 16 1.9375ZM22.6651 17.0229H17.2712V22.417C17.2712 23.0655 16.7248 23.6117 16.0762 23.6117C15.4277 23.6117 14.8814 23.0656 14.8814 22.417V17.0229H9.48706C8.83878 17.0229 8.29231 16.4767 8.29231 15.8282C8.29231 15.1793 8.83878 14.6331 9.48738 14.6331H14.8815V9.239C14.8815 8.59047 15.4277 8.04425 16.0762 8.04425C16.7248 8.04425 17.2713 8.59044 17.2713 9.239V14.6334H22.6651C23.314 14.6334 23.8602 15.1793 23.8602 15.8281C23.8602 16.5107 23.314 17.0229 22.6651 17.0229L22.6651 17.0229Z" fill="currentColor"/>
</svg>
