<svg viewBox="0 0 16 16" fill="none" xmlns="http://www.w3.org/2000/svg">
<path d="M7.50293 8.20469C8.4623 8.20469 9.36387 7.83125 10.042 7.15312C10.7201 6.475 11.0936 5.57344 11.0936 4.61406C11.0936 3.65469 10.7201 2.75313 10.042 2.075C9.36387 1.39688 8.4623 1.02344 7.50293 1.02344C6.54355 1.02344 5.64199 1.39688 4.96387 2.075C4.28574 2.75313 3.9123 3.65469 3.9123 4.61406C3.9123 5.57344 4.28574 6.475 4.96387 7.15312C5.64199 7.83125 6.54355 8.20469 7.50293 8.20469ZM7.50293 2.14531C8.8623 2.14531 9.97012 3.25156 9.97012 4.6125C9.97012 5.97344 8.86387 7.07969 7.50293 7.07969C6.14199 7.07969 5.03574 5.97344 5.03574 4.6125C5.03574 3.25156 6.14355 2.14531 7.50293 2.14531ZM13.917 9.38125C14.2279 9.38125 14.4795 9.12969 14.4795 8.81875C14.4795 8.50781 14.2279 8.25625 13.917 8.25625H12.7873V7.55156H13.917C14.2279 7.55156 14.4795 7.3 14.4795 6.98906C14.4795 6.67812 14.2279 6.42656 13.917 6.42656H12.2248C11.9139 6.42656 11.6623 6.67812 11.6623 6.98906V10.5344C10.6904 10.7844 9.97012 11.6687 9.97012 12.7188C9.97012 13.9625 10.9811 14.9734 12.2248 14.9734C13.4686 14.9734 14.4795 13.9625 14.4795 12.7188C14.4795 11.6687 13.7592 10.7859 12.7873 10.5344V9.38281H13.917V9.38125ZM13.3545 12.7172C13.3545 13.3406 12.8482 13.8469 12.2248 13.8469C11.6014 13.8469 11.0951 13.3406 11.0951 12.7172C11.0951 12.0938 11.6014 11.5875 12.2248 11.5875C12.8482 11.5875 13.3545 12.0938 13.3545 12.7172ZM10.4326 9.46094C10.4326 9.15 10.1811 8.89844 9.87012 8.89844H4.52637C3.73105 8.89844 2.98105 9.18906 2.41387 9.71562C1.83574 10.2531 1.51855 10.9703 1.51855 11.7359V13.9094C1.51855 14.2203 1.77012 14.4719 2.08105 14.4719C2.39199 14.4719 2.64355 14.2203 2.64355 13.9094V11.7359C2.64355 10.7922 3.4873 10.0234 4.52637 10.0234H9.87012C10.1811 10.0234 10.4326 9.77188 10.4326 9.46094Z" fill="currentColor"/>
</svg>
