<svg viewBox="0 0 19 20" fill="none" xmlns="http://www.w3.org/2000/svg">
<g clip-path="url(#clip0_2507_64157)">
<path d="M9.12318 18.7032L2.90484 18.6212C2.3634 18.6212 1.72351 17.9813 1.72351 17.4399V17.4071C1.73992 16.5375 1.9204 15.6679 2.24855 14.8639C2.57669 14.0764 3.0525 13.3545 3.62675 12.731C4.20101 12.1075 4.89011 11.6153 5.64485 11.2379C6.39958 10.8606 7.21994 10.6637 8.07312 10.6145L9.02474 10.6309H9.04115C9.59899 10.5981 10.9772 10.434 11.7155 9.82692L11.978 9.63003C12.5687 9.17063 13.0445 8.57997 13.3891 7.90727C13.7336 7.23458 13.9141 6.49625 13.9141 5.74152C13.9305 4.42894 13.4219 3.18198 12.4867 2.23036C11.6335 1.36078 10.485 0.835748 9.25444 0.753712L9.27085 0.737305H8.95911C8.31923 0.737305 7.69575 0.852155 7.10509 1.09826C6.53084 1.34437 6.00581 1.70533 5.56281 2.14833C4.6276 3.08354 4.08616 4.31409 4.06975 5.64307C4.05334 6.39781 4.21742 7.13613 4.54556 7.80883C4.8573 8.48153 5.3167 9.07219 5.90736 9.56441L6.05503 9.66285L5.90736 9.71207C4.33227 10.3027 2.97046 11.3528 2.00244 12.7146C1.018 14.0764 0.49297 15.7171 0.476562 17.4071V17.4563C0.476562 18.7853 1.55944 19.8682 2.88843 19.8682L9.10678 19.9502C9.51696 19.9502 9.76307 19.7205 9.77947 19.3595C9.77947 19.1626 9.73025 18.9986 9.6154 18.8837C9.50055 18.7689 9.33648 18.7032 9.12318 18.7032ZM6.4488 3.05073C7.15431 2.36162 8.07312 1.98426 9.04115 1.98426H9.09037C10.0748 2.00066 10.9936 2.39444 11.6991 3.11636C12.4046 3.83828 12.7656 4.75708 12.7492 5.74152C12.7328 6.72595 12.339 7.64476 11.6171 8.35027C10.9116 9.03937 10.0092 9.40033 9.05755 9.40033H8.99193C8.00749 9.38393 7.08868 8.99015 6.38317 8.26823C5.67766 7.54631 5.3167 6.62751 5.33311 5.64307C5.33311 4.67504 5.72688 3.73983 6.4488 3.05073Z" fill="currentColor"/>
<path d="M17.6552 13.6834L14.9972 11.0418C14.7675 10.8121 14.4722 10.6973 14.1605 10.6973C13.8487 10.6973 13.5534 10.8121 13.3237 11.0418L12.7822 11.5997L12.2244 11.0418C11.9947 10.8121 11.6994 10.6973 11.3876 10.6973C11.0759 10.6973 10.7806 10.8121 10.5673 11.0418L7.94211 13.667C7.49911 14.11 7.49911 14.8647 7.94211 15.3077L11.9619 19.3275C12.1916 19.5572 12.4869 19.672 12.7987 19.672C13.094 19.672 13.3729 19.5736 13.5698 19.3603C13.6026 19.3439 13.6354 19.3275 13.6682 19.2947L17.6388 15.3241C18.1146 14.8811 18.1146 14.1264 17.6552 13.6834ZM12.7987 19.065C12.6674 19.065 12.5197 19.0157 12.4213 18.9173L8.38511 14.8975C8.17181 14.6842 8.17181 14.3397 8.38511 14.1428L11.0267 11.4848C11.1251 11.3864 11.2728 11.3371 11.404 11.3371C11.5353 11.3371 11.683 11.3864 11.7814 11.4848L12.3393 12.0427L11.0103 13.3716C10.797 13.5849 10.6821 13.8803 10.6821 14.192C10.6821 14.5037 10.797 14.7827 11.0103 14.9796C11.24 15.2093 11.5353 15.3077 11.8306 15.3077C12.126 15.3077 12.4213 15.2093 12.6182 14.9796L13.9472 13.6506L15.8012 15.5046C16.0145 15.7179 16.0145 16.0624 15.8012 16.2593L15.5879 16.4726L14.5378 15.4226C14.423 15.3077 14.2097 15.3077 14.0948 15.4226C13.98 15.5374 13.98 15.7507 14.0948 15.8656L15.1449 16.9156L14.6855 17.375L13.6354 16.325C13.5206 16.2101 13.3073 16.2101 13.1924 16.325C13.0776 16.4398 13.0776 16.6531 13.1924 16.7679L14.2425 17.818L13.7831 18.2774L12.733 17.2274C12.6182 17.1125 12.4049 17.1125 12.29 17.2274C12.1752 17.3422 12.1752 17.5555 12.29 17.6703L13.3401 18.7204L13.1268 18.9337C13.0612 18.9993 12.9299 19.065 12.7987 19.065ZM17.2122 14.8811L16.5395 15.5538C16.4903 15.3569 16.3918 15.1929 16.2442 15.0452L14.2097 12.9943H14.1933V12.9779C14.0784 12.863 13.8651 12.863 13.7503 12.9779L12.208 14.5202C11.9947 14.7335 11.683 14.7335 11.4861 14.5202C11.3876 14.4217 11.3384 14.2905 11.3384 14.1592C11.3384 14.0279 11.3876 13.8967 11.4861 13.7982L12.9791 12.3052C12.9955 12.2888 13.0284 12.2724 13.0448 12.256C13.0612 12.2395 13.0776 12.2067 13.094 12.1903L13.8159 11.4684C13.9143 11.37 14.062 11.3207 14.1933 11.3207C14.3245 11.3207 14.4722 11.37 14.5706 11.4684L17.2122 14.11C17.4255 14.3397 17.4255 14.6678 17.2122 14.8811Z" fill="currentColor"/>
<path d="M12.7983 19.8521C12.4373 19.8521 12.1092 19.7209 11.8467 19.4584L7.82688 15.4386C7.30185 14.9135 7.30185 14.0768 7.82688 13.5353L10.4684 10.8938C10.731 10.6313 11.0591 10.5 11.4201 10.5C11.781 10.5 12.1092 10.6313 12.3717 10.8938L12.7983 11.3204L13.2249 10.8938C13.4874 10.6313 13.8155 10.5 14.1765 10.5C14.5374 10.5 14.8656 10.6313 15.1281 10.8938L17.7861 13.5353C18.3111 14.0604 18.3111 14.8971 17.7861 15.4222L13.8155 19.3927C13.7827 19.4255 13.7335 19.4584 13.6843 19.4748C13.4218 19.7373 13.11 19.8521 12.7983 19.8521ZM11.4037 10.861C11.1247 10.861 10.8786 10.9594 10.6981 11.1563L8.07299 13.7979C7.69562 14.1752 7.69562 14.8151 8.07299 15.1925L12.0764 19.1958C12.2732 19.3927 12.5029 19.4912 12.7819 19.4912C13.028 19.4912 13.2741 19.4091 13.4546 19.2287L13.471 19.2122L13.5038 19.1958C13.5202 19.1958 13.5366 19.1794 13.553 19.163L17.54 15.2089C17.9173 14.8315 17.9173 14.1916 17.54 13.8143L14.882 11.1563C14.6851 10.9594 14.4554 10.861 14.1765 10.861C13.914 10.861 13.6515 10.9594 13.471 11.1563L12.7819 11.8454L12.1092 11.1727C11.9287 10.9594 11.6826 10.861 11.4037 10.861ZM12.7983 19.2287C12.585 19.2287 12.4209 19.163 12.2732 19.0154L8.26988 15.012C7.99095 14.7331 7.99095 14.2901 8.26988 14.0112L10.9114 11.3696C11.0427 11.2383 11.2232 11.1563 11.4201 11.1563C11.617 11.1563 11.7974 11.2219 11.9287 11.3696L12.6014 12.0423L11.1411 13.5025C10.9607 13.683 10.8622 13.9291 10.8622 14.1752C10.8622 14.4213 10.9607 14.6838 11.1411 14.8479C11.338 15.0448 11.5677 15.1268 11.8138 15.1268C12.06 15.1268 12.3225 15.0284 12.4865 14.8479L13.9468 13.3877L15.9157 15.3565C16.1946 15.6355 16.1946 16.0785 15.9157 16.3574L15.5875 16.6855L14.4062 15.5042C14.357 15.455 14.2749 15.455 14.2093 15.5042C14.1601 15.5534 14.1601 15.6355 14.2093 15.7011L15.3906 16.8824L14.6851 17.5879L13.5038 16.4066C13.4546 16.3574 13.3725 16.3574 13.3069 16.4066C13.2577 16.4558 13.2577 16.5379 13.3069 16.6035L14.4882 17.7848L13.7827 18.4903L12.6014 17.309C12.5522 17.2598 12.4701 17.2598 12.4045 17.309C12.3717 17.3418 12.3717 17.3746 12.3717 17.4075C12.3717 17.4403 12.3881 17.4731 12.4045 17.5059L13.5858 18.6872L13.2577 19.0154C13.1592 19.163 12.9788 19.2287 12.7983 19.2287ZM11.4037 11.4844C11.3052 11.4844 11.2068 11.5172 11.1411 11.5829L8.49958 14.2409C8.36832 14.3721 8.36832 14.6182 8.49958 14.7659L12.5029 18.7693C12.5686 18.8349 12.6506 18.8677 12.7655 18.8677C12.8475 18.8677 12.9623 18.8349 13.028 18.7693L13.11 18.6872L12.1748 17.752C12.0928 17.67 12.0435 17.5387 12.0435 17.4075C12.0435 17.2762 12.0928 17.1449 12.1748 17.0629C12.3717 16.866 12.6834 16.866 12.8639 17.0629L13.7991 17.9981L14.0124 17.7848L13.0772 16.8496C12.8803 16.6527 12.8803 16.341 13.0772 16.1605C13.2741 15.9636 13.5858 15.9636 13.7663 16.1605L14.7015 17.0957L14.9148 16.8824L13.996 15.9636C13.7991 15.7667 13.7991 15.455 13.996 15.2745C14.1929 15.0776 14.5046 15.0776 14.6851 15.2745L15.6203 16.2097L15.7024 16.1277C15.8336 15.9964 15.8336 15.7503 15.7024 15.6027L13.9796 13.8635L12.7819 15.0776C12.5358 15.3237 12.2076 15.455 11.8467 15.455C11.4857 15.455 11.174 15.3237 10.9114 15.0776C10.6653 14.8315 10.5341 14.5034 10.5341 14.1424C10.5341 13.7814 10.6653 13.4697 10.9114 13.2072L12.1256 11.9931L11.699 11.5829C11.617 11.5172 11.5185 11.4844 11.4037 11.4844ZM16.4571 15.8816L16.3751 15.6027C16.3258 15.455 16.2438 15.2909 16.1125 15.1761L14.078 13.1088L14.0616 13.0923C14.0124 13.0431 13.9304 13.0431 13.8647 13.0923L12.3225 14.6346C12.06 14.8971 11.617 14.8971 11.3544 14.6346C11.2396 14.5198 11.1411 14.3393 11.1411 14.1424C11.1411 13.9455 11.2068 13.7814 11.3544 13.6502L12.8803 12.1243C12.8967 12.1243 12.8967 12.1079 12.9131 12.1079C12.9131 12.1079 12.9295 12.0915 12.9295 12.0751L12.9623 12.0423L13.6843 11.3204C13.8155 11.1891 13.996 11.1071 14.1929 11.1071C14.3898 11.1071 14.5539 11.1727 14.7015 11.3204L17.3431 13.9619C17.4743 14.0932 17.5564 14.2737 17.5564 14.4706C17.5564 14.6674 17.4908 14.8315 17.3431 14.9792L16.4571 15.8816ZM14.3077 12.8626L16.3587 14.9135C16.4407 14.9956 16.5391 15.1268 16.6048 15.2417L17.097 14.7495C17.1626 14.6838 17.1954 14.6018 17.1954 14.487C17.1954 14.3885 17.1626 14.2901 17.097 14.2244L14.439 11.5829C14.3077 11.4516 14.0616 11.4516 13.914 11.5829L13.2085 12.2884C13.1921 12.3212 13.1756 12.3376 13.1428 12.3704C13.1264 12.3868 13.0936 12.4196 13.0608 12.4361L11.5841 13.9127C11.5185 13.9783 11.4857 14.0604 11.4857 14.1588C11.4857 14.2573 11.5185 14.3393 11.5841 14.4049C11.7154 14.5362 11.9287 14.5362 12.0764 14.4049L13.6186 12.8626C13.8155 12.6658 14.1273 12.6658 14.3077 12.8626Z" fill="currentColor"/>
</g>
<defs>
<clipPath id="clip0_2507_64157">
<rect width="19" height="20" fill="currentColor"/>
</clipPath>
</defs>
</svg>
