<svg viewBox="0 0 18 18" fill="none" xmlns="http://www.w3.org/2000/svg">
<g clip-path="url(#clip0_2507_64205)">
<path d="M0.150391 7.29853V16.943C0.150391 17.3408 0.474391 17.6663 0.870391 17.6663H16.9504C17.3464 17.6663 17.6704 17.3408 17.6704 16.943V7.29853C17.6704 6.9007 17.3464 6.5752 16.9504 6.5752H0.870391C0.474391 6.5752 0.150391 6.9007 0.150391 7.29853ZM16.3504 16.7019H1.47039C1.26639 16.7019 1.11039 16.5451 1.11039 16.3402V7.90131C1.11039 7.69636 1.26639 7.53964 1.47039 7.53964H16.3504C16.5544 7.53964 16.7104 7.69636 16.7104 7.90131V16.3402C16.7104 16.5451 16.5544 16.7019 16.3504 16.7019Z" fill="currentColor"/>
<path d="M15.0303 10.0713H3.03029C2.76629 10.0713 2.55029 9.85427 2.55029 9.58905C2.55029 9.32382 2.76629 9.10682 3.03029 9.10682H15.0303C15.2943 9.10682 15.5103 9.32382 15.5103 9.58905C15.5103 9.85427 15.2943 10.0713 15.0303 10.0713ZM14.1663 7.15382L8.57429 1.53593C8.38229 1.34305 8.38229 1.04166 8.57429 0.848768C8.76629 0.655879 9.06629 0.655879 9.25829 0.848768L14.8623 6.47871C15.0543 6.6716 15.0543 6.97299 14.8623 7.16588C14.6583 7.34671 14.3583 7.34671 14.1663 7.15382Z" fill="currentColor"/>
<path d="M2.97029 6.47871L8.57429 0.848768C8.76629 0.655879 9.06629 0.655879 9.25829 0.848768C9.45029 1.04166 9.45029 1.34305 9.25829 1.53593L3.65429 7.15382C3.46229 7.34671 3.16229 7.34671 2.97029 7.15382C2.77829 6.97299 2.77829 6.65955 2.97029 6.47871ZM15.0303 12.7838H3.03029C2.76629 12.7838 2.55029 12.5668 2.55029 12.3015C2.55029 12.0363 2.76629 11.8193 3.03029 11.8193H15.0303C15.2943 11.8193 15.5103 12.0363 15.5103 12.3015C15.5103 12.5668 15.2943 12.7838 15.0303 12.7838ZM8.31029 15.4963H3.03029C2.76629 15.4963 2.55029 15.2793 2.55029 15.014C2.55029 14.7488 2.76629 14.5318 3.03029 14.5318H8.31029C8.57429 14.5318 8.79029 14.7488 8.79029 15.014C8.79029 15.2793 8.57429 15.4963 8.31029 15.4963Z" fill="currentColor"/>
<path d="M8.07031 0.909318C8.07031 1.02014 8.09204 1.12988 8.13425 1.23226C8.17647 1.33465 8.23834 1.42768 8.31634 1.50604C8.39434 1.5844 8.48695 1.64656 8.58886 1.68897C8.69077 1.73138 8.8 1.75321 8.91031 1.75321C9.02062 1.75321 9.12985 1.73138 9.23177 1.68897C9.33368 1.64656 9.42628 1.5844 9.50428 1.50604C9.58228 1.42768 9.64416 1.33465 9.68637 1.23226C9.72858 1.12988 9.75031 1.02014 9.75031 0.909318C9.75031 0.685505 9.66181 0.470859 9.50428 0.312599C9.34675 0.154339 9.13309 0.0654297 8.91031 0.0654297C8.68753 0.0654297 8.47387 0.154339 8.31634 0.312599C8.15881 0.470859 8.07031 0.685505 8.07031 0.909318Z" fill="currentColor"/>
</g>
<defs>
<clipPath id="clip0_2507_64205">
<rect width="18" height="18" fill="currentColor"/>
</clipPath>
</defs>
</svg>
