<svg viewBox="0 0 16 16" fill="none" xmlns="http://www.w3.org/2000/svg">
<path d="M13.7008 9.13751H11.5677C11.0947 9.13751 10.6677 8.8547 10.483 8.41939L9.75301 6.69861C9.64707 6.44876 9.71504 6.16251 9.91691 5.98111C10.638 5.33361 11.0291 4.3272 10.7994 3.2397C10.5722 2.16314 9.70129 1.29314 8.62426 1.06829C6.77738 0.682669 5.15145 2.08173 5.15145 3.86064C5.15145 4.71704 5.53129 5.48095 6.12926 6.00314C6.33738 6.18486 6.41098 6.47517 6.30301 6.72954L5.58613 8.41939C5.40145 8.8547 4.97426 9.13751 4.50145 9.13751H2.2991C1.9791 9.13751 1.71973 9.39689 1.71973 9.71689V11.9867C1.71973 12.3067 1.9791 12.5661 2.2991 12.5661H13.7008C14.0208 12.5661 14.2802 12.3067 14.2802 11.9867V9.71704C14.2804 9.39704 14.021 9.13751 13.7008 9.13751ZM13.4296 13.7138H2.57988C2.42035 13.7138 2.29113 13.843 2.29113 14.0025V14.5678C2.29113 14.7274 2.42035 14.8566 2.57988 14.8566H13.4296C13.5891 14.8566 13.7183 14.7274 13.7183 14.5678V14.0025C13.7183 13.8431 13.5891 13.7138 13.4296 13.7138Z" fill="currentColor"/>
</svg>
