<svg width="16" height="16" viewBox="0 0 16 16" fill="none" xmlns="http://www.w3.org/2000/svg">
<path d="M2.86281 3.71872C2.86281 1.67036 4.52327 0.00976562 6.57169 0.00976562C8.62011 0.00976562 10.2806 1.67034 10.2806 3.7187C10.2806 5.76711 8.62011 7.42762 6.57169 7.42762C4.52327 7.42762 2.86277 5.76711 2.86277 3.7187L2.86281 3.71872ZM7.99821 7.61672C6.88784 8.66494 6.25383 10.1644 6.25558 11.7379C6.25558 12.6521 6.46589 13.5158 6.83749 14.2749H0.00976588C0.00920752 12.178 0.918011 10.1965 2.47592 8.89801C4.03381 7.5995 6.06889 7.12738 7.99823 7.61672H7.99821ZM11.7142 13.2054C12.5614 13.2054 13.2507 12.533 13.2507 11.7085C13.2507 10.882 12.5614 10.2105 11.7142 10.2105C10.867 10.2105 10.1788 10.8831 10.1788 11.7075C10.1788 12.5341 10.867 13.2054 11.7153 13.2054H11.7142V13.2054ZM7.52884 12.8334L8.45507 12.1284C8.43542 11.9893 8.42494 11.849 8.42371 11.7085C8.42371 11.5632 8.43666 11.4265 8.45509 11.2888L7.52884 10.5837C7.48828 10.5524 7.46053 10.5073 7.45078 10.457C7.44102 10.4067 7.44993 10.3546 7.47584 10.3104L8.35337 8.82973C8.4053 8.73423 8.52435 8.70063 8.62067 8.73423L9.71353 9.16167C9.94068 8.99137 10.1875 8.85037 10.4547 8.7429L10.6213 7.60834C10.6382 7.50256 10.7309 7.42585 10.8377 7.42932H12.5917C12.7021 7.42932 12.7941 7.50637 12.8081 7.60834L12.9737 8.74292C13.2409 8.85035 13.4877 8.99566 13.7159 9.16167L14.8088 8.73423C14.9092 8.69493 15.0231 8.73566 15.076 8.82973L15.9525 10.3104C16.0077 10.401 15.9853 10.5188 15.9006 10.5826L14.9754 11.2888C14.9928 11.4254 15.0057 11.5664 15.0057 11.7085C15.0057 11.8496 14.9928 11.9906 14.9754 12.1273L15.9006 12.8323C15.9839 12.8974 16.0055 13.0124 15.9525 13.1067L15.076 14.5874C15.022 14.6818 14.904 14.7154 14.8088 14.6818L13.7159 14.2533C13.488 14.4249 13.2384 14.5657 12.9737 14.672L12.807 15.8066C12.7903 15.9122 12.6983 15.9891 12.5917 15.9866H10.8377C10.7311 15.9891 10.6392 15.9122 10.6224 15.8066L10.4557 14.672C10.1921 14.564 9.94312 14.4234 9.71458 14.2533L8.62175 14.6818C8.5733 14.7009 8.51959 14.7018 8.47048 14.6845C8.42138 14.6671 8.38018 14.6327 8.35445 14.5874L7.47801 13.1067C7.452 13.0626 7.44292 13.0106 7.45247 12.9603C7.46202 12.91 7.48954 12.8649 7.5299 12.8334H7.52884Z" fill="currentColor"/>
</svg>
