<svg viewBox="0 0 19 20" fill="none" xmlns="http://www.w3.org/2000/svg">
<path d="M16.784 18.4004H1.80281C1.37869 18.3995 0.972249 18.2296 0.672639 17.928C0.373029 17.6264 0.204707 17.2178 0.20459 16.7917V4.89456C0.204707 4.46847 0.373029 4.05982 0.672639 3.75823C0.972249 3.45665 1.37869 3.28675 1.80281 3.2858H4.53242V2.34735C4.53242 2.07115 4.75736 1.84473 5.03184 1.84473C5.30677 1.84473 5.53126 2.07115 5.53126 2.34735V3.2858H12.9886V2.34735C12.9886 2.07115 13.2135 1.84473 13.488 1.84473C13.7629 1.84473 13.9874 2.07115 13.9874 2.34735V3.2858H16.784C17.2081 3.28686 17.6144 3.4568 17.914 3.75836C18.2136 4.05992 18.382 4.4685 18.3822 4.89456V16.7917C18.382 17.2177 18.2136 17.6263 17.914 17.9279C17.6144 18.2294 17.2081 18.3994 16.784 18.4004ZM17.1834 4.89456C17.1822 4.78844 17.1397 4.68702 17.0651 4.61189C16.9905 4.53677 16.8896 4.49388 16.784 4.49237H1.80281C1.69711 4.49376 1.59614 4.5366 1.52143 4.61174C1.44672 4.68687 1.40419 4.78837 1.40292 4.89456V6.71092C1.41453 6.71002 1.42479 6.70419 1.4364 6.70419H17.1834V4.89456ZM17.1834 7.70944H1.4364C1.42479 7.70944 1.41453 7.70361 1.40292 7.70272V16.7917C1.40292 17.0096 1.58591 17.1939 1.80281 17.1939H16.784C16.8896 17.1924 16.9905 17.1495 17.0651 17.0744C17.1397 16.9992 17.1822 16.8978 17.1834 16.7917V7.70944ZM14.6154 15.2717H11.5618C11.4237 15.271 11.2915 15.2155 11.1939 15.1173C11.0964 15.0192 11.0414 14.8863 11.0409 14.7476C11.0409 14.4592 11.2757 14.2234 11.5618 14.2234H14.6154C14.9019 14.2234 15.1362 14.4592 15.1362 14.7476C15.1362 15.0354 14.9019 15.2717 14.6154 15.2717ZM14.6154 10.9557H11.5618C11.4236 10.9551 11.2914 10.8996 11.1938 10.8014C11.0962 10.7032 11.0413 10.5703 11.0409 10.4315C11.0409 10.1432 11.2757 9.90737 11.5618 9.90737H14.6154C14.9019 9.90737 15.1362 10.1432 15.1362 10.4315C15.1362 10.7198 14.9019 10.9557 14.6154 10.9557ZM6.89517 15.2717H3.84154C3.70343 15.2711 3.57116 15.2157 3.47359 15.1175C3.37601 15.0193 3.32105 14.8863 3.3207 14.7476C3.3207 14.4592 3.55501 14.2234 3.84154 14.2234H6.89517C7.18125 14.2234 7.41557 14.4592 7.41557 14.7476C7.41557 15.0354 7.18125 15.2717 6.89517 15.2717ZM5.36702 11.5229C5.31693 11.5738 5.25732 11.6143 5.19161 11.6421C5.1259 11.6699 5.05538 11.6844 4.98409 11.6847H4.97829C4.83368 11.6847 4.69711 11.6291 4.59357 11.5269L3.80271 10.7476C3.71741 10.6637 3.66875 10.5491 3.66741 10.4292C3.66607 10.3092 3.71216 10.1936 3.79557 10.1078C3.83684 10.0653 3.88604 10.0315 3.94035 10.0081C3.99466 9.98477 4.05302 9.97241 4.11209 9.97175C4.17115 9.97108 4.22977 9.98212 4.28459 10.0042C4.33941 10.0263 4.38935 10.0591 4.43156 10.1006L4.9765 10.6378L6.30248 9.30969C6.34441 9.26785 6.39414 9.23472 6.44882 9.21219C6.5035 9.18967 6.56206 9.17818 6.62116 9.17839C6.68025 9.1786 6.73873 9.1905 6.79325 9.21341C6.84777 9.23632 6.89727 9.2698 6.93891 9.31193C6.98055 9.35406 7.01353 9.40401 7.03595 9.45895C7.05838 9.51388 7.06981 9.57271 7.0696 9.63208C7.0694 9.69145 7.05755 9.7502 7.03474 9.80498C7.01194 9.85975 6.97861 9.90947 6.93668 9.95131L5.36702 11.5229Z" fill="currentColor"/>
</svg>
