<svg width="15" height="14" viewBox="0 0 15 14" fill="none" xmlns="http://www.w3.org/2000/svg">
<path d="M3.04882 4.15022C3.04882 5.06044 3.4104 5.93337 4.05402 6.57699C4.69764 7.22061 5.57057 7.58219 6.48078 7.58219C7.39099 7.58219 8.26393 7.22061 8.90755 6.57699C9.55116 5.93337 9.91274 5.06044 9.91274 4.15022C9.91274 3.24001 9.55116 2.36708 8.90755 1.72346C8.26393 1.07984 7.39099 0.718262 6.48078 0.718262C5.57057 0.718262 4.69764 1.07984 4.05402 1.72346C3.4104 2.36708 3.04882 3.24001 3.04882 4.15022ZM9.18173 10.7414C9.18173 9.66866 9.70523 8.71831 10.5105 8.13137C10.5111 8.13096 10.5111 8.13012 10.5106 8.12969C10.0917 7.79571 9.6305 7.5125 9.1362 7.28973C9.13583 7.28956 9.13538 7.28963 9.13508 7.28988C8.41883 7.89601 7.49258 8.26172 6.48078 8.26172C5.46898 8.26172 4.54275 7.89603 3.82648 7.28988C3.82618 7.28961 3.82574 7.28956 3.82536 7.28973C1.76142 8.21993 0.273139 10.2011 0.0424866 12.5514C0.0424186 12.552 0.0429283 12.5525 0.0435568 12.5525H9.73543C9.73628 12.5525 9.73679 12.5516 9.7363 12.5509C9.38629 12.0348 9.18173 11.412 9.18173 10.7414ZM12.4095 8.19318C11.0022 8.19318 9.86127 9.33407 9.86127 10.7414C9.86127 12.1488 11.0022 13.2897 12.4095 13.2897C13.8169 13.2897 14.9578 12.1488 14.9578 10.7414C14.9578 9.33407 13.8169 8.19318 12.4095 8.19318ZM13.7251 11.1152H12.7844C12.7838 11.1152 12.7833 11.1157 12.7833 11.1163V12.057C12.7833 12.2513 12.6388 12.4203 12.4454 12.4386C12.2239 12.4595 12.0358 12.284 12.0358 12.0666V11.1163C12.0358 11.1157 12.0353 11.1152 12.0347 11.1152H11.094C10.8997 11.1152 10.7307 10.9708 10.7124 10.7773C10.6915 10.5558 10.8671 10.3677 11.0844 10.3677H12.0347C12.0353 10.3677 12.0358 10.3672 12.0358 10.3666V9.42591C12.0358 9.23158 12.1802 9.06258 12.3737 9.0443C12.5952 9.02337 12.7833 9.19896 12.7833 9.41635V10.3666C12.7833 10.3672 12.7838 10.3677 12.7844 10.3677H13.7346C13.952 10.3677 14.1276 10.5558 14.1067 10.7773C14.0884 10.9707 13.9194 11.1152 13.7251 11.1152Z" fill="#29D6D6"/>
</svg>
