<svg width="inherit" height="inherit" viewBox="0 0 10 6" fill="none" xmlns="http://www.w3.org/2000/svg">
<path d="M4.93435 5.37103C4.87256 5.3711 4.81136 5.35895 4.75428 5.33529C4.6972 5.31163 4.64535 5.27692 4.60172 5.23316L0.610975 1.24241C0.56728 1.19875 0.532617 1.14691 0.508967 1.08984C0.485317 1.03278 0.473145 0.971616 0.473145 0.909846C0.473145 0.848077 0.485317 0.786913 0.508967 0.72985C0.532617 0.672787 0.56728 0.620944 0.610975 0.577284C0.654635 0.533589 0.706478 0.498925 0.763541 0.475276C0.820604 0.451626 0.881768 0.439453 0.943537 0.439453C1.00531 0.439453 1.06647 0.451626 1.12353 0.475276C1.1806 0.498925 1.23244 0.533589 1.2761 0.577284L4.93435 4.23553L8.5931 0.577284C8.63676 0.533589 8.6886 0.498925 8.74567 0.475276C8.80273 0.451626 8.86389 0.439453 8.92566 0.439453C8.98743 0.439453 9.0486 0.451626 9.10566 0.475276C9.16272 0.498925 9.21457 0.533589 9.25823 0.577284C9.30192 0.620944 9.33658 0.672787 9.36023 0.72985C9.38388 0.786913 9.39606 0.848077 9.39606 0.909846C9.39606 0.971616 9.38388 1.03278 9.36023 1.08984C9.33658 1.14691 9.30192 1.19875 9.25823 1.24241L5.26685 5.23316C5.22325 5.27692 5.17142 5.31162 5.11436 5.33528C5.0573 5.35895 4.99612 5.3711 4.93435 5.37103Z" fill="currentColor"/>
</svg>
