<svg width="20" height="20" viewBox="0 0 20 20" fill="none" xmlns="http://www.w3.org/2000/svg">
<path d="M6.15771 18.8018C5.74086 18.8018 5.40186 18.4628 5.40186 18.046C5.40186 17.6291 5.74086 17.2901 6.15771 17.2901L17.3719 17.2833V7.50292C17.3719 7.08604 17.7109 6.74706 18.1278 6.74706C18.3339 6.74706 18.5263 6.82722 18.6683 6.96923C18.8103 7.11353 18.8905 7.30364 18.8905 7.50292L18.8813 17.7093C18.8813 18.3071 18.3935 18.795 17.7956 18.795L6.15771 18.8018ZM15.4868 1.00712C15.086 1.00712 14.7218 1.1537 14.4493 1.42626L10.8418 5.06356L11.7304 5.95454L13.5239 4.14966L14.9829 5.64534L13.2078 7.4319L14.0965 8.32292L17.6926 4.70163C17.9605 4.42907 18.1094 4.0603 18.1094 3.65718C18.1094 3.20138 17.9171 2.74327 17.5826 2.40886L16.726 1.54536C16.3916 1.20179 15.9381 1.00708 15.4868 1.00708V1.00712ZM16.7672 3.22659C16.8588 3.31819 16.9092 3.43503 16.9092 3.55413C16.9092 3.65261 16.8726 3.73966 16.8107 3.80149L15.9083 4.71081L14.4493 3.21513L15.3357 2.32185C15.4754 2.17985 15.7503 2.20046 15.9106 2.36308L16.7672 3.22659Z" fill="currentColor"/>
<path d="M10.3219 10.3522L8.84915 8.87021L11.7397 5.95902L10.8487 5.07031L7.25038 8.69844C7.23893 8.70531 7.24581 8.71904 7.23665 8.73051C7.2229 8.74652 7.21374 8.76256 7.20915 8.78318L6.27692 12.2235C6.22196 12.4228 6.27923 12.6404 6.42352 12.7915C6.53575 12.8992 6.68007 12.9587 6.83122 12.9587C6.88391 12.9587 6.9343 12.9541 6.98469 12.9381L10.3769 12.0059C10.3815 12.0059 10.3838 12.0105 10.3883 12.0105C10.4273 12.0105 10.4662 11.9944 10.4937 11.967L14.1058 8.32965L13.2171 7.44098L10.3219 10.3522L10.3219 10.3522ZM9.38971 11.0668L7.65583 11.5455L8.12995 9.79787L9.38971 11.0668ZM15.5122 10.5904C15.5122 10.1689 15.1686 9.82766 14.7494 9.82766C14.328 9.82766 13.9867 10.1712 13.9867 10.5904V12.551H15.5144V10.5904H15.5122Z" fill="white"/>
<path d="M13.9842 14.4156H2.62338V2.53491H10.9699C11.3867 2.53491 11.7257 2.19593 11.7257 1.77905C11.7257 1.36218 11.3867 1.02319 10.9699 1.02319H2.33705C2.00951 1.02319 1.70033 1.15147 1.46898 1.3828C1.23535 1.61415 1.10938 1.92337 1.10938 2.25091V14.7042C1.10938 15.0318 1.23764 15.341 1.46898 15.5723C1.70031 15.8037 2.00953 15.9296 2.33707 15.9296H14.2819C14.6094 15.9296 14.9187 15.8037 15.15 15.5723C15.3836 15.341 15.5096 15.0318 15.5096 14.7042V11.7724H13.9841L13.9842 14.4156Z" fill="white"/>
</svg>
