<svg width="inherit" height="inherit" viewBox="0 0 20 20" fill="none" xmlns="http://www.w3.org/2000/svg">
<path d="M16.4062 5.625H13.4375V4.53125C13.4375 3.75 12.8125 3.125 12.0312 3.125H7.96875C7.1875 3.125 6.5625 3.75 6.5625 4.53125V5.625H3.59375C3.34375 5.625 3.125 5.84375 3.125 6.09375C3.125 6.34375 3.34375 6.5625 3.59375 6.5625H16.4062C16.6562 6.5625 16.875 6.34375 16.875 6.09375C16.875 5.84375 16.6562 5.625 16.4062 5.625ZM7.5 5.625V4.53125C7.5 4.28125 7.71875 4.0625 7.96875 4.0625H12.0312C12.2812 4.0625 12.5 4.28125 12.5 4.53125V5.625H7.5ZM14.8125 7.5C14.5625 7.5 14.3438 7.71875 14.3438 7.96875V15.0625C14.3438 15.5312 13.9688 15.9375 13.4688 15.9375H6.5C6.03125 15.9375 5.625 15.5625 5.625 15.0625V7.96875C5.625 7.71875 5.40625 7.5 5.15625 7.5C4.90625 7.5 4.6875 7.71875 4.6875 7.96875V15.0625C4.6875 16.0625 5.5 16.875 6.5 16.875H13.5C14.5 16.875 15.3125 16.0625 15.3125 15.0625V7.96875C15.2812 7.71875 15.0625 7.5 14.8125 7.5Z" fill="currentColor"/>
<path d="M8.6875 14.5312V7.96875C8.6875 7.71875 8.46875 7.5 8.21875 7.5C7.96875 7.5 7.75 7.71875 7.75 7.96875V14.5312C7.75 14.7812 7.96875 15 8.21875 15C8.46875 15 8.6875 14.7812 8.6875 14.5312ZM12.25 14.5312V7.96875C12.25 7.71875 12.0313 7.5 11.7813 7.5C11.5313 7.5 11.3125 7.71875 11.3125 7.96875V14.5312C11.3125 14.7812 11.5313 15 11.7813 15C12.0313 15 12.25 14.7812 12.25 14.5312Z" fill="currentColor"/>
</svg>
