<svg width="16" height="16" viewBox="0 0 16 16" fill="none" xmlns="http://www.w3.org/2000/svg">
<path d="M14.1284 2.02089H11.0383V1.00489C11.0383 0.889117 10.9923 0.778083 10.9105 0.696217C10.8286 0.614351 10.7176 0.568359 10.6018 0.568359C10.486 0.568359 10.375 0.614351 10.2931 0.696217C10.2112 0.778083 10.1652 0.889117 10.1652 1.00489V2.02089H5.83031V1.00489C5.83029 0.889202 5.78432 0.778257 5.7025 0.696459C5.62069 0.614661 5.50974 0.568709 5.39404 0.568709C5.27835 0.568709 5.1674 0.614661 5.08559 0.696459C5.00377 0.778257 4.9578 0.889202 4.95778 1.00489V2.02089H1.86498C1.80769 2.02089 1.75096 2.03218 1.69803 2.0541C1.6451 2.07603 1.597 2.10816 1.55649 2.14867C1.51598 2.18918 1.48384 2.23728 1.46192 2.29021C1.44 2.34314 1.42871 2.39987 1.42871 2.45716V15.0001C1.42871 15.2412 1.62444 15.4364 1.86498 15.4364H14.1284C14.2442 15.4364 14.3551 15.3904 14.4369 15.3086C14.5187 15.2268 14.5647 15.1158 14.5647 15.0001V2.45716C14.5647 2.34145 14.5187 2.23049 14.4369 2.14867C14.3551 2.06686 14.2442 2.02089 14.1284 2.02089ZM4.95778 2.89343V4.39583C4.9578 4.51152 5.00377 4.62246 5.08559 4.70426C5.1674 4.78606 5.27835 4.83201 5.39404 4.83201C5.50974 4.83201 5.62069 4.78606 5.7025 4.70426C5.78432 4.62246 5.83029 4.51152 5.83031 4.39583V2.89343H10.1652V4.39583C10.1652 4.51153 10.2112 4.6225 10.293 4.70431C10.3748 4.78613 10.4858 4.83209 10.6015 4.83209C10.7172 4.83209 10.8282 4.78613 10.91 4.70431C10.9918 4.6225 11.0378 4.51153 11.0378 4.39583V2.89343H13.6911V5.27636H2.30124V2.89343H4.95778ZM2.30124 14.5638V6.14943H13.6916V14.5638H2.30124Z" fill="currentColor"/>
<path d="M5.94782 11.339H4.35155C4.23584 11.339 4.12488 11.385 4.04306 11.4668C3.96125 11.5486 3.91528 11.6596 3.91528 11.7753C3.91528 11.891 3.96125 12.002 4.04306 12.0838C4.12488 12.1656 4.23584 12.2116 4.35155 12.2116H5.94782C6.06352 12.2116 6.17449 12.1656 6.2563 12.0838C6.33812 12.002 6.38408 11.891 6.38408 11.7753C6.38408 11.6596 6.33812 11.5486 6.2563 11.4668C6.17449 11.385 6.06352 11.339 5.94782 11.339ZM5.94782 8.14648H4.35155C4.23586 8.14651 4.12491 8.19248 4.04312 8.27429C3.96132 8.35611 3.91537 8.46706 3.91537 8.58275C3.91537 8.69844 3.96132 8.8094 4.04312 8.89121C4.12491 8.97302 4.23586 9.019 4.35155 9.01902H5.94782C6.06351 9.019 6.17445 8.97302 6.25625 8.89121C6.33805 8.8094 6.384 8.69844 6.384 8.58275C6.384 8.46706 6.33805 8.35611 6.25625 8.27429C6.17445 8.19248 6.06351 8.14651 5.94782 8.14648ZM11.8006 8.14648H10.2043C10.0887 8.14651 9.97771 8.19248 9.89592 8.27429C9.81412 8.35611 9.76817 8.46706 9.76817 8.58275C9.76817 8.69844 9.81412 8.8094 9.89592 8.89121C9.97771 8.97302 10.0887 9.019 10.2043 9.01902H11.8006C11.9163 9.019 12.0273 8.97302 12.109 8.89121C12.1908 8.8094 12.2368 8.69844 12.2368 8.58275C12.2368 8.46706 12.1908 8.35611 12.109 8.27429C12.0273 8.19248 11.9163 8.14651 11.8006 8.14648ZM11.4214 9.99235L9.33608 11.7673L8.75048 11.2025C8.66586 11.1288 8.55616 11.0905 8.44406 11.0954C8.33196 11.1003 8.22604 11.1481 8.14822 11.229C8.0704 11.3098 8.02662 11.4175 8.02595 11.5297C8.02528 11.6419 8.06777 11.7501 8.14462 11.8318L9.01502 12.6708C9.09331 12.7456 9.19655 12.7887 9.3048 12.7919C9.41306 12.795 9.51864 12.758 9.60115 12.6878L11.9873 10.6558C12.0331 10.6194 12.0712 10.5741 12.0992 10.5226C12.1271 10.4712 12.1445 10.4146 12.1501 10.3563C12.1558 10.298 12.1496 10.2392 12.1321 10.1833C12.1145 10.1275 12.0858 10.0757 12.0478 10.0311C12.0098 9.98657 11.9632 9.95012 11.9108 9.92394C11.8584 9.89777 11.8013 9.88242 11.7429 9.8788C11.6844 9.87518 11.6258 9.88337 11.5706 9.90288C11.5154 9.92239 11.4646 9.95282 11.4214 9.99235ZM9.31102 8.58328C9.31102 8.46758 9.26505 8.35661 9.18324 8.2748C9.10142 8.19298 8.99045 8.14702 8.87475 8.14702H7.27848C7.16278 8.14702 7.05181 8.19298 6.97 8.2748C6.88818 8.35661 6.84222 8.46758 6.84222 8.58328C6.84222 8.69899 6.88818 8.80996 6.97 8.89177C7.05181 8.97359 7.16278 9.01955 7.27848 9.01955H8.87475C8.99045 9.01955 9.10142 8.97359 9.18324 8.89177C9.26505 8.80996 9.31102 8.69899 9.31102 8.58328Z" fill="currentColor"/>
</svg>
