<?xml version="1.0" standalone="no"?>
<!DOCTYPE svg PUBLIC "-//W3C//DTD SVG 1.1//EN" "http://www.w3.org/Graphics/SVG/1.1/DTD/svg11.dtd">
<svg t="1717120719109" class="icon" viewBox="0 0 1024 1024" version="1.1" xmlns="http://www.w3.org/2000/svg" p-id="3871" xmlns:xlink="http://www.w3.org/1999/xlink" >
<path fill="currentColor" d="M593.704835 744.378604h-45.857056v-46.283633a35.83249 35.83249 0 1 0-71.66498 0v46.283633h-45.857056a36.045779 36.045779 0 0 0 0 72.091557h45.857056v46.070345a35.83249 35.83249 0 1 0 71.66498 0v-46.070345h45.857056a36.472356 36.472356 0 0 0 35.83249-36.045778 35.83249 35.83249 0 0 0-35.83249-36.045779z m229.498567-106.644316a311.614691 311.614691 0 0 0-227.152392-100.245657h-168.071442c-177.456141 0-321.425968 153.567815-321.425968 341.261811v17.916245c0 58.014508 35.83249 96.406461 106.644316 112.829686l12.584029 3.19933c2.346175 0 3.839195 0 6.18537 1.49302l13.223896 2.346175 14.077049 1.49302h7.038525l15.57007 1.493021 35.619202 1.706309h366.429869l47.563365-1.493021 16.209936-1.49302h7.891679l14.716916-1.49302h7.038524l13.223896-2.346175 12.37074-2.346175c2.346175 0 4.052484 0 6.398659-1.493021 71.451692-16.423225 107.924048-54.815178 107.924048-112.616397v-18.129534a350.859799 350.859799 0 0 0-94.060287-242.082597z m22.608595 259.358976c0 27.514233-28.793965 36.898933-50.549406 42.657727l-11.517586 2.346174h-6.398659l-13.223895 1.70631c-4.69235 0-10.024566 0-14.716915 1.49302l-34.979336 2.346175-41.377994 1.49302H354.39499l-49.696251-1.49302-32.84645-2.346175-15.783358-1.919598h-7.038525l-11.730875-2.346175h-5.332216L221.729461 938.684547c-28.793965-7.678391-42.657726-21.328863-42.657726-39.884974v-17.916245c0-149.302042 112.18982-268.743676 249.121121-268.743676h169.137885a237.603536 237.603536 0 0 1 175.749833 79.130083 277.275221 277.275221 0 0 1 73.158 190.253459zM512.015289 485.872782A242.935751 242.935751 0 1 0 270.785846 242.937031a242.295885 242.295885 0 0 0 241.229443 242.935751z m0-412.713502a170.630905 170.630905 0 1 1-168.924597 170.630906 170.630905 170.630905 0 0 1 168.924597-170.630906z" p-id="3872">
</path>
</svg>