<svg width="inherit" height="inherit" viewBox="0 0 20 20" fill="none" xmlns="http://www.w3.org/2000/svg">
<path d="M10.2453 2.37315C14.448 2.37315 17.872 5.79715 17.872 9.99982C17.872 14.2025 14.448 17.6265 10.2453 17.6265C6.04267 17.6265 2.608 14.2025 2.608 9.99982C2.608 5.79715 6.032 2.37315 10.2453 2.37315ZM10.2453 1.14648C5.36 1.14648 1.392 5.11448 1.392 9.99982C1.392 14.8851 5.34933 18.8531 10.2453 18.8531C15.1307 18.8531 19.0987 14.8958 19.0987 9.99982C19.0987 5.11448 15.1307 1.14648 10.2453 1.14648Z" fill="currentColor"/>
<path d="M11.1627 11.7287C11.0027 11.7287 10.8533 11.6647 10.736 11.5474L7.504 8.31539C7.26933 8.08072 7.26933 7.68606 7.504 7.45139C7.73867 7.21672 8.13333 7.21672 8.368 7.45139L11.6 10.6834C11.8347 10.9181 11.8347 11.3127 11.6 11.5474C11.4827 11.6647 11.3227 11.7287 11.1627 11.7287Z" fill="currentColor"/>
<path d="M10.2453 12.3472C9.904 12.3472 9.63733 12.0699 9.63733 11.7392V5.72323C9.63733 5.3819 9.91467 5.11523 10.2453 5.11523C10.5867 5.11523 10.8533 5.39257 10.8533 5.72323V11.7286C10.8533 12.0699 10.576 12.3472 10.2453 12.3472Z" fill="currentColor"/>
<path d="M4.31467 10.6086H3.39733C3.056 10.6086 2.78933 10.3312 2.78933 10.0006C2.78933 9.65924 3.06667 9.39258 3.39733 9.39258H4.31467C4.656 9.39258 4.92267 9.66991 4.92267 10.0006C4.92267 10.3312 4.656 10.6086 4.31467 10.6086Z" fill="currentColor"/>
<path d="M17.0933 10.6086H16.1867C15.8453 10.6086 15.5787 10.3312 15.5787 10.0006C15.5787 9.65924 15.856 9.39258 16.1867 9.39258H17.104C17.4453 9.39258 17.712 9.66991 17.712 10.0006C17.712 10.3312 17.4347 10.6086 17.0933 10.6086Z" fill="currentColor"/>
<path d="M10.2347 4.65677C9.89333 4.65677 9.62667 4.37944 9.62667 4.04877V3.13144C9.62667 2.7901 9.904 2.52344 10.2347 2.52344C10.576 2.52344 10.8427 2.80077 10.8427 3.13144V4.04877C10.8427 4.37944 10.5653 4.65677 10.2347 4.65677Z" fill="currentColor"/>
<path d="M10.2347 17.4771C9.89333 17.4771 9.62667 17.1997 9.62667 16.8691V15.9517C9.62667 15.6104 9.904 15.3438 10.2347 15.3438C10.576 15.3438 10.8427 15.6211 10.8427 15.9517V16.8691C10.8427 17.1997 10.5653 17.4771 10.2347 17.4771Z" fill="currentColor"/>
</svg>
