<svg width="inherit" height="inherit" viewBox="0 0 18 11" fill="none" xmlns="http://www.w3.org/2000/svg">
<path d="M5.49984 10.25L6.1665 9.58329C6.99984 9.83329 7.99984 9.99996 8.99984 9.99996C12.1665 9.99996 14.5832 8.66663 16.3332 5.83329C15.4165 4.41663 14.3332 3.33329 13.0832 2.66663L13.6665 2.08329C15.0832 2.91663 16.2498 4.16663 17.2498 5.83329C15.3332 9.16663 12.4998 10.8333 8.9165 10.8333C7.74984 10.9166 6.58317 10.6666 5.49984 10.25ZM3.24984 8.99996C2.24984 8.24996 1.4165 7.16663 0.666504 5.91663C2.58317 2.58329 5.4165 0.916626 8.99984 0.916626C9.74984 0.916626 10.4998 0.999959 11.1665 1.16663L10.4998 1.83329C9.99984 1.74996 9.58317 1.74996 8.99984 1.74996C5.83317 1.74996 3.4165 3.08329 1.6665 5.91663C2.33317 6.91663 3.08317 7.74996 3.9165 8.41663L3.24984 8.99996ZM7.74984 8.08329L8.33317 7.49996C8.49984 7.58329 8.74984 7.58329 8.9165 7.58329C9.83317 7.58329 10.5832 6.83329 10.5832 5.91663C10.5832 5.66663 10.5832 5.49996 10.4998 5.33329L11.0832 4.74996C11.3332 5.08329 11.4165 5.49996 11.4165 5.99996C11.4165 7.41663 10.3332 8.49996 8.9165 8.49996C8.58317 8.41663 8.1665 8.24996 7.74984 8.08329ZM6.49984 5.74996C6.58317 4.41663 7.58317 3.41663 8.9165 3.33329C8.9165 3.41663 6.49984 5.74996 6.49984 5.74996ZM13.3332 0.166626L13.9165 0.749959L3.9165 10.75L3.24984 10.1666L13.3332 0.166626Z" fill="currentColor" fill-opacity="0.25"/>
</svg>
