<svg width="inherit" height="inherit" viewBox="0 0 16 16" fill="none" xmlns="http://www.w3.org/2000/svg">
<path d="M8.72245 7.83882L15.2937 1.2682C15.3517 1.21017 15.3978 1.14128 15.4292 1.06546C15.4606 0.989645 15.4767 0.908385 15.4767 0.826322C15.4767 0.744258 15.4606 0.662998 15.4292 0.587181C15.3978 0.511364 15.3517 0.442475 15.2937 0.384447C15.2357 0.326419 15.1668 0.280389 15.091 0.248984C15.0151 0.21758 14.9339 0.201416 14.8518 0.201416C14.7698 0.201416 14.6885 0.21758 14.6127 0.248984C14.5369 0.280389 14.468 0.326419 14.4099 0.384447L7.8387 6.95507L1.26807 0.384447C1.21005 0.326419 1.14116 0.280389 1.06534 0.248984C0.989523 0.21758 0.908263 0.201416 0.826199 0.201416C0.744136 0.201416 0.662876 0.21758 0.587058 0.248984C0.511241 0.280389 0.442352 0.326419 0.384325 0.384447C0.267132 0.501639 0.201294 0.660586 0.201294 0.826322C0.201294 0.908385 0.217458 0.989645 0.248862 1.06546C0.280266 1.14128 0.326297 1.21017 0.384325 1.2682L6.95495 7.83882L0.384325 14.4094C0.267132 14.5266 0.201294 14.6856 0.201294 14.8513C0.201294 15.0171 0.267132 15.176 0.384325 15.2932C0.501517 15.4104 0.660464 15.4762 0.826199 15.4762C0.991935 15.4762 1.15088 15.4104 1.26807 15.2932L7.8387 8.72257L14.4093 15.2938C14.4674 15.3519 14.5362 15.3979 14.6121 15.4293C14.6879 15.4607 14.7691 15.4769 14.8512 15.4769C14.9333 15.4769 15.0145 15.4607 15.0903 15.4293C15.1662 15.3979 15.235 15.3519 15.2931 15.2938C15.3511 15.2358 15.3971 15.1669 15.4285 15.0911C15.4599 15.0153 15.4761 14.934 15.4761 14.8519C15.4761 14.7699 15.4599 14.6886 15.4285 14.6128C15.3971 14.537 15.3511 14.4681 15.2931 14.4101L8.72245 7.83882Z" fill="currentColor"/>
</svg>
