<svg width="inherit" height="inherit" viewBox="0 0 32 32" fill="none" xmlns="http://www.w3.org/2000/svg">
<path d="M25.8897 28.1749C25.3763 28.1749 24.8994 27.9724 24.5469 27.6046L4.88188 7.09336C4.53969 6.73648 4.35688 6.26555 4.3675 5.76742C4.37813 5.2693 4.58032 4.80648 4.9375 4.4643L4.96 4.44273C5.30625 4.11055 5.76313 3.92773 6.24625 3.92773C6.75969 3.92773 7.23657 4.13023 7.58907 4.49805L27.2541 25.0093C27.9638 25.7493 27.9388 26.9287 27.1988 27.6384L27.1763 27.6599C26.8294 27.9921 26.3725 28.1749 25.8897 28.1749Z" fill="currentColor"/>
<path d="M6.24589 3.94336C6.75495 3.94336 7.22776 4.1443 7.57714 4.50898L27.2421 25.0202C27.5815 25.3743 27.7628 25.8412 27.7524 26.3349C27.7421 26.8287 27.5415 27.2877 27.1874 27.6271L27.1649 27.6487C26.8215 27.978 26.3687 28.1593 25.8896 28.1593C25.3806 28.1593 24.9078 27.9584 24.5581 27.5937L4.89307 7.08242C4.5537 6.72836 4.37245 6.26148 4.38276 5.76773C4.39307 5.27398 4.5937 4.81492 4.94776 4.47555L4.97026 4.45398C5.31401 4.12461 5.76682 3.94336 6.24589 3.94336ZM6.24589 3.91211C5.7787 3.91211 5.31057 4.08461 4.94901 4.43148L4.92651 4.45305C4.18213 5.1668 4.15714 6.35961 4.87057 7.10398L24.5356 27.6152C24.9024 27.9977 25.3956 28.1902 25.8896 28.1902C26.3568 28.1902 26.8249 28.0177 27.1865 27.6709L27.209 27.6493C27.9534 26.9355 27.9784 25.7427 27.2649 24.9984L7.59995 4.48711C7.23307 4.10461 6.73995 3.91211 6.24589 3.91211Z" fill="currentColor"/>
<path d="M5.67692 27.9133C5.16348 27.9133 4.68692 27.7108 4.33411 27.343L4.31254 27.3205C3.97036 26.9636 3.78754 26.4927 3.79817 25.9945C3.80879 25.4964 4.01098 25.0336 4.36817 24.6914L25.5469 4.38609C25.8932 4.05391 26.35 3.87109 26.8332 3.87109C27.3463 3.87109 27.8232 4.07359 28.176 4.44141L28.1975 4.46391C28.5397 4.82078 28.7225 5.29172 28.7119 5.78984C28.7013 6.28797 28.4991 6.75078 28.1419 7.09297L6.96317 27.3983C6.61661 27.7305 6.16004 27.9133 5.67692 27.9133Z" fill="currentColor"/>
<path d="M26.8332 3.88867C27.3422 3.88867 27.8151 4.08961 28.1644 4.4543L28.186 4.4768C28.5254 4.83086 28.7066 5.29773 28.6963 5.79148C28.686 6.28523 28.4854 6.7443 28.1313 7.08367L6.95224 27.3887C6.60881 27.718 6.15599 27.8993 5.67693 27.8993C5.16787 27.8993 4.69506 27.6984 4.34537 27.3337L4.3238 27.3112C3.98443 26.9571 3.80318 26.4902 3.81349 25.9965C3.8238 25.5027 4.02443 25.0437 4.37849 24.7043L25.5576 4.3993C25.901 4.06992 26.3538 3.88867 26.8332 3.88867ZM26.8329 3.85742C26.3657 3.85742 25.8976 4.02992 25.536 4.3768L4.35693 24.6818C3.61255 25.3955 3.58756 26.5884 4.30099 27.3327L4.32256 27.3552C4.68943 27.7377 5.18255 27.9302 5.67662 27.9302C6.1438 27.9302 6.61193 27.7577 6.97349 27.4109L28.1526 7.10586C28.8969 6.39211 28.9219 5.1993 28.2085 4.45492L28.1869 4.43242C27.8204 4.04992 27.3269 3.85742 26.8329 3.85742Z" fill="currentColor"/>
</svg>
