<svg width="inherit" height="inherit" viewBox="0 0 20 18" fill="none" xmlns="http://www.w3.org/2000/svg">
<path d="M18.7758 12.4283H7.55804C7.0129 12.4283 6.57405 11.9532 6.57405 11.3731C6.57405 10.7929 7.0129 10.3191 7.55804 10.3191H18.7758C19.3209 10.3191 19.761 10.7942 19.761 11.3731C19.761 11.9545 19.3209 12.4283 18.7758 12.4283ZM18.7758 7.50588H7.55804C7.0129 7.50588 6.57405 7.03076 6.57405 6.45062C6.57405 5.87048 7.0129 5.39536 7.55804 5.39536H18.7758C19.3209 5.39536 19.761 5.87048 19.761 6.45062C19.761 7.03076 19.3209 7.50588 18.7758 7.50588ZM18.7058 2.75847H1.52531C0.946423 2.75847 0.436298 2.31836 0.418794 1.73822C0.414093 1.59662 0.437955 1.45552 0.488957 1.32334C0.539959 1.19115 0.617056 1.0706 0.715651 0.968852C0.814246 0.867106 0.93232 0.786257 1.06283 0.731124C1.19334 0.675992 1.33362 0.647705 1.4753 0.647951H18.6532C19.2334 0.647951 19.7435 1.08806 19.761 1.6682C19.7657 1.8097 19.7419 1.95069 19.691 2.08279C19.64 2.21489 19.5631 2.33539 19.4646 2.43712C19.3661 2.53884 19.2482 2.61972 19.1178 2.67493C18.9875 2.73013 18.8473 2.75854 18.7058 2.75847ZM5.32499 12.4108V5.41286L0.420044 8.91247L5.32499 12.4108C5.32499 12.4283 5.32499 12.4283 5.32499 12.4108ZM1.47405 15.0665H18.6532C19.2334 15.0665 19.7435 15.5053 19.761 16.0855C19.7657 16.227 19.7419 16.368 19.691 16.5001C19.64 16.6322 19.5631 16.7527 19.4646 16.8544C19.3661 16.9561 19.2482 17.037 19.1178 17.0922C18.9875 17.1474 18.8473 17.1758 18.7058 17.1757H1.52531C0.946423 17.1757 0.436298 16.7369 0.418794 16.1555C0.414268 16.0141 0.438218 15.8732 0.48922 15.7413C0.540222 15.6093 0.617234 15.489 0.715678 15.3874C0.814122 15.2858 0.931988 15.205 1.06227 15.1499C1.19255 15.0948 1.33259 15.0664 1.47405 15.0665Z" fill="currentColor"/>
</svg>
