<svg viewBox="0 0 16 16" fill="none" xmlns="http://www.w3.org/2000/svg">
<path d="M10.0002 5.0013C10.0002 4.9129 10.0353 4.82811 10.0978 4.7656C10.1603 4.70309 10.2451 4.66797 10.3335 4.66797H11.0002C11.0886 4.66797 11.1734 4.70309 11.2359 4.7656C11.2984 4.82811 11.3335 4.9129 11.3335 5.0013V5.66797C11.3335 5.75637 11.2984 5.84116 11.2359 5.90367C11.1734 5.96618 11.0886 6.0013 11.0002 6.0013H10.3335C10.2451 6.0013 10.1603 5.96618 10.0978 5.90367C10.0353 5.84116 10.0002 5.75637 10.0002 5.66797V5.0013ZM10.3335 7.33464C10.2897 7.33464 10.2464 7.34326 10.2059 7.36001C10.1655 7.37676 10.1287 7.40131 10.0978 7.43227C10.0668 7.46322 10.0423 7.49997 10.0255 7.54041C10.0088 7.58085 10.0002 7.62419 10.0002 7.66797V8.33464C10.0002 8.37841 10.0088 8.42176 10.0255 8.4622C10.0423 8.50264 10.0668 8.53938 10.0978 8.57034C10.1287 8.60129 10.1655 8.62584 10.2059 8.6426C10.2464 8.65935 10.2897 8.66797 10.3335 8.66797H11.0002C11.0439 8.66797 11.0873 8.65935 11.1277 8.6426C11.1682 8.62584 11.2049 8.60129 11.2359 8.57034C11.2668 8.53938 11.2914 8.50264 11.3081 8.4622C11.3249 8.42176 11.3335 8.37841 11.3335 8.33464V7.66797C11.3335 7.62419 11.3249 7.58085 11.3081 7.54041C11.2914 7.49997 11.2668 7.46322 11.2359 7.43227C11.2049 7.40131 11.1682 7.37676 11.1277 7.36001C11.0873 7.34326 11.0439 7.33464 11.0002 7.33464H10.3335ZM10.0002 10.3346C10.0002 10.2462 10.0353 10.1614 10.0978 10.0989C10.1603 10.0364 10.2451 10.0013 10.3335 10.0013H11.0002C11.0886 10.0013 11.1734 10.0364 11.2359 10.0989C11.2984 10.1614 11.3335 10.2462 11.3335 10.3346V11.0013C11.3335 11.0897 11.2984 11.1745 11.2359 11.237C11.1734 11.2995 11.0886 11.3346 11.0002 11.3346H10.3335C10.2451 11.3346 10.1603 11.2995 10.0978 11.237C10.0353 11.1745 10.0002 11.0897 10.0002 11.0013V10.3346ZM7.66683 4.66797C7.62306 4.66797 7.57971 4.67659 7.53927 4.69334C7.49883 4.71009 7.46208 4.73465 7.43113 4.7656C7.40017 4.79655 7.37562 4.8333 7.35887 4.87374C7.34212 4.91418 7.3335 4.95753 7.3335 5.0013V5.66797C7.3335 5.71174 7.34212 5.75509 7.35887 5.79553C7.37562 5.83597 7.40017 5.87272 7.43113 5.90367C7.46208 5.93462 7.49883 5.95918 7.53927 5.97593C7.57971 5.99268 7.62306 6.0013 7.66683 6.0013H8.3335C8.37727 6.0013 8.42062 5.99268 8.46106 5.97593C8.5015 5.95918 8.53825 5.93462 8.5692 5.90367C8.60015 5.87272 8.6247 5.83597 8.64146 5.79553C8.65821 5.75509 8.66683 5.71174 8.66683 5.66797V5.0013C8.66683 4.95753 8.65821 4.91418 8.64146 4.87374C8.6247 4.8333 8.60015 4.79655 8.5692 4.7656C8.53825 4.73465 8.5015 4.71009 8.46106 4.69334C8.42062 4.67659 8.37727 4.66797 8.3335 4.66797H7.66683Z" fill="#919FB4"/>
<path d="M5.11765 1C4.73542 1 4.36885 1.15184 4.09858 1.42211C3.82831 1.69238 3.67647 2.05895 3.67647 2.44118V7.12541L1.41176 8.82353C1.28392 8.91942 1.18015 9.04375 1.10868 9.18669C1.03721 9.32963 1 9.48725 1 9.64706V13.9706C1 14.5388 1.46118 15 2.02941 15H13.5588C13.941 15 14.3076 14.8482 14.5779 14.5779C14.8482 14.3076 15 13.941 15 13.5588V2.44118C15 2.05895 14.8482 1.69238 14.5779 1.42211C14.3076 1.15184 13.941 1 13.5588 1H5.11765ZM5.52941 6.66176C5.35128 6.52802 5.13452 6.45576 4.91176 6.45588V2.44118C4.91176 2.38657 4.93346 2.33421 4.97207 2.2956C5.01068 2.25699 5.06304 2.23529 5.11765 2.23529H13.5588C13.6134 2.23529 13.6658 2.25699 13.7044 2.2956C13.743 2.33421 13.7647 2.38657 13.7647 2.44118V13.5588C13.7647 13.6134 13.743 13.6658 13.7044 13.7044C13.6658 13.743 13.6134 13.7647 13.5588 13.7647H8.82353V9.64706C8.82353 9.48725 8.78632 9.32963 8.71485 9.18669C8.64338 9.04375 8.53961 8.91942 8.41176 8.82353L5.52941 6.66176ZM7.58824 9.75V13.7647H5.52941V11.5C5.52941 11.3362 5.46434 11.1791 5.34851 11.0633C5.23268 10.9474 5.07557 10.8824 4.91176 10.8824C4.74795 10.8824 4.59085 10.9474 4.47502 11.0633C4.35919 11.1791 4.29412 11.3362 4.29412 11.5V13.7647H2.23529V9.75L4.91176 7.74223L7.58824 9.75082V9.75Z" fill="#919FB4"/>
</svg>
