<svg viewBox="0 0 20 20" fill="none" xmlns="http://www.w3.org/2000/svg">
<g clip-path="url(#clip0_2507_64174)">
<path d="M19.5626 12.7899L20.1668 13.761C18.4751 15.2178 20.1668 16.5531 20.1668 16.5531L19.5626 17.5242C17.3876 16.9173 17.0251 18.9809 17.0251 18.9809H15.696C15.0918 16.7959 13.1585 17.6456 13.1585 17.6456L12.4335 16.5531C14.1251 14.975 12.4335 13.761 12.4335 13.761L13.1585 12.6685C15.3335 13.2755 15.696 11.2118 15.696 11.2118H16.9043C17.3876 13.2755 19.5626 12.7899 19.5626 12.7899ZM16.3001 16.5531C17.146 16.5531 17.7501 15.9461 17.7501 15.0964C17.7501 14.368 17.146 13.6396 16.3001 13.6396C15.4543 13.6396 14.8501 14.2466 14.8501 15.0964C14.8501 15.9461 15.4543 16.5531 16.3001 16.5531ZM8.80846 7.69141H12.4335C12.9168 7.69141 13.2793 8.05558 13.2793 8.54116C13.2793 9.02673 12.796 9.3909 12.3126 9.3909H8.68763C8.2043 9.3909 7.8418 9.02673 7.8418 8.54116C7.8418 8.05558 8.32513 7.69141 8.80846 7.69141Z" fill="currentColor"/>
<path d="M12.3124 9.5126H8.68737C8.0832 9.5126 7.7207 9.02703 7.7207 8.54145C7.7207 8.05588 8.20404 7.57031 8.68737 7.57031H12.3124C12.9165 7.57031 13.279 8.05588 13.279 8.54145C13.279 9.02703 12.9165 9.5126 12.3124 9.5126ZM8.8082 7.8131C8.4457 7.8131 8.0832 8.17728 8.0832 8.54145C8.0832 8.90563 8.32487 9.26981 8.8082 9.26981H12.4332C12.7957 9.26981 13.1582 8.90563 13.1582 8.54145C13.1582 8.17728 12.7957 7.8131 12.3124 7.8131H8.8082Z" fill="currentColor"/>
<path d="M11.1043 2.83509C10.8627 2.5923 10.5002 2.5923 10.1377 2.83509L4.33766 6.35547L4.4585 16.4311H10.5002C10.9835 16.4311 11.346 16.7952 11.346 17.2808C11.346 17.7664 10.9835 18.1306 10.5002 18.1306H3.49183C3.0085 18.1306 2.646 17.7664 2.646 17.2808V7.32661L2.2835 7.5694C2.04183 7.69079 1.67933 7.81219 1.31683 7.5694C0.954329 7.32662 0.833496 7.20522 0.833496 6.84104C0.833496 6.47687 1.07516 6.23408 1.31683 6.11269L10.1377 0.892802C10.5002 0.77141 10.8627 0.77141 11.1043 0.892802L19.6835 6.11269C20.046 6.23408 20.1668 6.59826 20.1668 6.84104C20.1668 7.20522 19.9252 7.44801 19.5627 7.5694C19.2002 7.69079 18.8377 7.5694 18.596 7.44801V9.51168C18.596 9.75447 18.4752 9.99726 18.3543 10.1186C18.2335 10.3614 17.9918 10.4828 17.7502 10.4828C17.2668 10.4828 16.9043 10.1186 16.9043 9.63308V6.35547L15.9377 5.74851L11.1043 2.83509Z" fill="currentColor"/>
<path d="M3.49157 18.2523C2.8874 18.2523 2.5249 17.8881 2.5249 17.2811V7.5697H2.28324C2.04157 7.81249 1.55824 7.93388 1.31657 7.69109C0.954069 7.5697 0.712402 7.20552 0.712402 6.84135C0.712402 6.47717 0.954069 6.11299 1.31657 5.9916L10.1374 0.771709C10.4999 0.650316 10.8624 0.650316 11.2249 0.771709L19.9249 5.9916C20.1666 6.23438 20.2874 6.59856 20.2874 6.84135C20.2874 7.20552 20.0457 7.5697 19.6832 7.69109C19.4416 7.81249 19.0791 7.81249 18.8374 7.69109V9.51199C18.8374 9.75477 18.7166 9.99756 18.5957 10.2403C18.3541 10.4831 18.1124 10.6045 17.7499 10.6045C17.1457 10.6045 16.7832 10.1189 16.7832 9.63338V6.35577L15.8166 5.74881L10.9832 2.83539C10.7416 2.71399 10.4999 2.71399 10.2582 2.83539L4.45824 6.35577V16.1886H10.4999C11.1041 16.1886 11.4666 16.6742 11.4666 17.1597C11.4666 17.6453 11.1041 18.2523 10.4999 18.2523H3.49157ZM2.76657 7.08413V17.2811C2.76657 17.7667 3.00824 18.0095 3.49157 18.0095H10.4999C10.8624 18.0095 11.2249 17.6453 11.2249 17.2811C11.2249 16.9169 10.8624 16.5528 10.4999 16.5528H4.21657V6.23438L10.1374 2.71399C10.4999 2.47121 10.8624 2.47121 11.2249 2.71399L16.2999 5.74881L17.1457 6.23438V9.51199C17.1457 9.87616 17.5082 10.2403 17.8707 10.2403C18.1124 10.2403 18.2332 10.1189 18.4749 9.99756C18.5957 9.87616 18.7166 9.63338 18.7166 9.51199V7.08413L18.9582 7.32692C19.1999 7.5697 19.4416 7.5697 19.8041 7.44831C20.1666 7.32692 20.2874 7.08413 20.2874 6.84135C20.2874 6.59856 20.1666 6.23438 19.9249 6.11299L19.8041 5.9916L11.3457 0.893101C10.8624 0.893101 10.4999 0.893101 10.2582 1.01449L1.4374 6.11299C1.0749 6.23438 0.954069 6.59856 0.954069 6.84135C0.954069 7.08413 1.0749 7.44831 1.31657 7.5697C1.55824 7.69109 1.92074 7.69109 2.1624 7.44831L2.76657 7.08413Z" fill="currentColor"/>
</g>
<defs>
<clipPath id="clip0_2507_64174">
<rect width="20" height="20" fill="currentColor"/>
</clipPath>
</defs>
</svg>
