<svg  viewBox="0 0 16 16" fill="none" xmlns="http://www.w3.org/2000/svg">
<path d="M1.46667 15C1.3429 15 1.2242 14.9473 1.13668 14.8536C1.04917 14.7598 1 14.6326 1 14.5V2.5C1 2.30302 1.03621 2.10796 1.10657 1.92597C1.17693 1.74399 1.28005 1.57863 1.41005 1.43934C1.54005 1.30005 1.69439 1.18956 1.86424 1.11418C2.0341 1.0388 2.21615 1 2.4 1H8.93333C9.11718 1 9.29923 1.0388 9.46909 1.11418C9.63895 1.18956 9.79328 1.30005 9.92328 1.43934C10.0533 1.57863 10.1564 1.74399 10.2268 1.92597C10.2971 2.10796 10.3333 2.30302 10.3333 2.5V5.5H13.6C13.7839 5.5 13.9659 5.5388 14.1358 5.61418C14.3056 5.68956 14.4599 5.80005 14.59 5.93934C14.72 6.07863 14.8231 6.24399 14.8934 6.42597C14.9638 6.60796 15 6.80302 15 7V14.5C15 14.6326 14.9508 14.7598 14.8633 14.8536C14.7758 14.9473 14.6571 15 14.5333 15H1.46667ZM8.93333 2H2.4C2.27623 2 2.15753 2.05268 2.07002 2.14645C1.9825 2.24021 1.93333 2.36739 1.93333 2.5V14H3.33333V11C3.33333 10.7348 3.43167 10.4804 3.6067 10.2929C3.78173 10.1054 4.01913 10 4.26667 10H7.06667C7.3142 10 7.5516 10.1054 7.72663 10.2929C7.90167 10.4804 8 10.7348 8 11V14H9.4V2.5C9.4 2.36739 9.35083 2.24021 9.26332 2.14645C9.1758 2.05268 9.0571 2 8.93333 2ZM7.06667 11H4.26667V14H7.06667V11ZM13.6 6.5H10.3333V14H14.0667V7C14.0667 6.86739 14.0175 6.74021 13.93 6.64645C13.8425 6.55268 13.7238 6.5 13.6 6.5ZM7.53333 7C7.65228 7.00014 7.76668 7.04894 7.85317 7.13642C7.93966 7.22391 7.99171 7.34348 7.99868 7.4707C8.00565 7.59792 7.96702 7.72319 7.89068 7.82092C7.81433 7.91864 7.70604 7.98145 7.58793 7.9965L7.53333 8H3.8C3.68106 7.99986 3.56665 7.95106 3.48016 7.86358C3.39367 7.77609 3.34162 7.65652 3.33465 7.5293C3.32768 7.40208 3.36631 7.27681 3.44266 7.17908C3.519 7.08136 3.62729 7.01855 3.7454 7.0035L3.8 7H7.53333ZM7.53333 4C7.65228 4.00014 7.76668 4.04894 7.85317 4.13642C7.93966 4.22391 7.99171 4.34348 7.99868 4.4707C8.00565 4.59792 7.96702 4.72319 7.89068 4.82092C7.81433 4.91864 7.70604 4.98145 7.58793 4.9965L7.53333 5H3.8C3.68106 4.99986 3.56665 4.95106 3.48016 4.86358C3.39367 4.77609 3.34162 4.65652 3.33465 4.5293C3.32768 4.40208 3.36631 4.27681 3.44266 4.17908C3.519 4.08136 3.62729 4.01855 3.7454 4.0035L3.8 4H7.53333Z" fill="#919FB4"/>
</svg>
