<svg viewBox="0 0 21 23" fill="none" xmlns="http://www.w3.org/2000/svg">
<path d="M14.3881 11.2179L9.19113 16.8953L6.57423 13.8667C6.33226 13.5867 5.92038 13.566 5.65425 13.8208C5.38816 14.0755 5.36862 14.509 5.61061 14.789L8.56255 18.2054C8.69109 18.3541 8.86746 18.4296 9.04454 18.4296C9.10002 18.4296 9.15555 18.4221 9.20969 18.4072C9.24883 18.4148 9.28855 18.4186 9.32835 18.4186C9.49908 18.4186 9.6696 18.3484 9.79742 18.2088L15.3261 12.169C15.5756 11.8964 15.568 11.4625 15.3089 11.1998C15.0499 10.9372 14.6376 10.9453 14.3881 11.2179ZM18.3081 4.55565H15.7086V2.47253C15.7086 2.09399 15.417 1.78711 15.0573 1.78711C14.6977 1.78711 14.4061 2.09397 14.4061 2.47253V4.55567H6.5181V2.4833C6.5181 2.10476 6.22654 1.79788 5.86686 1.79788C5.50719 1.79788 5.21561 2.10474 5.21561 2.4833V4.55565H2.66425C1.91592 4.55565 1.30713 5.19746 1.30713 5.98637V19.6717C1.30713 20.4606 1.91592 21.1024 2.66425 21.1024H18.3081C19.0564 21.1024 19.6653 20.4606 19.6653 19.6717V5.98637C19.6653 5.19749 19.0564 4.55565 18.3081 4.55565ZM2.66425 5.92423H18.3081C18.3394 5.92423 18.3648 5.95214 18.3648 5.98637V8.68951H2.60751V5.98637C2.60751 5.95214 2.63296 5.92423 2.66425 5.92423ZM18.3081 19.7338H2.66425C2.63294 19.7338 2.60749 19.7059 2.60749 19.6717V10.0603H18.3648V19.6717C18.3648 19.7059 18.3394 19.7338 18.3081 19.7338Z" fill="currentColor"/>
</svg>
