<svg  viewBox="0 0 20 18" fill="none" xmlns="http://www.w3.org/2000/svg">
<path d="M15.5349 11.0763H14.3399V12.1848H15.5349V11.0763ZM15.5349 13.2911H14.3399V14.3996H15.5349V13.2911ZM11.9499 8.86145H10.755V9.96996H11.9499V8.86145ZM11.9499 1.1074H7.17007V2.21481H11.9499V1.1074ZM5.38227 3.30763C5.71019 3.30763 5.97392 2.97776 5.97392 2.57114V0.735395C5.97392 0.329856 5.71019 0 5.38227 0C5.05671 0 4.79181 0.329856 4.79181 0.735395V2.57115C4.79181 2.97777 5.05671 3.30763 5.38227 3.30763ZM13.7472 3.30763C14.0809 3.30763 14.3516 2.97776 14.3516 2.57114V0.735395C14.3516 0.329856 14.0809 0 13.7472 0C13.4134 0 13.1427 0.329856 13.1427 0.735395V2.57115C13.1427 2.97777 13.4134 3.30763 13.7472 3.30763ZM11.9499 11.0763H10.755V12.1848H11.9499V11.0763ZM15.5349 8.86145H14.3399V9.96996H15.5349V8.86145ZM4.78011 13.2911H3.58511V14.4006H4.78011V13.2911ZM4.78011 11.0763H3.58511V12.1848H4.78011V11.0763ZM17.9248 1.1074H15.5349V2.21481H17.9248V5.53707H1.19518V2.21481H3.58513V1.1074H1.19518C-0.0440969 1.1074 0.000197146 2.24348 0.000197146 2.21481V16.6112C0.000197146 17.6894 1.15087 17.7186 1.19518 17.7186H17.9248C19.0148 17.7186 19.1198 16.6523 19.1198 16.6112V2.21481C19.1198 2.13968 19.0883 1.1074 17.9248 1.1074ZM17.9248 16.6112H1.19518V6.64449H17.9248L17.9248 16.6112ZM11.9499 13.2911H10.755V14.4006H11.9499V13.2911ZM8.36508 11.0763H7.17007V12.1848H8.36508V11.0763ZM8.36508 8.86145H7.17007V9.96996H8.36508V8.86145ZM8.36508 13.2911H7.17007V14.4006H8.36508V13.2911ZM4.78011 8.86145H3.58511V9.96996H4.78011V8.86145Z" fill="currentColor"/>
</svg>
