<svg  viewBox="0 0 16 16" fill="none" xmlns="http://www.w3.org/2000/svg">
<g clip-path="url(#clip0_1279_17444)">
<path d="M13.0721 3.02813H14.6377C14.9314 3.02813 15.1674 2.775 15.1674 2.46094C15.1674 2.14687 14.9314 1.91094 14.6377 1.91094H11.3268V1.34219C11.3268 0.625 10.7814 0.03125 10.1033 0.03125H5.90488C5.23613 0.03125 4.68145 0.617188 4.68145 1.34219V1.90937H1.3627C1.06895 1.90937 0.833008 2.1625 0.833008 2.47656C0.833008 2.79063 1.06895 3.04375 1.3627 3.04375H2.92832L13.0721 3.02813ZM12.5721 3.96406L3.42832 3.97969C3.10801 3.97969 2.84707 4.25469 2.84707 4.59219V13.9062C2.84707 15.0406 3.72676 15.9688 4.80176 15.9688H11.1986C12.2736 15.9688 13.1533 15.0406 13.1533 13.9062V4.57812C13.1533 4.23906 12.8924 3.96406 12.5721 3.96406Z" fill="currentCOlor"/>
</g>
<defs>
<clipPath id="clip0_1279_17444">
<rect width="16" height="16" fill="currentColor"/>
</clipPath>
</defs>
</svg>
