<svg viewBox="0 0 16 16" fill="none" xmlns="http://www.w3.org/2000/svg">
<path d="M8.89429 10.6667H7.10312L6.55548 11.8047C6.53701 11.8455 6.51008 11.8825 6.47627 11.9134C6.44246 11.9443 6.40246 11.9685 6.35861 11.9845C6.31476 12.0006 6.26795 12.0082 6.22093 12.007C6.17392 12.0057 6.12764 11.9956 6.08483 11.9772C6.04202 11.9588 6.00353 11.9325 5.97163 11.8998C5.93973 11.8672 5.91507 11.8288 5.89908 11.7871C5.8831 11.7453 5.87612 11.7009 5.87855 11.6565C5.88099 11.6121 5.89279 11.5687 5.91326 11.5287L7.6776 7.86201C7.70567 7.80382 7.75087 7.75448 7.8078 7.71988C7.86474 7.68528 7.93101 7.66689 7.99871 7.66689C8.0664 7.66689 8.13267 7.68528 8.18961 7.71988C8.24654 7.75448 8.29174 7.80382 8.31981 7.86201L10.0841 11.5287C10.1046 11.5687 10.1164 11.6121 10.1189 11.6565C10.1213 11.7009 10.1143 11.7453 10.0983 11.7871C10.0823 11.8288 10.0577 11.8672 10.0258 11.8998C9.99388 11.9325 9.95539 11.9588 9.91258 11.9772C9.86977 11.9956 9.82349 12.0057 9.77648 12.007C9.72946 12.0082 9.68265 12.0006 9.6388 11.9845C9.59495 11.9685 9.55495 11.9443 9.52114 11.9134C9.48733 11.8825 9.4604 11.8455 9.44193 11.8047L8.89429 10.6667ZM8.57319 10L7.99871 8.80533L7.42422 10H8.57319ZM4.47004 1.00001H13.6445C13.6911 0.999684 13.7372 1.00807 13.7804 1.02467C13.8235 1.04128 13.8627 1.06578 13.8957 1.09676C13.9288 1.12775 13.955 1.1646 13.9729 1.20521C13.9908 1.24581 14 1.28936 14 1.33334C14 1.37732 13.9908 1.42087 13.9729 1.46147C13.955 1.50207 13.9288 1.53893 13.8957 1.56991C13.8627 1.6009 13.8235 1.6254 13.7804 1.64201C13.7372 1.65861 13.6911 1.66699 13.6445 1.66667H4.47006C4.00213 1.66667 3.55336 1.84226 3.22248 2.15482C2.89161 2.46739 2.70572 2.89131 2.70572 3.33334C2.70572 3.77537 2.89161 4.19929 3.22248 4.51186C3.55336 4.82442 4.00213 5.00001 4.47006 5.00001H13.6445C13.7381 5.00001 13.8279 5.03513 13.894 5.09764C13.9602 5.16015 13.9974 5.24493 13.9974 5.33333V14.6667C13.9974 14.7551 13.9602 14.8398 13.894 14.9024C13.8279 14.9649 13.7381 15 13.6445 15H4.47006C3.81496 15 3.18669 14.7542 2.72346 14.3166C2.26024 13.879 2 13.2855 2 12.6667V3.33334C2 2.7145 2.26024 2.12101 2.72346 1.68343C3.18669 1.24584 3.81494 1.00001 4.47004 1.00001ZM2.7057 4.96667V12.6667C2.7057 13.1087 2.89159 13.5326 3.22246 13.8452C3.55334 14.1577 4.00211 14.3333 4.47004 14.3333H13.2917V5.66667H4.47006C4.14141 5.66709 3.81599 5.60537 3.51298 5.48516C3.20997 5.36494 2.93547 5.18865 2.7057 4.96667ZM4.47004 3.66668C4.37645 3.66668 4.2867 3.63156 4.22052 3.56905C4.15434 3.50653 4.11717 3.42175 4.11717 3.33334C4.11717 3.24493 4.15434 3.16015 4.22052 3.09764C4.2867 3.03512 4.37645 3 4.47004 3H12.9388C13.0324 3 13.1222 3.03512 13.1883 3.09764C13.2545 3.16015 13.2917 3.24493 13.2917 3.33334C13.2917 3.42175 13.2545 3.50653 13.1883 3.56905C13.1222 3.63156 13.0324 3.66668 12.9388 3.66668H4.47004Z" fill="#919FB4" stroke="#919FB4" stroke-width="0.4"/>
</svg>
