<svg width="16" height="16" viewBox="0 0 16 16" fill="none" xmlns="http://www.w3.org/2000/svg">
<path d="M4.17725 13.8943L6.475 12.3021L4.18973 10.5913L4.17725 13.8943Z" fill="currentColor"/>
<path d="M3.88973 4.29102L0.361922 5.42741C-0.456029 5.68965 0.368166 6.46389 0.368166 6.46389L3.12797 8.76789L6.41851 6.8198L3.88973 4.29102Z" fill="currentColor"/>
<path d="M4.146 9.54216L10.1339 14.069C11.083 14.6934 11.3265 14.1939 11.3265 14.1939L11.7448 13.2073L12.0258 12.4268L6.962 7.36304C5.81312 8.24343 4.74541 9.06762 4.146 9.54216Z" fill="currentColor"/>
<path d="M15.1974 0.663306L6.77441 3.36692L8.81617 5.40867L11.7258 3.68536C11.7258 3.68536 10.5582 4.58448 9.10963 5.70214L13.0308 9.62331L15.9654 1.46253C16.1215 1.05043 15.672 0.582136 15.1974 0.663306Z" fill="currentColor"/>
<path d="M3.49641 1.16304C3.2966 0.963232 2.96567 0.963232 2.75963 1.16304C2.55358 1.36284 2.55982 1.69377 2.75963 1.89982L14.4482 13.5884C14.648 13.7882 14.9789 13.7882 15.185 13.5884C15.391 13.3886 15.3848 13.0577 15.185 12.8516L3.49641 1.16304Z" fill="currentColor"/>
</svg>
