<svg width="16" height="16" viewBox="0 0 16 16" fill="none" xmlns="http://www.w3.org/2000/svg">
<path d="M13.923 12.846V2.615C13.923 2.47231 13.8663 2.33547 13.7654 2.23458C13.6645 2.13368 13.5277 2.077 13.385 2.077H3.154C3.154 1.482 3.636 1 4.231 1H13.923C14.518 1 15 1.482 15 2.077V11.769C15 12.364 14.518 12.846 13.923 12.846ZM12.846 4.231V13.923C12.846 14.518 12.364 15 11.769 15H2.077C1.79136 15 1.51742 14.8865 1.31545 14.6846C1.11347 14.4826 1 14.2086 1 13.923V4.231C1 3.636 1.482 3.154 2.077 3.154H11.769C12.364 3.154 12.846 3.636 12.846 4.231ZM10.692 6.385H3.154C3.01131 6.385 2.87447 6.44168 2.77358 6.54258C2.67268 6.64347 2.616 6.78031 2.616 6.923C2.616 7.06569 2.67268 7.20253 2.77358 7.30342C2.87447 7.40432 3.01131 7.461 3.154 7.461H10.692C10.8347 7.461 10.9715 7.40432 11.0724 7.30342C11.1733 7.20253 11.23 7.06569 11.23 6.923C11.23 6.78031 11.1733 6.64347 11.0724 6.54258C10.9715 6.44168 10.8347 6.385 10.692 6.385ZM10.692 9.615H3.154C3.01131 9.615 2.87447 9.67168 2.77358 9.77258C2.67268 9.87347 2.616 10.0103 2.616 10.153C2.616 10.2957 2.67268 10.4325 2.77358 10.5334C2.87447 10.6343 3.01131 10.691 3.154 10.691H10.692C10.8347 10.691 10.9715 10.6343 11.0724 10.5334C11.1733 10.4325 11.23 10.2957 11.23 10.153C11.23 10.0103 11.1733 9.87347 11.0724 9.77258C10.9715 9.67168 10.8347 9.615 10.692 9.615Z" fill="#6CDA84"/>
</svg>
