<svg  viewBox="0 0 16 16" fill="none" xmlns="http://www.w3.org/2000/svg">
<path d="M14.991 15.0171C14.991 15.2961 14.7959 15.5237 14.5538 15.5237H1.43428C1.19423 15.5237 0.999023 15.2961 0.999023 15.0171C0.999023 14.7361 1.19423 14.5105 1.43428 14.5105H14.5538C14.7959 14.5105 14.991 14.7361 14.991 15.0171Z" fill="currentColor"/>
<path d="M13.354 4.26521C13.1607 4.46214 12.8425 4.46214 12.6474 4.26521L10.5294 2.11698C10.3352 1.92015 10.3352 1.59753 10.5294 1.40064L11.236 0.683221C11.4293 0.48629 11.7475 0.48629 11.9427 0.683221L14.0626 2.83242C14.2558 3.03034 14.2558 3.35287 14.0626 3.54882L13.354 4.26521Z" fill="currentColor"/>
<path d="M5.58265 12.1456C5.38937 12.3415 5.07118 12.3415 4.87604 12.1456L2.75516 9.9974C2.56094 9.80048 2.56094 9.47788 2.75418 9.28103L9.11481 2.83242C9.30899 2.63651 9.62722 2.63651 9.8214 2.83242L11.9403 4.9816C12.1356 5.17954 12.1356 5.50211 11.9403 5.69804L5.58265 12.1456Z" fill="currentColor"/>
<path d="M2.04807 10.7137C1.85392 10.5169 1.65088 10.5792 1.59723 10.8523L1.08579 13.4418C1.03209 13.7149 1.20878 13.893 1.47815 13.8386L4.03136 13.3221C4.30074 13.2676 4.36118 13.0619 4.16801 12.8639L2.04807 10.7137Z" fill="currentColor"/>
</svg>
