<svg width="20" height="20" viewBox="0 0 20 20" fill="none" xmlns="http://www.w3.org/2000/svg">
<path d="M16.1342 16.3432H3.82812C3.06289 16.3432 2.44043 15.7207 2.44043 14.9555V6.64337C2.44043 5.87814 3.06289 5.25568 3.82812 5.25568H16.1342C16.8994 5.25568 17.5219 5.87814 17.5219 6.64337V14.9555C17.5221 15.7207 16.8994 16.3432 16.1342 16.3432ZM3.82812 6.18087C3.57305 6.18087 3.36563 6.38849 3.36563 6.64337V14.9555C3.36563 15.2106 3.57305 15.418 3.82812 15.418H16.1342C16.3893 15.418 16.5967 15.2104 16.5967 14.9555V6.64337C16.5967 6.38829 16.3893 6.18087 16.1342 6.18087H3.82812Z" fill="black" fill-opacity="0.25"/>
<path d="M9.98086 11.8205C9.34004 11.8205 8.69902 11.5766 8.21113 11.0887L3.41699 6.29454L4.07109 5.64044L8.86543 10.4346C9.48066 11.0496 10.4816 11.0494 11.0967 10.4346L15.891 5.64044L16.5451 6.29454L11.7508 11.0887C11.2629 11.5766 10.6221 11.8205 9.98086 11.8205Z" fill="black" fill-opacity="0.25"/>
<path d="M15.8908 15.8062L11.0967 11.0123L11.7506 10.3578L16.5449 15.1521L15.8908 15.8062ZM4.07109 15.8062L3.41699 15.1521L8.21133 10.3578L8.86543 11.0123L4.07109 15.8062Z" fill="black" fill-opacity="0.25"/>
</svg>
