<svg width="inherit" height="inherit" viewBox="0 0 16 12" fill="none" xmlns="http://www.w3.org/2000/svg">
<path d="M14.1342 11.3432H1.82812C1.06289 11.3432 0.44043 10.7207 0.44043 9.95548V1.64337C0.44043 0.878138 1.06289 0.255676 1.82812 0.255676H14.1342C14.8994 0.255676 15.5219 0.878138 15.5219 1.64337V9.95548C15.5221 10.7207 14.8994 11.3432 14.1342 11.3432ZM1.82812 1.18087C1.57305 1.18087 1.36563 1.38849 1.36563 1.64337V9.95548C1.36563 10.2106 1.57305 10.418 1.82812 10.418H14.1342C14.3893 10.418 14.5967 10.2104 14.5967 9.95548V1.64337C14.5967 1.38829 14.3893 1.18087 14.1342 1.18087H1.82812Z" fill="currentColor" fill-opacity="0.25"/>
</svg>
