<svg viewBox="0 0 17 21" fill="none" xmlns="http://www.w3.org/2000/svg">
<g clip-path="url(#clip0_2507_64189)">
<path d="M10.1755 15.2664H9.23504V14.3172C9.23504 14.1223 9.15762 13.9354 9.0198 13.7976C8.882 13.6598 8.69508 13.5824 8.50019 13.5824C8.3053 13.5824 8.11839 13.6598 7.98058 13.7976C7.84277 13.9354 7.76535 14.1223 7.76535 14.3172V15.2664H6.82492C6.62889 15.2664 6.44089 15.3443 6.30229 15.483C6.16368 15.6216 6.08582 15.8096 6.08582 16.0056C6.08582 16.2017 6.16368 16.3897 6.30229 16.5283C6.44089 16.6669 6.62889 16.7448 6.82492 16.7448H7.76535V17.6896C7.76535 17.8845 7.84277 18.0715 7.98058 18.2093C8.11839 18.3471 8.3053 18.4245 8.50019 18.4245C8.69508 18.4245 8.882 18.3471 9.0198 18.2093C9.15762 18.0715 9.23504 17.8845 9.23504 17.6896V16.7448H10.1755C10.3701 16.7414 10.5556 16.6623 10.6929 16.5243C10.8301 16.3863 10.9081 16.2002 10.9103 16.0056C10.9109 15.9088 10.8923 15.8127 10.8556 15.7231C10.819 15.6334 10.7649 15.5519 10.6966 15.4832C10.6283 15.4145 10.5471 15.36 10.4577 15.3228C10.3683 15.2856 10.2723 15.2664 10.1755 15.2664ZM14.882 13.0794C14.2878 12.4357 13.5677 11.9211 12.7664 11.5675C11.965 11.2138 11.0995 11.0287 10.2236 11.0235H6.7768C3.13756 11.0235 0.185059 14.1729 0.185059 18.0221V18.3895C0.185059 19.5793 0.919905 20.3666 2.3721 20.7034L2.63017 20.769C2.67829 20.769 2.7089 20.769 2.75702 20.7996L3.02821 20.8477L3.3169 20.8784H3.46125L3.78056 20.909L4.51103 20.944H12.0257L13.0011 20.9133L13.3336 20.8827H13.4954L13.7972 20.8521H13.9416L14.2127 20.804L14.4664 20.7559C14.5146 20.7559 14.5495 20.7559 14.5977 20.7253C16.063 20.3885 16.8109 19.6011 16.8109 18.4157V18.0439C16.8267 16.2033 16.1363 14.4266 14.882 13.0794ZM15.3456 18.3982C15.3456 18.9625 14.7551 19.155 14.309 19.2731L14.0728 19.3212H13.9416L13.6704 19.3562C13.5741 19.3562 13.4648 19.3562 13.3685 19.3868L12.6512 19.4349L11.8026 19.4655H5.26774L4.24858 19.4349L3.57497 19.3868L3.25129 19.3474H3.10695L2.86637 19.2993H2.75702L2.54706 19.2512C1.95656 19.0937 1.67225 18.8138 1.67225 18.4332V18.0658C1.67225 15.004 3.97302 12.5545 6.78118 12.5545H10.2498C10.9306 12.5582 11.6031 12.7045 12.2239 12.984C12.8447 13.2635 13.4 13.67 13.8541 14.1773C14.8314 15.2402 15.3678 16.6351 15.3544 18.0789L15.3456 18.3982ZM8.50019 9.96502C9.48701 9.97195 10.4537 9.68566 11.2776 9.14245C12.1014 8.59924 12.7455 7.82359 13.1279 6.91387C13.5104 6.00414 13.614 5.00133 13.4258 4.03261C13.2375 3.06389 12.7658 2.17289 12.0704 1.47263C11.3751 0.772372 10.4875 0.294388 9.52008 0.0993002C8.55271 -0.0957877 7.54919 0.000809461 6.63679 0.376841C5.7244 0.752873 4.94423 1.3914 4.39523 2.21144C3.84623 3.03148 3.55313 3.99609 3.5531 4.98294C3.54961 6.29928 4.06859 7.56321 4.9961 8.49729C5.92361 9.43136 7.18386 9.95923 8.50019 9.96502ZM8.50019 1.50117C9.19373 1.49423 9.87368 1.69355 10.4537 2.07381C11.0338 2.45408 11.4877 2.99813 11.7579 3.6369C12.0282 4.27566 12.1025 4.98032 11.9714 5.6614C11.8404 6.34248 11.5099 6.96926 11.0219 7.46215C10.534 7.95504 9.91056 8.2918 9.23083 8.42968C8.5511 8.56756 7.84573 8.50034 7.20428 8.23655C6.56283 7.97275 6.01424 7.52429 5.62817 6.94811C5.24209 6.37192 5.03595 5.69401 5.03592 5.00043C5.03587 4.0784 5.39974 3.19361 6.04843 2.53837C6.69712 1.88312 7.5782 1.51039 8.50019 1.50117Z" fill="currentColor"/>
</g>
<defs>
<clipPath id="clip0_2507_64189">
<rect width="17" height="21" fill="currentColor" transform="translate(0 0.000976562)"/>
</clipPath>
</defs>
</svg>
