<svg viewBox="0 0 20 20" fill="none" xmlns="http://www.w3.org/2000/svg">
<circle cx="10" cy="10" r="8" stroke="white" stroke-width="2"/>
<path d="M7.42976 13.7402L13.7798 7.49017C14.1198 7.15017 14.1298 6.60017 13.7898 6.26017C13.4498 5.92017 12.9098 5.92017 12.5698 6.25017L6.20976 12.5002C5.86976 12.8302 5.85976 13.3802 6.19976 13.7202C6.53976 14.0702 7.08976 14.0802 7.42976 13.7402Z" fill="currentColor"/>
<path d="M6.26011 7.43059L12.5101 13.7906C12.8501 14.1306 13.4001 14.1406 13.7401 13.8006C14.0801 13.4606 14.0801 12.9206 13.7501 12.5806L7.49011 6.21059C7.16011 5.87059 6.61011 5.86059 6.27011 6.19059C5.92011 6.53059 5.92011 7.08059 6.26011 7.43059Z" fill="currentColor"/>
</svg>
