<svg viewBox="0 0 16 16" fill="none" xmlns="http://www.w3.org/2000/svg">
<g clip-path="url(#clip0_12333_46675)">
<path d="M9.64482 7.99053L15.2917 2.34405C15.7453 1.8904 15.7453 1.15223 15.2917 0.698604C15.0717 0.478598 14.7795 0.357439 14.4689 0.357439C14.1584 0.357439 13.8662 0.478598 13.6463 0.698604L7.99935 6.34506L2.35284 0.698587C2.13285 0.478598 1.84066 0.357422 1.53013 0.357422C1.21959 0.357422 0.927415 0.478581 0.707393 0.698587C0.487387 0.918592 0.366211 1.21079 0.366211 1.52132C0.366211 1.83185 0.487404 2.12405 0.707393 2.34407L6.35404 7.99026L0.70741 13.6364C0.487404 13.8564 0.366211 14.1486 0.366211 14.4592C0.366211 14.7698 0.487404 15.0619 0.707376 15.2819C0.927177 15.5018 1.21935 15.6229 1.53007 15.6229C1.84194 15.6229 2.13427 15.5017 2.35286 15.282L7.99956 9.63571L13.6462 15.282C13.866 15.5018 14.1581 15.6229 14.4689 15.6229C14.7802 15.6229 15.0722 15.5017 15.2908 15.282C15.5108 15.062 15.6319 14.7698 15.6319 14.4592C15.6319 14.1486 15.5108 13.8565 15.2908 13.6364L9.64482 7.99053Z" fill="currentColor"/>
</g>
<defs>
<clipPath id="clip0_12333_46675">
<rect width="16" height="16" fill="white"/>
</clipPath>
</defs>
</svg>
