<svg width="16" height="16" viewBox="0 0 16 16" fill="none" xmlns="http://www.w3.org/2000/svg">
<g clip-path="url(#clip0_12375_17448)">
<path d="M14.0292 1.83823C14.0888 1.89634 14.1357 1.96612 14.167 2.04321C14.1984 2.1203 14.2135 2.20304 14.2114 2.28623C14.2136 2.36958 14.1986 2.45248 14.1672 2.52973C14.1359 2.60698 14.0889 2.67691 14.0292 2.73512L12.8772 3.87112L10.2994 1.31557L11.4372 0.194677C11.497 0.132656 11.5689 0.0834256 11.6483 0.0499656C11.7278 0.0165056 11.8132 -0.000488761 11.8994 1.06979e-05C12.0763 1.06979e-05 12.2247 0.0648996 12.3465 0.194677L14.0292 1.83912V1.83823ZM1.23096 10.2382L9.29851 2.30134L11.8914 4.84267L3.82473 12.7929H1.23096V10.2373V10.2382ZM11.5554 11.8844L10.4381 10.7671L9.87895 11.3262L10.9963 12.4444L9.87895 13.5618L10.4381 14.1209L11.5554 13.0036L12.6727 14.1209L13.2318 13.5618L12.1145 12.4444L13.2318 11.3271L12.6727 10.768L11.5554 11.8853V11.8844ZM11.5554 16C10.6124 16 9.70803 15.6254 9.04124 14.9586C8.37444 14.2918 7.99984 13.3874 7.99984 12.4444C7.99984 11.5015 8.37444 10.5971 9.04124 9.93029C9.70803 9.2635 10.6124 8.8889 11.5554 8.8889C12.4984 8.8889 13.4028 9.2635 14.0696 9.93029C14.7363 10.5971 15.1109 11.5015 15.1109 12.4444C15.1109 13.3874 14.7363 14.2918 14.0696 14.9586C13.4028 15.6254 12.4984 16 11.5554 16Z" fill="#7D96C1"/>
</g>
<defs>
<clipPath id="clip0_12375_17448">
<rect width="16" height="16" fill="white"/>
</clipPath>
</defs>
</svg>
