<svg viewBox="0 0 16 16" fill="none" xmlns="http://www.w3.org/2000/svg">
<path d="M12.9249 15.7275H3.07482C2.16745 15.7275 1.42139 14.9916 1.42139 14.0741V1.92541C1.42139 1.01803 2.15737 0.271973 3.07482 0.271973H5.08112V1.41123H3.07482C2.79253 1.41123 2.57073 1.64311 2.57073 1.91532V14.064C2.57073 14.3463 2.80261 14.5681 3.07482 14.5681H12.9148C13.1971 14.5681 13.4189 14.3362 13.4189 14.064V1.92541C13.4189 1.64311 13.187 1.42131 12.9148 1.42131H11.1V0.271973H12.9148C13.8221 0.271973 14.5682 1.00795 14.5682 1.92541V14.0741C14.5682 14.9815 13.8322 15.7275 12.9249 15.7275Z" fill="currentColor"/>
<path d="M6.25101 0.271973H9.93091V1.41123H6.25101V0.271973ZM3.97119 3.89047L12.1577 3.87212L12.1603 5.01138L3.97381 5.02973L3.97119 3.89047ZM4.00144 7.43941L12.188 7.42086L12.1906 8.56011L4.00406 8.57866L4.00144 7.43941ZM3.97119 11.1091L12.1577 11.0908L12.1603 12.23L3.97381 12.2484L3.97119 11.1091Z" fill="currentColor"/>
</svg>
