<svg width="19" height="20" viewBox="0 0 19 20" fill="none" xmlns="http://www.w3.org/2000/svg">
<path d="M15.4375 12.1979L15.8333 12.8306C14.725 13.7798 15.8333 14.6498 15.8333 14.6498L15.4375 15.2825C14.0125 14.8871 13.775 16.2317 13.775 16.2317H12.9041C12.5083 14.808 11.2416 15.3616 11.2416 15.3616L10.7666 14.6498C11.875 13.6216 10.7666 12.8306 10.7666 12.8306L11.2416 12.1188C12.6666 12.5143 12.9041 11.1697 12.9041 11.1697H13.6958C14.0125 12.5143 15.4375 12.1979 15.4375 12.1979ZM13.3 14.6498C13.8541 14.6498 14.25 14.2543 14.25 13.7007C14.25 13.2261 13.8541 12.7516 13.3 12.7516C12.7458 12.7516 12.35 13.147 12.35 13.7007C12.35 14.2543 12.7458 14.6498 13.3 14.6498ZM8.39163 8.87598H10.7666C11.0833 8.87598 11.3208 9.11326 11.3208 9.42963C11.3208 9.746 11.0041 9.98328 10.6875 9.98328H8.31247C7.9958 9.98328 7.7583 9.746 7.7583 9.42963C7.7583 9.11326 8.07497 8.87598 8.39163 8.87598Z" fill="#EB1DB2"/>
<path d="M10.6875 10.0624H8.31253C7.9167 10.0624 7.6792 9.746 7.6792 9.42962C7.6792 9.11325 7.99587 8.79688 8.31253 8.79688H10.6875C11.0834 8.79688 11.3209 9.11325 11.3209 9.42962C11.3209 9.746 11.0834 10.0624 10.6875 10.0624ZM8.3917 8.95506C8.1542 8.95506 7.9167 9.19234 7.9167 9.42962C7.9167 9.6669 8.07503 9.90418 8.3917 9.90418H10.7667C11.0042 9.90418 11.2417 9.6669 11.2417 9.42962C11.2417 9.19234 11.0042 8.95506 10.6875 8.95506H8.3917Z" fill="#EB1DB2"/>
<path d="M9.89567 5.71251C9.73734 5.55432 9.49984 5.55432 9.26234 5.71251L5.46234 8.00622L5.5415 14.571H9.49984C9.8165 14.571 10.054 14.8083 10.054 15.1246C10.054 15.441 9.8165 15.6783 9.49984 15.6783H4.90817C4.5915 15.6783 4.354 15.441 4.354 15.1246V8.63897L4.1165 8.79715C3.95817 8.87625 3.72067 8.95534 3.48317 8.79715C3.24567 8.63897 3.1665 8.55987 3.1665 8.32259C3.1665 8.08531 3.32484 7.92713 3.48317 7.84803L9.26234 4.44702C9.49984 4.36792 9.73734 4.36792 9.89567 4.44702L15.5165 7.84803C15.754 7.92713 15.8332 8.16441 15.8332 8.32259C15.8332 8.55987 15.6748 8.71806 15.4373 8.79715C15.1998 8.87625 14.9623 8.79715 14.804 8.71806V10.0626C14.804 10.2208 14.7248 10.379 14.6457 10.4581C14.5665 10.6163 14.4082 10.6954 14.2498 10.6954C13.9332 10.6954 13.6957 10.4581 13.6957 10.1417V8.00622L13.0623 7.61075L9.89567 5.71251Z" fill="#EB1DB2"/>
<path d="M4.90824 15.7574C4.5124 15.7574 4.2749 15.5201 4.2749 15.1246V8.79715H4.11657C3.95824 8.95533 3.64157 9.03443 3.48324 8.87624C3.24574 8.79715 3.0874 8.55986 3.0874 8.32259C3.0874 8.0853 3.24574 7.84802 3.48324 7.76893L9.2624 4.36791C9.4999 4.28882 9.7374 4.28882 9.9749 4.36791L15.6749 7.76893C15.8332 7.92712 15.9124 8.1644 15.9124 8.32259C15.9124 8.55986 15.7541 8.79715 15.5166 8.87624C15.3582 8.95533 15.1207 8.95533 14.9624 8.87624V10.0626C14.9624 10.2208 14.8832 10.379 14.8041 10.5372C14.6457 10.6954 14.4874 10.7745 14.2499 10.7745C13.8541 10.7745 13.6166 10.4581 13.6166 10.1417V8.00621L12.9832 7.61074L9.81657 5.7125C9.65824 5.63341 9.4999 5.63341 9.34157 5.7125L5.54157 8.00621V14.4128H9.4999C9.89574 14.4128 10.1332 14.7292 10.1332 15.0455C10.1332 15.3619 9.89574 15.7574 9.4999 15.7574H4.90824ZM4.43324 8.48077V15.1246C4.43324 15.441 4.59157 15.5992 4.90824 15.5992H9.4999C9.7374 15.5992 9.9749 15.3619 9.9749 15.1246C9.9749 14.8873 9.7374 14.6501 9.4999 14.6501H5.38324V7.92712L9.2624 5.63341C9.4999 5.47522 9.7374 5.47522 9.9749 5.63341L13.2999 7.61074L13.8541 7.92712V10.0626C13.8541 10.2999 14.0916 10.5372 14.3291 10.5372C14.4874 10.5372 14.5666 10.4581 14.7249 10.379C14.8041 10.2999 14.8832 10.1417 14.8832 10.0626V8.48077L15.0416 8.63896C15.1999 8.79714 15.3582 8.79715 15.5957 8.71805C15.8332 8.63896 15.9124 8.48077 15.9124 8.32259C15.9124 8.1644 15.8332 7.92712 15.6749 7.84802L15.5957 7.76893L10.0541 4.44701C9.7374 4.44701 9.4999 4.44701 9.34157 4.5261L3.5624 7.84802C3.3249 7.92712 3.24574 8.1644 3.24574 8.32259C3.24574 8.48077 3.3249 8.71805 3.48324 8.79715C3.64157 8.87624 3.87907 8.87624 4.0374 8.71805L4.43324 8.48077Z" fill="#EB1DB2"/>
</svg>
