<svg width="inherit" height="inherit" viewBox="0 0 16 16" fill="none" xmlns="http://www.w3.org/2000/svg">
<g clip-path="url(#clip0_194_3477)">
<path d="M9.03255 8.06835C9.70378 7.72973 10.5387 7.30821 10.5387 6.16643C10.5387 4.86564 9.41708 3.95709 7.8106 3.95709C6.64201 3.95709 5.61235 4.6271 5.24867 5.62431C5.16489 5.85413 5.0927 6.2358 5.16417 6.55602C5.20747 6.74928 5.40023 6.87046 5.59285 6.82801C5.78635 6.78471 5.90795 6.59281 5.86486 6.39934C5.83578 6.26895 5.86066 6.04147 5.92305 5.8702C6.14004 5.27522 6.80777 4.67499 7.81058 4.67499C8.99431 4.67499 9.82088 5.28821 9.82088 6.16644C9.82088 6.83274 9.39845 7.07974 8.70933 7.42756C8.10923 7.73047 7.36229 8.10746 7.36229 9.03902V9.92717C7.36229 10.1255 7.52284 10.2863 7.72124 10.2863C7.91961 10.2863 8.08014 10.1255 8.08014 9.92717V9.03902C8.08018 8.5719 8.42444 8.37542 9.03255 8.06835Z" fill="currentColor" stroke="currentColor" stroke-width="0.4"/>
<path d="M7.72128 11.8075C7.53435 11.8075 7.38286 11.6561 7.38286 11.4691C7.38286 11.2823 7.53436 11.1307 7.72128 11.1307C7.90815 11.1307 8.0597 11.2823 8.0597 11.4691C8.0597 11.6561 7.90816 11.8075 7.72128 11.8075Z" fill="currentColor" stroke="currentColor" stroke-width="0.4"/>
<path d="M14.7881 7.99199C14.7881 4.22553 11.7348 1.17224 7.96799 1.17224C4.20145 1.17189 1.14819 4.22512 1.14819 7.99199C1.14819 11.7585 4.20148 14.8118 7.96827 14.8118C9.51438 14.8118 10.9307 14.2857 12.0745 13.4188C12.1216 13.3656 12.1525 13.2974 12.1525 13.2209C12.1525 13.0539 12.017 12.9185 11.8501 12.9185C11.7632 12.9185 11.6859 12.953 11.6314 13.0112H11.6271C10.6035 13.7646 9.34339 14.2157 7.97513 14.2157C4.56452 14.2157 1.79929 11.45 1.79929 8.03941C1.79929 4.62844 4.56452 1.86358 7.97513 1.86358C11.3861 1.86358 14.151 4.62844 14.151 8.03941C14.151 9.0813 13.9068 10.0616 13.4511 10.9232V10.9282C13.4428 10.9569 13.4335 10.9849 13.4335 11.0158C13.4335 11.1828 13.5689 11.3182 13.7359 11.3182C13.8655 11.3182 13.9743 11.2349 14.017 11.1196V11.1217C14.5018 10.1834 14.7881 9.12144 14.7881 7.99199Z" fill="currentColor" stroke="currentColor" stroke-width="0.6"/>
</g>
<defs>
<clipPath id="clip0_194_3477">
<rect width="16" height="16" fill="white"/>
</clipPath>
</defs>
</svg>
