<svg width="inherit" height="inherit" viewBox="0 0 20 21" fill="none" xmlns="http://www.w3.org/2000/svg">
<path d="M16.7504 12.743C17.0132 12.7393 17.1899 12.8644 17.2814 13.1181L17.3122 13.2187V18.2475L18.8864 16.6743C19.1265 16.513 19.3504 16.5066 19.5579 16.6561L19.6359 16.7196C19.8398 16.9081 19.8742 17.1274 19.7392 17.3748L19.6812 17.469L16.7204 20.4298L13.7597 17.469C13.5739 17.1781 13.5821 16.928 13.7842 16.7196C13.9654 16.5338 14.1875 16.5021 14.453 16.6217L14.5545 16.6743L16.1885 18.3091V13.2187C16.2682 12.9043 16.4549 12.7457 16.7504 12.743ZM10.7609 0.875611C11.2974 0.875409 11.818 1.05684 12.2381 1.39036L12.3732 1.50636L16.5501 5.36789C16.9902 5.77524 17.2599 6.33406 17.305 6.93208L17.3122 7.11152V10.5C17.312 10.6416 17.2583 10.778 17.1619 10.8817C17.0655 10.9855 16.9334 11.0489 16.7922 11.0595C16.6509 11.07 16.5109 11.0268 16.4001 10.9385C16.2894 10.8503 16.216 10.7234 16.1948 10.5834L16.1885 10.5V7.43595L13.1254 7.43686C12.5216 7.43692 11.9406 7.207 11.5003 6.79387C11.0601 6.38075 10.7938 5.81543 10.7555 5.21292L10.751 5.06249V1.99936H3.1566C2.82492 1.99936 2.50681 2.13112 2.27228 2.36566C2.03774 2.6002 1.90598 2.9183 1.90598 3.24999V17.75C1.90588 18.0609 2.02158 18.3606 2.23051 18.5909C2.43945 18.8211 2.72663 18.9652 3.03607 18.9952L3.1566 19.0006H11.6418C11.7834 19.001 11.9196 19.0549 12.0231 19.1514C12.1267 19.2479 12.19 19.3799 12.2005 19.5211C12.2109 19.6623 12.1676 19.8022 12.0793 19.9129C11.9911 20.0235 11.8643 20.0968 11.7243 20.118L11.6418 20.1244H3.1566C2.55288 20.1244 1.9718 19.8945 1.53157 19.4814C1.09134 19.0682 0.825009 18.5029 0.786758 17.9004L0.782227 17.75V3.24999C0.782166 2.64626 1.01208 2.06519 1.42521 1.62495C1.83834 1.18472 2.40365 0.918393 3.00616 0.880142L3.1566 0.875611H10.7609ZM10.751 13.2187C10.9 13.2187 11.0429 13.2779 11.1483 13.3833C11.2537 13.4887 11.3129 13.6316 11.3129 13.7806C11.3129 13.9296 11.2537 14.0725 11.1483 14.1779C11.0429 14.2833 10.9 14.3425 10.751 14.3425H4.62473C4.47571 14.3425 4.33279 14.2833 4.22742 14.1779C4.12205 14.0725 4.06285 13.9296 4.06285 13.7806C4.06285 13.6316 4.12205 13.4887 4.22742 13.3833C4.33279 13.2779 4.47571 13.2187 4.62473 13.2187H10.751ZM11.6572 9.59374C11.8062 9.59374 11.9492 9.65293 12.0545 9.7583C12.1599 9.86368 12.2191 10.0066 12.2191 10.1556C12.2191 10.3046 12.1599 10.4475 12.0545 10.5529C11.9492 10.6583 11.8062 10.7175 11.6572 10.7175H4.62473C4.47571 10.7175 4.33279 10.6583 4.22742 10.5529C4.12205 10.4475 4.06285 10.3046 4.06285 10.1556C4.06285 10.0066 4.12205 9.86368 4.22742 9.7583C4.33279 9.65293 4.47571 9.59374 4.62473 9.59374H11.6572ZM11.8738 2.57483L11.8747 5.06249C11.8746 5.37337 11.9903 5.67315 12.1993 5.90336C12.4082 6.13357 12.6954 6.27771 13.0048 6.30767L13.1254 6.31311L15.8994 6.3122L15.8776 6.28592L15.787 6.19349L11.8738 2.57483Z" fill="currentColor"/>
</svg>
