<svg width="16" height="16" viewBox="0 0 16 16" fill="none" xmlns="http://www.w3.org/2000/svg">
<path d="M10.3886 13.4386C10.4933 13.5077 10.6128 13.551 10.7374 13.5652C10.8621 13.5793 10.9883 13.5638 11.1058 13.52C11.2233 13.4761 11.3288 13.4051 11.4136 13.3128C11.4985 13.2205 11.5604 13.1094 11.5943 12.9886L14.5609 2.50596C14.6412 2.22326 14.6063 1.92026 14.4639 1.66318C14.3215 1.4061 14.0831 1.21583 13.8009 1.13395C13.5465 1.06086 13.2744 1.08169 13.0342 1.19265L1.8612 6.34931C1.7316 6.40914 1.62034 6.50253 1.53895 6.6198C1.45756 6.73708 1.40898 6.87397 1.39826 7.01632C1.38754 7.15866 1.41505 7.30129 1.47795 7.42943C1.54086 7.55758 1.63686 7.66658 1.75604 7.74516L4.08797 9.28287C4.14158 9.31947 4.20194 9.34503 4.26554 9.35807C4.32913 9.37111 4.39468 9.37135 4.45837 9.3588C4.52206 9.34624 4.58262 9.32113 4.6365 9.28493C4.69039 9.24874 4.73653 9.20218 4.77224 9.14796C4.80795 9.09375 4.83251 9.03297 4.84449 8.96917C4.85647 8.90537 4.85563 8.83982 4.84202 8.77635C4.82841 8.71288 4.8023 8.65275 4.76521 8.59947C4.72813 8.54619 4.68081 8.50082 4.62601 8.46602L2.56066 7.10379L13.4438 2.08103C13.471 2.06838 13.5018 2.06599 13.5306 2.07431C13.5641 2.08476 13.5921 2.10789 13.6086 2.13875C13.6252 2.16962 13.629 2.20574 13.6193 2.23939L10.7206 12.4861L8.65094 11.1208C8.51835 11.0332 8.3569 11.0008 8.20078 11.0302C8.04466 11.0596 7.90613 11.1487 7.81453 11.2785L6.68219 12.8804V9.66622L10.9694 6.13348C11.02 6.09298 11.062 6.04283 11.0931 5.98595C11.1241 5.92906 11.1436 5.86658 11.1502 5.80213C11.1569 5.73767 11.1507 5.67253 11.132 5.61049C11.1133 5.54844 11.0825 5.49073 11.0413 5.44071C11.0001 5.39069 10.9494 5.34935 10.8921 5.3191C10.8348 5.28884 10.772 5.27028 10.7075 5.26448C10.643 5.25868 10.5779 5.26576 10.5161 5.28532C10.4543 5.30487 10.3971 5.3365 10.3476 5.37838L5.9271 9.02118C5.85736 9.0785 5.80118 9.15056 5.7626 9.23217C5.72401 9.31378 5.70398 9.40292 5.70393 9.49319V14.036C5.70402 14.1658 5.7454 14.2922 5.82211 14.3969C5.89881 14.5016 6.00685 14.5792 6.13058 14.6184C6.25432 14.6577 6.38732 14.6565 6.51034 14.6151C6.63337 14.5737 6.74002 14.4942 6.81487 14.3882L8.40882 12.1327L10.3892 13.4393L10.3886 13.4386Z" fill="currentColor"/>
</svg>
