<svg width="8" height="12" viewBox="0 0 8 12" fill="none" xmlns="http://www.w3.org/2000/svg">
<path d="M7.81277 1.41119V0.203378C7.81277 0.0986903 7.69245 0.0408777 7.61121 0.10494L0.567454 5.6065C0.507608 5.65304 0.459182 5.71264 0.425871 5.78074C0.39256 5.84885 0.375244 5.92366 0.375244 5.99947C0.375244 6.07529 0.39256 6.1501 0.425871 6.2182C0.459182 6.2863 0.507608 6.3459 0.567454 6.39244L7.61121 11.894C7.69402 11.9581 7.81277 11.9003 7.81277 11.7956V10.5878C7.81277 10.5112 7.77683 10.4378 7.71746 10.3909L2.09245 6.00025L7.71746 1.60807C7.77683 1.56119 7.81277 1.48775 7.81277 1.41119Z" fill="currentColor" fill-opacity="currentOpacity"/>
</svg>
