<svg width="inherit" height="inherit" viewBox="0 0 25 25" fill="none" xmlns="http://www.w3.org/2000/svg">
<path d="M12.4998 20.3126C12.7761 20.3126 13.0411 20.4223 13.2364 20.6177C13.4318 20.813 13.5415 21.078 13.5415 21.3542V22.9167C13.5415 23.193 13.4318 23.458 13.2364 23.6533C13.0411 23.8487 12.7761 23.9584 12.4998 23.9584C12.2236 23.9584 11.9586 23.8487 11.7633 23.6533C11.5679 23.458 11.4582 23.193 11.4582 22.9167V21.3542C11.4582 21.078 11.5679 20.813 11.7633 20.6177C11.9586 20.4223 12.2236 20.3126 12.4998 20.3126ZM19.4972 18.0246L20.6019 19.1287C20.7974 19.324 20.9072 19.589 20.9073 19.8653C20.9074 20.1417 20.7978 20.4067 20.6024 20.6022C20.4071 20.7976 20.1422 20.9075 19.8658 20.9076C19.5895 20.9077 19.3245 20.798 19.129 20.6027L18.0243 19.4975C17.9248 19.4014 17.8455 19.2864 17.7909 19.1594C17.7363 19.0323 17.7075 18.8956 17.7063 18.7573C17.7051 18.619 17.7315 18.4818 17.7839 18.3538C17.8363 18.2258 17.9136 18.1095 18.0114 18.0116C18.1092 17.9138 18.2255 17.8365 18.3535 17.7841C18.4815 17.7317 18.6187 17.7054 18.757 17.7066C18.8953 17.7078 19.032 17.7365 19.1591 17.7911C19.2862 17.8457 19.4011 17.9251 19.4972 18.0246ZM6.97536 18.0246C7.17064 18.2199 7.28034 18.4848 7.28034 18.761C7.28034 19.0372 7.17064 19.3021 6.97536 19.4975L5.87119 20.6022C5.77448 20.6989 5.65965 20.7757 5.53326 20.8281C5.40687 20.8805 5.2714 20.9075 5.13458 20.9076C4.99776 20.9076 4.86227 20.8807 4.73584 20.8284C4.60942 20.7761 4.49454 20.6994 4.39775 20.6027C4.30097 20.506 4.22419 20.3911 4.17178 20.2648C4.11938 20.1384 4.09238 20.0029 4.09233 19.8661C4.09229 19.7292 4.11919 19.5938 4.1715 19.4673C4.22382 19.3409 4.30052 19.226 4.39723 19.1292L5.50244 18.0246C5.69778 17.8293 5.96269 17.7196 6.2389 17.7196C6.51511 17.7196 6.78002 17.8293 6.97536 18.0246ZM12.4998 5.20841C16.5269 5.20841 19.7915 8.473 19.7915 12.5001C19.7915 16.5272 16.5269 19.7917 12.4998 19.7917C8.47275 19.7917 5.20817 16.5272 5.20817 12.5001C5.20817 8.473 8.47275 5.20841 12.4998 5.20841ZM12.4998 7.29175C9.62327 7.29175 7.2915 9.62352 7.2915 12.5001C7.2915 15.3766 9.62327 17.7084 12.4998 17.7084C15.3764 17.7084 17.7082 15.3766 17.7082 12.5001C17.7082 9.62352 15.3764 7.29175 12.4998 7.29175ZM22.9165 11.4584C23.1928 11.4584 23.4577 11.5682 23.6531 11.7635C23.8484 11.9589 23.9582 12.2238 23.9582 12.5001C23.9582 12.7763 23.8484 13.0413 23.6531 13.2366C23.4577 13.432 23.1928 13.5417 22.9165 13.5417H21.354C21.0777 13.5417 20.8128 13.432 20.6174 13.2366C20.4221 13.0413 20.3123 12.7763 20.3123 12.5001C20.3123 12.2238 20.4221 11.9589 20.6174 11.7635C20.8128 11.5682 21.0777 11.4584 21.354 11.4584H22.9165ZM3.64567 11.4584C3.92194 11.4584 4.18689 11.5682 4.38224 11.7635C4.57759 11.9589 4.68734 12.2238 4.68734 12.5001C4.68734 12.7763 4.57759 13.0413 4.38224 13.2366C4.18689 13.432 3.92194 13.5417 3.64567 13.5417H2.08317C1.8069 13.5417 1.54195 13.432 1.3466 13.2366C1.15125 13.0413 1.0415 12.7763 1.0415 12.5001C1.0415 12.2238 1.15125 11.9589 1.3466 11.7635C1.54195 11.5682 1.8069 11.4584 2.08317 11.4584H3.64567ZM20.6019 4.398C20.7972 4.59334 20.9069 4.85824 20.9069 5.13446C20.9069 5.41067 20.7972 5.67557 20.6019 5.87091L19.4972 6.9756C19.4011 7.07509 19.2862 7.15445 19.1591 7.20904C19.032 7.26363 18.8953 7.29237 18.757 7.29357C18.6187 7.29477 18.4815 7.26842 18.3535 7.21604C18.2255 7.16367 18.1092 7.08632 18.0114 6.98851C17.9136 6.89071 17.8363 6.7744 17.7839 6.64639C17.7315 6.51837 17.7051 6.3812 17.7063 6.24289C17.7075 6.10458 17.7363 5.96789 17.7909 5.84081C17.8455 5.71372 17.9248 5.59878 18.0243 5.50269L19.1285 4.398C19.2252 4.30115 19.3401 4.22432 19.4666 4.17189C19.593 4.11947 19.7286 4.09249 19.8655 4.09249C20.0024 4.09249 20.1379 4.11947 20.2644 4.17189C20.3908 4.22432 20.5057 4.30115 20.6024 4.398H20.6019ZM5.87067 4.398L6.97536 5.50269C7.07485 5.59878 7.1542 5.71372 7.2088 5.84081C7.26339 5.96789 7.29213 6.10458 7.29333 6.24289C7.29453 6.3812 7.26817 6.51837 7.2158 6.64639C7.16342 6.7744 7.08607 6.89071 6.98827 6.98851C6.89047 7.08632 6.77416 7.16367 6.64614 7.21604C6.51813 7.26842 6.38096 7.29477 6.24265 7.29357C6.10434 7.29237 5.96765 7.26363 5.84056 7.20904C5.71347 7.15445 5.59853 7.07509 5.50244 6.9756L4.39775 5.87144C4.2023 5.67611 4.09243 5.41115 4.09233 5.13482C4.09224 4.8585 4.20191 4.59346 4.39723 4.398C4.59255 4.20254 4.85752 4.09268 5.13384 4.09258C5.41017 4.09248 5.67521 4.20216 5.87067 4.39748V4.398ZM12.4998 1.04175C12.7761 1.04175 13.0411 1.15149 13.2364 1.34685C13.4318 1.5422 13.5415 1.80715 13.5415 2.08341V3.64591C13.5415 3.92218 13.4318 4.18713 13.2364 4.38248C13.0411 4.57783 12.7761 4.68758 12.4998 4.68758C12.2236 4.68758 11.9586 4.57783 11.7633 4.38248C11.5679 4.18713 11.4582 3.92218 11.4582 3.64591V2.08341C11.4582 1.80715 11.5679 1.5422 11.7633 1.34685C11.9586 1.15149 12.2236 1.04175 12.4998 1.04175Z" fill="currentColor"/>
</svg>
