<svg viewBox="0 0 15 22" fill="none" xmlns="http://www.w3.org/2000/svg">
<g clip-path="url(#clip0_7982_22005)">
<path d="M7.49993 16.1678C9.33406 14.7663 10.7181 13.3352 11.652 11.8746C12.5859 10.4139 13.0528 9.10949 13.0528 7.96125C13.0528 6.32331 12.5354 4.9851 11.5005 3.94661C10.4657 2.90812 9.13214 2.38888 7.49993 2.38888C5.86771 2.38888 4.53418 2.90812 3.49932 3.94661C2.46447 4.9851 1.94704 6.32331 1.94704 7.96125C1.94704 9.09261 2.41399 10.3886 3.34788 11.8492C4.28178 13.3099 5.66579 14.7494 7.49993 16.1678ZM7.49993 18.0928C5.1105 16.3536 3.33526 14.6143 2.1742 12.8751C1.01315 11.1358 0.432617 9.49787 0.432617 7.96125C0.432617 5.88427 1.09307 4.18301 2.41399 2.85746C3.7349 1.53191 5.43021 0.869141 7.49993 0.869141C9.56964 0.869141 11.2649 1.53191 12.5859 2.85746C13.9068 4.18301 14.5672 5.88427 14.5672 7.96125C14.5672 9.49787 13.9867 11.1358 12.8256 12.8751C11.6646 14.6143 9.88935 16.3536 7.49993 18.0928ZM7.47468 9.98756C8.0468 9.98756 8.53057 9.78915 8.92601 9.39233C9.32144 8.99551 9.51916 8.51848 9.51916 7.96125C9.51916 7.40401 9.32144 6.92698 8.92601 6.53016C8.53057 6.13334 8.0468 5.93493 7.47468 5.93493C6.9194 5.93493 6.44824 6.13334 6.06122 6.53016C5.6742 6.92698 5.48069 7.40401 5.48069 7.96125C5.48069 8.51848 5.6742 8.99551 6.06122 9.39233C6.44824 9.78915 6.9194 9.98756 7.47468 9.98756ZM0.432617 21.1323V19.6126H14.5672V21.1323H0.432617Z" fill="#EB1DB2"/>
</g>
<defs>
<clipPath id="clip0_7982_22005">
<rect width="15" height="22" fill="white"/>
</clipPath>
</defs>
</svg>
