<svg width="inherit" height="inherit" viewBox="0 0 24 26" fill="none" xmlns="http://www.w3.org/2000/svg">
<path d="M17.0017 23.5702H7.02432C4.96182 23.5702 3.28369 21.7522 3.28369 19.5178V14.1122C3.28369 11.8778 4.96182 10.0598 7.02432 10.0598H17.0017C19.0642 10.0598 20.7423 11.8778 20.7423 14.1122V19.5153C20.7423 21.7522 19.0642 23.5702 17.0017 23.5702ZM7.02432 11.6797C5.78682 11.6797 4.779 12.7715 4.779 14.1122V19.5153C4.779 20.8559 5.78682 21.9477 7.02432 21.9477H17.0017C18.2392 21.9477 19.247 20.8559 19.247 19.5153V14.1122C19.247 12.7715 18.2392 11.6797 17.0017 11.6797H7.02432Z" fill="currentColor" fill-opacity="0.25"/>
<path d="M18.2483 10.329H16.7507C16.7507 7.51313 14.6366 4.11333 12.0116 4.11333C9.38662 4.11333 7.27256 7.51567 7.27256 10.329H5.7749C5.7749 6.70571 8.49834 2.49341 12.0116 2.49341C15.5249 2.49341 18.2483 6.70571 18.2483 10.329Z" fill="currentColor" fill-opacity="0.25"/>
</svg>
