<svg width="18" height="18" viewBox="0 0 18 18" fill="none" xmlns="http://www.w3.org/2000/svg">
<g clip-path="url(#clip0_12367_46734)">
<path d="M16.3342 3.88596H12.6756V3.16607C12.6756 1.97168 11.7224 1 10.5515 1H7.44801C6.27693 1 5.32387 1.97186 5.32387 3.16607V3.88596H1.66576C1.2978 3.88596 1 4.19004 1 4.56497C1 4.93991 1.2978 5.24399 1.66576 5.24399H2.81514L3.37505 14.9612C3.44136 16.1043 4.37238 17 5.49534 17H12.0669C13.1898 17 14.1209 16.1045 14.1872 14.9608L14.7478 5.24381H16.3342C16.7022 5.24381 17 4.93973 17 4.5648C17 4.18986 16.7022 3.88596 16.3342 3.88596ZM6.6554 3.16607C6.6554 2.72047 7.01111 2.35803 7.44801 2.35803H10.5513C10.9882 2.35803 11.3439 2.72047 11.3439 3.16607V3.88596H6.6554V3.16607ZM12.8583 14.881C12.8336 15.3077 12.4858 15.642 12.0671 15.642H11.4032V7.4934C11.4032 7.11847 11.1054 6.81439 10.7375 6.81439C10.3695 6.81439 10.0717 7.11847 10.0717 7.4934V15.6421H7.49158V7.4934C7.49158 7.11847 7.19378 6.81439 6.82582 6.81439C6.45785 6.81439 6.16005 7.11847 6.16005 7.4934V15.6421H5.49552C5.07681 15.6421 4.72897 15.3079 4.7043 14.8816L4.14894 5.24417H13.4143L12.8583 14.881Z" fill="#F55F4E" stroke="#F55F4E" stroke-width="0.3"/>
</g>
<defs>
<clipPath id="clip0_12367_46734">
<rect width="18" height="18" fill="white"/>
</clipPath>
</defs>
</svg>
