<svg viewBox="0 0 20 16" fill="none" xmlns="http://www.w3.org/2000/svg">
<g clip-path="url(#clip0_2507_64165)">
<path d="M17.6679 1.33761C18.158 1.33761 18.5568 1.75491 18.5568 2.26782V13.7686C18.5568 14.2815 18.158 14.6988 17.6679 14.6988H2.15276C1.66263 14.6988 1.26387 14.2815 1.26387 13.7686V2.26782C1.26387 1.75491 1.66263 1.33761 2.15276 1.33761H17.6679ZM17.6679 0.238281H2.15276C1.08165 0.238281 0.213379 1.14695 0.213379 2.26782V13.7686C0.213379 14.8895 1.08165 15.7982 2.15276 15.7982H17.6679C18.739 15.7982 19.6073 14.8895 19.6073 13.7686V2.26782C19.6073 1.14695 18.739 0.238281 17.6679 0.238281Z" fill="currentColor"/>
<path d="M17.9711 1.28223L10.4824 9.11906C10.3145 9.29474 10.0913 9.39152 9.85382 9.39152C9.61639 9.39152 9.39317 9.29478 9.22527 9.11906L1.7366 1.28223H1.24365V2.32106L8.48248 9.89641C8.86117 10.2927 9.35751 10.4909 9.85382 10.4909C10.3501 10.4909 10.8465 10.2927 11.2252 9.89641L18.5761 2.20378V1.28223H17.9711Z" fill="currentColor"/>
</g>
<defs>
<clipPath id="clip0_2507_64165">
<rect width="20" height="16" fill="currentColor" transform="translate(0 0.000976562)"/>
</clipPath>
</defs>
</svg>
