<svg viewBox="0 0 16 16" fill="none" xmlns="http://www.w3.org/2000/svg">
<g clip-path="url(#clip0_4584_96149)">
<path d="M11.2667 4.36719H1.1C0.5 4.36719 0 4.86719 0 5.46719V11.9672C0 12.5672 0.5 13.0672 1.1 13.0672H2.56667V14.6005C2.56667 14.8672 2.73333 15.1005 2.96667 15.2005C3.06667 15.2339 3.13333 15.2672 3.23333 15.2672C3.43333 15.2672 3.63333 15.2005 3.76667 15.0339L5.6 13.0672H11.2333C11.8333 13.0672 12.3333 12.5672 12.3333 11.9672V5.46719C12.3667 4.83385 11.8667 4.36719 11.2667 4.36719ZM11.6333 11.9672C11.6333 12.1672 11.4667 12.3339 11.2667 12.3339H5.46667C5.33333 12.3339 5.23333 12.4005 5.16667 12.5005L3.3 14.4672V12.7005V12.6672C3.3 12.5672 3.26667 12.4672 3.16667 12.4005C3.1 12.3339 3.03333 12.3005 2.93333 12.3005H1.13333C0.933333 12.3005 0.766667 12.1339 0.766667 11.9339V5.43385C0.766667 5.23385 0.933333 5.06719 1.13333 5.06719H11.3C11.5 5.06719 11.6667 5.23385 11.6667 5.43385C11.6333 5.43385 11.6333 11.9672 11.6333 11.9672Z" fill="currentColor"/>
<path d="M14.9 0.734375H4.73338C4.13338 0.734375 3.63338 1.23438 3.63338 1.83438V3.26771C3.63338 3.46771 3.80005 3.63438 4.00005 3.63438C4.20005 3.63438 4.36672 3.46771 4.36672 3.26771V1.83438C4.36672 1.63438 4.53338 1.46771 4.73338 1.46771H14.9C15.1 1.46771 15.2667 1.63438 15.2667 1.83438V8.33437C15.2667 8.53437 15.1 8.70104 14.9 8.70104H13.4334C13.2334 8.70104 13.0667 8.86771 13.0667 9.06771C13.0667 9.26771 13.2334 9.43437 13.4334 9.43437H14.9C15.5 9.43437 16 8.93437 16 8.33437V1.83438C16 1.23438 15.5 0.734375 14.9 0.734375ZM5.56672 8.70104C5.56672 9.03437 5.86672 9.33437 6.20005 9.33437C6.56672 9.33437 6.83338 9.06771 6.83338 8.70104C6.83338 8.36771 6.53338 8.06771 6.20005 8.06771C5.86672 8.06771 5.56672 8.36771 5.56672 8.70104ZM8.86672 8.70104C8.86672 9.03437 9.16672 9.33437 9.50005 9.33437C9.83338 9.33437 10.1334 9.06771 10.1334 8.70104C10.1334 8.33437 9.83338 8.06771 9.50005 8.06771C9.16672 8.06771 8.86672 8.36771 8.86672 8.70104ZM2.30005 8.70104C2.30005 9.03437 2.60005 9.33437 2.93338 9.33437C3.26672 9.33437 3.56672 9.06771 3.56672 8.70104C3.56672 8.33437 3.26672 8.06771 2.93338 8.06771C2.60005 8.06771 2.30005 8.36771 2.30005 8.70104Z" fill="currentColor"/>
</g>
<defs>
<clipPath id="clip0_4584_96149">
<rect width="100%" height="100%"/>
</clipPath>
</defs>
</svg>
