<svg width="18" height="17" viewBox="0 0 18 17" fill="none" xmlns="http://www.w3.org/2000/svg">
<path d="M15.75 12.5V12.9193H11.4345C10.7393 12.9193 10.0005 13.361 9.67875 13.97L9 15.2525L8.32125 13.9692C7.9995 13.361 7.26075 12.9193 6.5655 12.9193H2.25V2H15.75V12.5ZM15.8745 0.5H2.1255C1.36725 0.5 0.75 1.14425 0.75 1.9355V12.9838C0.75 13.775 1.36875 14.4193 2.1285 14.4193H6.5655C6.70425 14.4193 6.93375 14.5535 6.996 14.6713L7.88775 16.358L7.956 16.4645C8.21775 16.805 8.598 17 9 17C9.402 17 9.78225 16.805 10.044 16.4645L11.004 14.6713C11.0618 14.5633 11.2845 14.4193 11.4345 14.4193H15.8752C16.6335 14.4193 17.25 13.775 17.25 12.9838V1.9355C17.25 1.14425 16.6328 0.5 15.8745 0.5ZM4.875 6.5C4.5855 6.5 4.3245 6.6125 4.125 6.79175C4.00731 6.89638 3.91307 7.0247 3.84844 7.1683C3.78382 7.31189 3.75027 7.46753 3.75 7.625C3.75 7.95725 3.89625 8.252 4.125 8.45825C4.33009 8.64527 4.59744 8.74926 4.875 8.75C5.17337 8.75 5.45952 8.63147 5.6705 8.42049C5.88147 8.20952 6 7.92337 6 7.625C6 7.32663 5.88147 7.04048 5.6705 6.8295C5.45952 6.61853 5.17337 6.5 4.875 6.5ZM13.125 6.5C12.8266 6.5 12.5405 6.61853 12.3295 6.8295C12.1185 7.04048 12 7.32663 12 7.625C12 7.92337 12.1185 8.20952 12.3295 8.42049C12.5405 8.63147 12.8266 8.75 13.125 8.75C13.4145 8.75 13.6755 8.6375 13.875 8.45825C14.1038 8.252 14.25 7.95725 14.25 7.625C14.2497 7.46753 14.2162 7.31189 14.1516 7.1683C14.0869 7.0247 13.9927 6.89638 13.875 6.79175C13.6699 6.60473 13.4026 6.50074 13.125 6.5ZM9 6.5C8.7105 6.5 8.4495 6.6125 8.25 6.79175C8.13231 6.89638 8.03807 7.0247 7.97344 7.1683C7.90882 7.31189 7.87527 7.46753 7.875 7.625C7.875 7.95725 8.02125 8.252 8.25 8.45825C8.45509 8.64527 8.72244 8.74926 9 8.75C9.2895 8.75 9.5505 8.6375 9.75 8.45825C9.97875 8.252 10.125 7.95725 10.125 7.625C10.1247 7.46753 10.0912 7.31189 10.0266 7.1683C9.96193 7.0247 9.86769 6.89638 9.75 6.79175C9.54491 6.60473 9.27756 6.50074 9 6.5Z" fill="currentColor"/>
</svg>
