<svg  viewBox="0 0 19 17" fill="none" xmlns="http://www.w3.org/2000/svg">
<g clip-path="url(#clip0_2507_64161)">
<path d="M9.95521 0.305908C9.65655 0.151731 9.33794 0.18258 9.08115 0.390675C8.14333 1.15076 5.67531 3.44081 5.26039 3.82663H2.10887C1.34099 3.82663 0.716309 4.48276 0.716309 5.28923V10.5497C0.716309 11.3562 1.34101 12.0123 2.10887 12.0123H4.81053C5.36708 12.5391 8.03343 15.0564 9.07662 15.9245C9.22606 16.0487 9.39732 16.1118 9.57388 16.1118C9.6979 16.1118 9.82449 16.0807 9.94803 16.0179C10.3943 15.7912 10.7573 15.1404 10.7573 14.5671V1.75174C10.7573 1.18281 10.3975 0.534207 9.95521 0.305908ZM9.82891 14.5672C9.82891 14.7651 9.68686 15.013 9.58918 15.1067C8.41837 14.1194 5.36517 11.2247 5.33388 11.195C5.33368 11.1948 5.33344 11.1947 5.33324 11.1945C5.24845 11.098 5.1274 11.0373 4.99254 11.0373H2.10887C1.85292 11.0373 1.64467 10.8186 1.64467 10.5497V5.28925C1.64467 5.02043 1.85292 4.80171 2.10887 4.80171H5.34369C5.43721 4.80171 5.52414 4.77239 5.597 4.72242C5.67729 4.70683 5.75476 4.66938 5.8203 4.60833C5.84813 4.58242 8.55927 2.05859 9.58817 1.21176C9.68537 1.30295 9.82889 1.55207 9.82889 1.75174V14.5672H9.82891Z" fill="currentColor"/>
<path d="M15.0954 8.20767C14.9758 6.27578 13.6068 5.03234 13.5486 4.98036C13.3533 4.80598 13.0603 4.83085 12.8942 5.03601C12.7282 5.24115 12.7519 5.54883 12.9472 5.72324C12.9585 5.73331 14.0746 6.74658 14.1689 8.27092C14.2316 9.28352 13.8245 10.3055 12.9589 11.3083C12.7868 11.5078 12.8012 11.8161 12.9911 11.997C13.08 12.0816 13.1915 12.1233 13.3027 12.1233C13.4292 12.1233 13.5552 12.0694 13.6468 11.9632C14.6876 10.7573 15.175 9.49374 15.0954 8.20767Z" fill="currentColor"/>
<path d="M17.6016 5.85354C16.8884 3.74542 15.5495 2.47127 15.4929 2.41807C15.3018 2.2386 15.0083 2.25576 14.8374 2.45649C14.6665 2.65719 14.6829 2.96541 14.874 3.1449C14.8861 3.15628 16.0921 4.3038 16.7268 6.18C17.0962 7.27199 17.1968 8.39067 17.0259 9.50503C16.8097 10.9144 16.1554 12.3304 15.0812 13.7138C14.9191 13.9224 14.9488 14.2296 15.1475 14.3998C15.2337 14.4736 15.3375 14.5095 15.4406 14.5095C15.5753 14.5095 15.7089 14.4482 15.8006 14.3301C16.9794 12.8121 17.7 11.2409 17.9425 9.66011C18.1385 8.38229 18.0238 7.10158 17.6016 5.85354Z" fill="currentColor"/>
</g>
<defs>
<clipPath id="clip0_2507_64161">
<rect width="19" height="17" fill="currentColor" transform="translate(0 -0.000976562)"/>
</clipPath>
</defs>
</svg>
