<svg width="inherit" height="inherit" viewBox="0 0 20 20" fill="none" xmlns="http://www.w3.org/2000/svg">
<path d="M9.64349 0.790894C10.5858 0.790894 11.4855 0.973392 12.3091 1.30497C12.2037 1.70899 12.1476 2.1329 12.1476 2.56988C12.1476 2.67763 12.151 2.7846 12.1577 2.89066C11.4271 2.52533 10.6058 2.3144 9.73664 2.30031L9.64349 2.29954C6.56367 2.29954 4.06113 4.77129 4.01137 7.83927L4.0106 7.93243V14.9936H15.2764V7.93243C15.2764 7.67976 15.2597 7.43096 15.2275 7.18709C15.7097 7.38797 16.4995 7.00012 16.785 7.35168C16.7915 7.47662 16.785 7.80588 16.785 7.93243V16.5023H2.50195V7.93243C2.50195 3.98826 5.69932 0.790894 9.64349 0.790894Z" fill="currentColor"/>
<path d="M9.64753 0.790771C8.7052 0.790771 7.80551 0.97327 6.98188 1.30485C7.08733 1.70886 7.14341 2.13278 7.14341 2.56976C7.14341 2.67751 7.14001 2.78447 7.13328 2.89054C7.86394 2.52521 8.68522 2.31428 9.55438 2.30019L9.64753 2.29942C12.7274 2.29942 15.2299 4.77117 15.2796 7.83915L15.2804 7.9323V14.9935H4.01465V7.9323C4.01465 7.67964 4.03127 7.43084 4.06351 7.18697C3.58135 7.38785 2.7915 7 2.50597 7.35156C2.49948 7.4765 2.50597 7.80575 2.50597 7.9323V16.5022H16.7891V7.9323C16.7891 3.98814 13.5917 0.790771 9.64753 0.790771Z" fill="currentColor"/>
<path d="M1.11371 15.0228H18.1731C18.676 15.0228 18.9274 15.2743 18.9274 15.7772C18.9274 16.2801 18.676 16.5315 18.1731 16.5315H1.11371C0.610821 16.5315 0.359375 16.2801 0.359375 15.7772C0.359375 15.2743 0.610821 15.0228 1.11371 15.0228Z" fill="currentColor"/>
<path d="M7.54145 18.4913H11.746C12.2489 18.4913 12.5004 18.7428 12.5004 19.2457C12.5004 19.7486 12.2489 20 11.746 20H7.54145C7.03856 20 6.78711 19.7486 6.78711 19.2457C6.78711 18.7428 7.03856 18.4913 7.54145 18.4913Z" fill="currentColor"/>
</svg>
