<svg width="inherit" height="inherit" viewBox="0 0 16 16" fill="none" xmlns="http://www.w3.org/2000/svg">
<path d="M8.0501 3.5C3.2501 3.5 0.350098 8.4 0.350098 8.4C0.350098 8.4 3.7001 13.15 8.0501 13.15C12.4001 13.15 15.7501 8.4 15.7501 8.4C15.7501 8.4 12.8501 3.5 8.0501 3.5ZM13.0001 10.2C11.4001 11.55 9.7001 12.4 8.0001 12.4C6.3001 12.4 4.6001 11.6 3.0001 10.2C2.4501 9.7 1.9001 9.2 1.4501 8.65C1.3501 8.55 1.3001 8.45 1.2001 8.35C1.2501 8.25 1.3501 8.15 1.4001 8.05C1.8001 7.5 2.3001 6.95 2.8501 6.45C4.4001 5.05 6.1001 4.2 8.0001 4.2C9.9001 4.2 11.6001 5.05 13.1501 6.45C13.7001 6.95 14.1501 7.5 14.6001 8.05C14.6501 8.15 14.7501 8.25 14.8001 8.35C14.7501 8.45 14.6501 8.55 14.5501 8.65C14.1001 9.15 13.6001 9.7 13.0001 10.2Z" fill="currentColor" fill-opacity="0.25"/>
<path d="M8.0001 5.40002C6.5001 5.40002 5.3501 6.60002 5.3501 8.05002C5.3501 9.55002 6.5501 10.7 8.0001 10.7C9.5001 10.7 10.6501 9.50002 10.6501 8.05002C10.6501 6.60002 9.4501 5.40002 8.0001 5.40002ZM8.0001 10C6.9501 10 6.1001 9.15002 6.1001 8.10002C6.1001 7.05002 6.9501 6.20002 8.0001 6.20002C9.0501 6.20002 9.9001 7.05002 9.9001 8.10002C9.9001 9.10002 9.0501 10 8.0001 10Z" fill="black" fill-opacity="0.25"/>
</svg>
