<svg viewBox="0 0 16 10" fill="none" xmlns="http://www.w3.org/2000/svg">
<path d="M7.99823 0.521484C2.75085 0.521484 0 4.38745 0 5.0006C0 5.61342 2.75085 9.47938 7.99823 9.47938C13.2453 9.47938 15.9965 5.61342 15.9965 5.0006C15.9968 4.38745 13.2453 0.521484 7.99823 0.521484ZM7.99823 8.44615C6.03462 8.44615 4.44317 6.90363 4.44317 5.0006C4.44317 3.09758 6.03462 1.55505 7.99823 1.55505C9.96151 1.55505 11.5533 3.09724 11.5533 5.0006C11.5533 6.90363 9.96184 8.44615 7.99823 8.44615ZM7.99823 5.0006C7.67235 4.6431 8.52883 3.27766 7.99823 3.27766C7.01659 3.27766 6.2207 4.04925 6.2207 5.0006C6.2207 5.95195 7.01659 6.72321 7.99823 6.72321C8.97954 6.72321 9.77577 5.95195 9.77577 5.0006C9.77577 4.56354 8.27485 5.30451 7.99823 5.0006Z" fill="currentColor"/>
</svg>
