<svg viewBox="0 0 16 16" fill="none" xmlns="http://www.w3.org/2000/svg">
<path d="M14.125 3.29431H10.625V2.40468C10.625 1.65552 10.0563 1 9.3125 1H6.6875C5.94375 1 5.375 1.65552 5.375 2.40468V3.29431H1.875C1.39375 3.29431 1 3.71572 1 4.23077V14.0635C1 14.5786 1.39375 15 1.875 15H14.125C14.6063 15 15 14.5786 15 14.0635V4.23077C15 3.76254 14.6063 3.29431 14.125 3.29431ZM6.25 2.40468C6.25 2.17057 6.46875 1.93645 6.6875 1.93645H9.3125C9.575 1.93645 9.75 2.17057 9.75 2.40468V3.29431H6.25V2.40468ZM1.875 4.23077H14.125V7.50836H9.3125V7.04013C9.3125 6.52508 8.91875 6.10368 8.4375 6.10368H7.5625C7.08125 6.10368 6.6875 6.52508 6.6875 7.04013V7.50836H1.875V4.23077ZM8.4375 9.42809H7.5625V7.08696H8.4375V9.42809ZM1.875 14.0635V8.49164H6.6875V9.42809C6.6875 9.94314 7.08125 10.3645 7.5625 10.3645H8.4375C8.91875 10.3645 9.3125 9.94314 9.3125 9.42809V8.49164H14.125V14.1104H1.875V14.0635Z" fill="#919FB4"/>
</svg>
