<svg width="16" height="16" viewBox="0 0 16 16" fill="none" xmlns="http://www.w3.org/2000/svg">
<g clip-path="url(#clip0_2545_33581)">
<path d="M0.769723 16C0.576109 16.0005 0.390201 15.9242 0.252786 15.7878C0.183829 15.72 0.129 15.6393 0.0914757 15.5502C0.0539512 15.4611 0.0344766 15.3654 0.0341797 15.2687C0.0341797 13.9639 0.559845 12.5766 1.51438 11.3617C2.40665 10.226 3.59823 9.35199 4.90288 8.86899C4.33156 8.479 3.86101 7.95892 3.52995 7.35155C3.13502 6.63385 2.92611 5.78231 2.92611 4.8881C2.92611 2.19189 5.11936 0 7.81421 0C10.5091 0 12.7023 2.19305 12.7023 4.8881C12.7023 7.56046 10.5104 9.75351 7.81518 9.7762H7.81247C7.75428 9.77523 7.71277 9.77485 7.67805 9.77485H7.45478C6.15982 9.77485 4.68098 10.3876 3.4962 11.4137C2.2346 12.5093 1.51167 13.9129 1.51167 15.2678C1.51039 15.4621 1.43238 15.6481 1.29462 15.7853C1.15686 15.9224 0.970507 15.9996 0.776124 16H0.769723ZM7.81499 1.47147C5.93094 1.47128 4.39856 3.00444 4.39856 4.8881C4.39856 6.77177 5.93094 8.3055 7.81596 8.3055C9.70098 8.3055 11.2334 6.77312 11.2334 4.8881C11.2334 3.00308 9.69943 1.47147 7.81499 1.47147Z" fill="currentColor" fill-opacity="0.65"/>
<circle cx="12" cy="14" r="1" fill="currentColor" fill-opacity="0.65"/>
<circle cx="9" cy="14" r="1" fill="currentColor" fill-opacity="0.65"/>
<circle cx="15" cy="14" r="1" fill="currentColor" fill-opacity="0.65"/>
</g>
<defs>
<clipPath id="clip0_2545_33581">
<rect width="16" height="16" fill="white"/>
</clipPath>
</defs>
</svg>
