<svg width="14" height="14" viewBox="0 0 14 14" fill="none" xmlns="http://www.w3.org/2000/svg">
<path d="M7 13C10.3135 13 13 10.3135 13 7C13 3.6865 10.3135 1 7 1C3.6865 1 1 3.6865 1 7C1 10.3135 3.6865 13 7 13ZM7 14C3.134 14 0 10.866 0 7C0 3.134 3.134 0 7 0C10.866 0 14 3.134 14 7C14 10.866 10.866 14 7 14ZM6 5C6 5.13261 5.94732 5.25979 5.85355 5.35355C5.75979 5.44732 5.63261 5.5 5.5 5.5C5.36739 5.5 5.24021 5.44732 5.14645 5.35355C5.05268 5.25979 5 5.13261 5 5C5 4.46957 5.21071 3.96086 5.58579 3.58579C5.96086 3.21071 6.46957 3 7 3C7.53043 3 8.03914 3.21071 8.41421 3.58579C8.78929 3.96086 9 4.46957 9 5V5.171C9 5.6745 8.8 6.157 8.4445 6.513L8.136 6.821C7.9715 6.986 7.8235 7.166 7.6945 7.36C7.5675 7.55 7.5 7.7735 7.5 8.0015C7.4998 8.13411 7.44693 8.26121 7.35302 8.35483C7.25911 8.44846 7.13186 8.50095 6.99925 8.50075C6.86664 8.50055 6.73954 8.44768 6.64592 8.35377C6.55229 8.25986 6.4998 8.13261 6.5 8V7.9C6.5 7.54 6.6065 7.189 6.8055 6.89C7.009 6.585 7.242 6.301 7.501 6.042L7.616 5.927C7.73776 5.80528 7.83434 5.66077 7.90023 5.50171C7.96612 5.34265 8.00002 5.17217 8 5C8 4.73478 7.89464 4.48043 7.70711 4.29289C7.51957 4.10536 7.26522 4 7 4C6.73478 4 6.48043 4.10536 6.29289 4.29289C6.10536 4.48043 6 4.73478 6 5ZM6.25 10.25C6.25 10.4489 6.32902 10.6397 6.46967 10.7803C6.61032 10.921 6.80109 11 7 11C7.19891 11 7.38968 10.921 7.53033 10.7803C7.67098 10.6397 7.75 10.4489 7.75 10.25C7.75 10.0511 7.67098 9.86032 7.53033 9.71967C7.38968 9.57902 7.19891 9.5 7 9.5C6.80109 9.5 6.61032 9.57902 6.46967 9.71967C6.32902 9.86032 6.25 10.0511 6.25 10.25Z" fill="currentColor"/>
</svg>
