<svg viewBox="0 0 18 19" fill="none" xmlns="http://www.w3.org/2000/svg">
<path d="M8.76308 11.5568C10.7052 11.5568 12.2683 9.99506 12.2683 8.05476C12.2683 7.86546 12.1262 7.72348 11.9368 7.72348H9.09466V4.88401C9.09466 4.69471 8.95255 4.55273 8.76308 4.55273C6.82097 4.55273 5.25781 6.11445 5.25781 8.05476C5.25781 9.94774 6.82097 11.5568 8.76308 11.5568ZM8.4315 5.21528V8.05476C8.4315 8.24405 8.5736 8.38603 8.76308 8.38603H11.6052C11.4631 9.80577 10.2315 10.8942 8.76308 10.8942C7.19992 10.8942 5.92097 9.61647 5.92097 8.05476C5.92097 6.58769 7.01044 5.35725 8.4315 5.21528Z" fill="currentColor"/>
<path d="M9.99466 7.15526H12.8841C13.0736 7.15526 13.2157 7.01329 13.2157 6.82399C13.2157 4.97833 11.7947 3.55859 9.99466 3.55859C9.80519 3.55859 9.66309 3.70057 9.66309 3.88987V6.82399C9.66309 7.01329 9.80519 7.15526 9.99466 7.15526ZM12.5052 6.49272H10.3262V4.26846C11.4631 4.41044 12.3631 5.3096 12.5052 6.49272Z" fill="currentColor"/>
<path d="M14.5423 1.05078H5.68443H5.54233C5.49496 1.05078 5.49496 1.09811 5.49496 1.09811C5.49496 1.09811 5.44759 1.09811 5.44759 1.14543L2.51075 3.93758C2.51075 3.93758 2.46338 3.98491 2.46338 4.03223V16.8099C2.46338 17.3778 2.93706 17.851 3.50548 17.851H14.6371C15.2055 17.851 15.6792 17.3778 15.6792 16.8099V2.09192C15.5844 1.52403 15.1108 1.05078 14.5423 1.05078ZM4.6897 3.84293H3.55285L5.35285 2.13925V3.18039C5.35285 3.55899 5.06864 3.84293 4.6897 3.84293ZM14.9213 16.7625C14.9213 16.9518 14.7318 17.1411 14.5423 17.1411H3.45812C3.26864 17.1411 3.07917 16.9518 3.07917 16.7625V4.50548H4.6897C5.40022 4.50548 5.96864 3.93758 5.96864 3.22771V1.71333H14.495C14.6844 1.71333 14.8739 1.90262 14.8739 2.09192V16.7625H14.9213Z" fill="currentColor"/>
<path d="M13.5 12.9766H4.45267C4.2632 12.9766 4.12109 13.1185 4.12109 13.3078C4.12109 13.4971 4.2632 13.6391 4.45267 13.6391H13.5474C13.7369 13.6391 13.879 13.4971 13.879 13.3078C13.879 13.1185 13.6895 12.9766 13.5 12.9766ZM9.90004 14.8695H4.45267C4.2632 14.8695 4.12109 15.0115 4.12109 15.2008C4.12109 15.3901 4.2632 15.5321 4.45267 15.5321H9.94741C10.1369 15.5321 10.279 15.3901 10.279 15.2008C10.279 15.0115 10.0895 14.8695 9.90004 14.8695Z" fill="currentColor"/>
</svg>
