<svg  viewBox="0 0 18 18" fill="none" xmlns="http://www.w3.org/2000/svg">
<path d="M10.008 8.86224C10.7788 8.11944 11.827 7.66248 12.982 7.66248C13.5432 7.66248 14.0791 7.77049 14.5703 7.96658L15.9203 2.40094C15.9339 2.3443 15.9136 2.28508 15.868 2.24908C15.8222 2.2128 15.7594 2.2064 15.7083 2.23342L1.28332 9.60998C1.2296 9.63757 1.19794 9.69449 1.2026 9.75459C1.20782 9.81469 1.24848 9.86579 1.30596 9.88407L6.13462 11.4189C6.18544 11.4349 6.2403 11.423 6.27922 11.3876L12.9592 5.36899L10.008 8.86224Z" fill="currentColor"/>
<path d="M7.59644 11.8197C7.61066 11.8676 7.64782 11.9054 7.69575 11.9199L8.70463 12.2272C8.69871 12.135 8.69539 12.0422 8.69539 11.9485C8.69539 11.0534 8.96989 10.2226 9.43907 9.53516L7.62548 11.6818C7.59326 11.7198 7.5822 11.7718 7.59644 11.8197Z" fill="currentColor"/>
<path d="M7.78255 12.6378C7.73783 12.6233 7.68847 12.632 7.65071 12.6601C7.61269 12.6883 7.59033 12.7327 7.59033 12.7798V15.5748C7.59033 15.641 7.63389 15.699 7.69775 15.7176C7.71111 15.7214 7.72503 15.7234 7.73899 15.7234C7.78893 15.7234 7.83683 15.6982 7.86443 15.6543L9.08196 13.7308C8.96902 13.484 8.87897 13.2245 8.81423 12.9552L7.78255 12.6378Z" fill="currentColor"/>
<path d="M9.43896 9.53665L10.0078 8.86328C9.79608 9.06733 9.60529 9.29294 9.43896 9.53665Z" fill="currentColor"/>
<path d="M15.9228 12.0416C15.9228 13.6291 14.6358 14.916 13.0483 14.916C11.4608 14.916 10.1738 13.6291 10.1738 12.0416C10.1738 10.454 11.4608 9.16713 13.0483 9.16713C13.9454 9.16713 14.7457 9.57881 15.2728 10.2227L14.8325 10.6168L16.7979 11.2043L16.4654 9.15541L15.9204 9.64324C15.2339 8.82194 14.2026 8.29883 13.0484 8.29883C10.9813 8.29883 9.30566 9.97448 9.30566 12.0415C9.30566 14.1085 10.9814 15.7841 13.0484 15.7841C15.0391 15.7841 16.6663 14.2296 16.7836 12.2683L15.9209 11.9639C15.9216 11.9897 15.9228 12.0155 15.9228 12.0416Z" fill="currentColor"/>
</svg>
