<svg viewBox="0 0 20 20" fill="none" xmlns="http://www.w3.org/2000/svg">
<circle cx="10" cy="10" r="8" stroke="white" stroke-width="2"/>
<path d="M5.55476 9.62768C5.35943 9.82679 5.25 10.0946 5.25 10.3735C5.25 10.6524 5.35943 10.9202 5.55476 11.1193L8.00393 13.6014L8.00893 13.606C8.10496 13.7038 8.21951 13.7815 8.34588 13.8345C8.47226 13.8875 8.60793 13.9148 8.74497 13.9148C8.88202 13.9148 9.01769 13.8875 9.14406 13.8345C9.27044 13.7815 9.38499 13.7038 9.48101 13.606L14.3893 8.63268C14.5847 8.43357 14.6941 8.16578 14.6941 7.88685C14.6941 7.60792 14.5847 7.34012 14.3893 7.14101C14.2933 7.04318 14.1787 6.96546 14.0523 6.91241C13.9259 6.85936 13.7902 6.83203 13.6531 6.83203C13.516 6.83203 13.3803 6.85936 13.2539 6.91241C13.1275 6.96546 13.0129 7.04318 12.9168 7.14101L8.74476 11.3681L7.02726 9.62726C6.93123 9.52943 6.81666 9.45171 6.69024 9.39866C6.56383 9.34561 6.42811 9.31828 6.29101 9.31828C6.15392 9.31828 6.0182 9.34561 5.89179 9.39866C5.76537 9.45171 5.6508 9.52943 5.55476 9.62726V9.62768Z" fill="currentColor"/>
</svg>
