<svg width="8" height="12" viewBox="0 0 8 12" fill="none" xmlns="http://www.w3.org/2000/svg">
<path d="M7.46407 5.60637L0.420314 0.104809C0.401908 0.0903191 0.379789 0.081314 0.356496 0.0788282C0.333203 0.0763424 0.309681 0.0804768 0.288632 0.0907565C0.267583 0.101036 0.249861 0.117045 0.2375 0.136943C0.225139 0.156841 0.21864 0.179822 0.218751 0.203247V1.41106C0.218751 1.48762 0.254689 1.56106 0.314064 1.60793L5.93906 6.00012L0.314064 10.3923C0.253126 10.4392 0.218751 10.5126 0.218751 10.5892V11.797C0.218751 11.9017 0.339064 11.9595 0.420314 11.8954L7.46407 6.39387C7.52393 6.34717 7.57236 6.28744 7.60567 6.21921C7.63898 6.15098 7.6563 6.07605 7.6563 6.00012C7.6563 5.9242 7.63898 5.84927 7.60567 5.78104C7.57236 5.71281 7.52393 5.65307 7.46407 5.60637Z" fill="currentColor"/>
</svg>
