<svg width="717" height="56" viewBox="0 0 717 56" fill="none" xmlns="http://www.w3.org/2000/svg">
<path d="M0.684438 11.696V1.104C0.684438 0.943999 0.812438 0.799999 0.988438 0.799999H4.52444C6.49244 0.799999 8.10844 2.4 8.10844 4.336C8.10844 6.32 6.49244 7.936 4.54044 7.936H1.90044V11.696C1.90044 11.856 1.75644 12 1.59644 12H0.988438C0.812438 12 0.684438 11.856 0.684438 11.696ZM1.90044 6.752H4.44444C5.75644 6.752 6.87644 5.776 6.87644 4.304C6.87644 2.88 5.75644 2.016 4.44444 2.016H1.90044V6.752ZM9.96081 11.648V1.152C9.96081 0.976 10.1208 0.799999 10.3128 0.799999H10.7928C10.9688 0.799999 11.1448 0.976 11.1448 1.152V11.648C11.1448 11.84 10.9688 12 10.7928 12H10.3128C10.1208 12 9.96081 11.84 9.96081 11.648ZM13.2606 8.304C13.2606 6.224 14.6046 4.448 16.8446 4.448C18.7806 4.448 20.1886 5.872 20.1886 7.808C20.1886 7.936 20.1726 8.128 20.1566 8.256C20.1406 8.448 19.9806 8.576 19.8206 8.576H14.4446C14.4766 9.808 15.5166 11.104 16.8606 11.104C17.8366 11.104 18.4446 10.768 18.8606 10.496C19.1166 10.32 19.2286 10.256 19.4206 10.544L19.6126 10.816C19.7566 11.04 19.8206 11.12 19.5486 11.328C19.1006 11.68 18.1246 12.176 16.8446 12.176C14.6046 12.176 13.2606 10.416 13.2606 8.304ZM14.4606 7.632H19.0046C18.9726 6.544 18.1086 5.52 16.8446 5.52C15.5966 5.52 14.6046 6.48 14.4606 7.632ZM21.5548 9.76C21.5548 8.352 22.6108 7.312 24.5148 7.312C25.2988 7.312 26.0988 7.552 26.0988 7.552C26.1148 6.192 25.9388 5.52 24.8828 5.52C23.8748 5.52 23.0268 5.84 22.6908 5.952C22.4988 6.032 22.4028 5.936 22.3388 5.76L22.1788 5.328C22.1148 5.104 22.2268 5.008 22.4028 4.928C22.7708 4.768 23.7308 4.448 24.9468 4.448C26.8348 4.448 27.2348 5.376 27.2348 7.552V11.648C27.2348 11.84 27.0748 12 26.8828 12H26.5788C26.3868 12 26.3228 11.888 26.2748 11.728L26.1308 11.232C25.7468 11.616 24.9788 12.176 23.8428 12.176C22.5468 12.176 21.5548 11.248 21.5548 9.76ZM22.7228 9.76C22.7228 10.512 23.2348 11.104 24.0508 11.104C24.9628 11.104 25.7628 10.592 26.0828 10.112V8.608C25.8428 8.48 25.2508 8.32 24.5148 8.32C23.4908 8.32 22.7228 8.816 22.7228 9.76ZM31.7261 12.176C30.4941 12.176 29.6621 11.632 29.2781 11.28C29.1981 11.2 29.1661 11.088 29.2301 10.96L29.4541 10.544C29.5501 10.368 29.6781 10.304 29.8861 10.448C30.1421 10.64 30.7821 11.104 31.7261 11.104C32.4781 11.104 32.9901 10.752 32.9901 10.176C32.9901 9.472 32.4141 9.184 31.3421 8.656C30.3661 8.176 29.2461 7.648 29.2461 6.384C29.2461 5.616 29.8221 4.448 31.5341 4.448C32.4941 4.448 33.2941 4.768 33.6461 5.024C33.8061 5.152 33.8381 5.312 33.7261 5.52L33.5661 5.824C33.4541 6.032 33.2141 6.048 33.0541 5.952C32.7341 5.76 32.2221 5.52 31.5341 5.52C30.7181 5.52 30.4461 5.984 30.4461 6.336C30.4461 6.992 30.9581 7.232 31.8541 7.648C33.1341 8.24 34.2381 8.72 34.2381 10.064C34.2381 11.232 33.2301 12.176 31.7261 12.176ZM35.6981 8.304C35.6981 6.224 37.0421 4.448 39.2821 4.448C41.2181 4.448 42.6261 5.872 42.6261 7.808C42.6261 7.936 42.6101 8.128 42.5941 8.256C42.5781 8.448 42.4181 8.576 42.2581 8.576H36.8821C36.9141 9.808 37.9541 11.104 39.2981 11.104C40.2741 11.104 40.8821 10.768 41.2981 10.496C41.5541 10.32 41.6661 10.256 41.8581 10.544L42.0501 10.816C42.1941 11.04 42.2581 11.12 41.9861 11.328C41.5381 11.68 40.5621 12.176 39.2821 12.176C37.0421 12.176 35.6981 10.416 35.6981 8.304ZM36.8981 7.632H41.4421C41.4101 6.544 40.5461 5.52 39.2821 5.52C38.0341 5.52 37.0421 6.48 36.8981 7.632ZM47.9481 8.304C47.9481 6.224 49.2921 4.448 51.5321 4.448C53.4681 4.448 54.8761 5.872 54.8761 7.808C54.8761 7.936 54.8601 8.128 54.8441 8.256C54.8281 8.448 54.6681 8.576 54.5081 8.576H49.1321C49.1641 9.808 50.2041 11.104 51.5481 11.104C52.5241 11.104 53.1321 10.768 53.5481 10.496C53.8041 10.32 53.9161 10.256 54.1081 10.544L54.3001 10.816C54.4441 11.04 54.5081 11.12 54.2361 11.328C53.7881 11.68 52.8121 12.176 51.5321 12.176C49.2921 12.176 47.9481 10.416 47.9481 8.304ZM49.1481 7.632H53.6921C53.6601 6.544 52.7961 5.52 51.5321 5.52C50.2841 5.52 49.2921 6.48 49.1481 7.632ZM56.8183 11.648V4.96C56.8183 4.784 56.9783 4.608 57.1703 4.608H57.4263C57.5863 4.608 57.6823 4.672 57.7143 4.832L57.8743 5.392C57.8743 5.392 58.8183 4.448 60.3543 4.448C62.4983 4.448 63.0263 5.84 63.0263 7.744V11.648C63.0263 11.84 62.8503 12 62.6743 12H62.1943C62.0023 12 61.8423 11.84 61.8423 11.648V7.584C61.8423 6.176 61.3623 5.52 60.2743 5.52C58.8823 5.52 58.0023 6.544 58.0023 6.544V11.648C58.0023 11.84 57.8263 12 57.6503 12H57.1703C56.9783 12 56.8183 11.84 56.8183 11.648ZM65.8452 5.632H64.8692C64.6452 5.632 64.5012 5.472 64.5012 5.28V4.96C64.5012 4.752 64.6452 4.608 64.8692 4.608H65.8452V2.56C65.8452 2.368 66.0212 2.224 66.1972 2.208L66.6932 2.176C66.8852 2.16 67.0292 2.336 67.0292 2.528V4.608H69.2052C69.4132 4.608 69.5732 4.752 69.5732 4.96V5.28C69.5732 5.472 69.4132 5.632 69.2052 5.632H67.0292V10.048C67.0292 10.816 67.2692 11.104 67.6852 11.104C68.3732 11.104 68.8372 10.816 69.1412 10.624C69.4292 10.448 69.5252 10.592 69.6052 10.768L69.7492 11.104C69.8452 11.344 69.8132 11.456 69.6212 11.584C69.3012 11.808 68.5332 12.176 67.5412 12.176C66.1332 12.176 65.8452 11.28 65.8452 10.128V5.632ZM70.9637 8.304C70.9637 6.224 72.3077 4.448 74.5477 4.448C76.4837 4.448 77.8917 5.872 77.8917 7.808C77.8917 7.936 77.8757 8.128 77.8597 8.256C77.8437 8.448 77.6837 8.576 77.5237 8.576H72.1477C72.1797 9.808 73.2197 11.104 74.5637 11.104C75.5397 11.104 76.1477 10.768 76.5637 10.496C76.8197 10.32 76.9317 10.256 77.1237 10.544L77.3157 10.816C77.4597 11.04 77.5237 11.12 77.2517 11.328C76.8037 11.68 75.8277 12.176 74.5477 12.176C72.3077 12.176 70.9637 10.416 70.9637 8.304ZM72.1637 7.632H76.7077C76.6757 6.544 75.8117 5.52 74.5477 5.52C73.2997 5.52 72.3077 6.48 72.1637 7.632ZM79.8339 11.648V4.96C79.8339 4.784 79.9939 4.608 80.1859 4.608H80.4419C80.5859 4.608 80.7139 4.688 80.7619 4.864L80.8899 5.392C80.8899 5.392 81.6259 4.448 83.1619 4.448C83.7219 4.448 84.6339 4.528 84.4579 5.04L84.2499 5.616C84.1699 5.856 83.9939 5.872 83.8179 5.792C83.6419 5.712 83.3699 5.584 83.0179 5.584C81.5939 5.584 81.0179 6.528 81.0179 6.528V11.648C81.0179 11.84 80.8419 12 80.6659 12H80.1859C79.9939 12 79.8339 11.84 79.8339 11.648ZM89.7202 5.632H88.7442C88.5202 5.632 88.3762 5.472 88.3762 5.28V4.96C88.3762 4.752 88.5202 4.608 88.7442 4.608H89.7202V2.56C89.7202 2.368 89.8962 2.224 90.0722 2.208L90.5682 2.176C90.7602 2.16 90.9042 2.336 90.9042 2.528V4.608H93.0802C93.2882 4.608 93.4482 4.752 93.4482 4.96V5.28C93.4482 5.472 93.2882 5.632 93.0802 5.632H90.9042V10.048C90.9042 10.816 91.1442 11.104 91.5602 11.104C92.2482 11.104 92.7122 10.816 93.0162 10.624C93.3042 10.448 93.4002 10.592 93.4802 10.768L93.6242 11.104C93.7202 11.344 93.6882 11.456 93.4962 11.584C93.1762 11.808 92.4082 12.176 91.4162 12.176C90.0082 12.176 89.7202 11.28 89.7202 10.128V5.632ZM95.3027 11.648V1.152C95.3027 0.976 95.4627 0.799999 95.6547 0.799999H96.1347C96.3107 0.799999 96.4867 0.976 96.4867 1.152V5.392C96.4867 5.392 97.3507 4.448 98.8387 4.448C100.679 4.448 101.511 5.584 101.511 7.744V11.648C101.511 11.84 101.335 12 101.159 12H100.663C100.471 12 100.311 11.84 100.311 11.648V7.744C100.311 6.336 99.8947 5.52 98.7587 5.52C97.3507 5.52 96.4867 6.576 96.4867 6.576V11.648C96.4867 11.84 96.3107 12 96.1347 12H95.6547C95.4627 12 95.3027 11.84 95.3027 11.648ZM103.464 8.304C103.464 6.224 104.808 4.448 107.048 4.448C108.984 4.448 110.392 5.872 110.392 7.808C110.392 7.936 110.376 8.128 110.36 8.256C110.344 8.448 110.184 8.576 110.024 8.576H104.648C104.68 9.808 105.72 11.104 107.064 11.104C108.04 11.104 108.648 10.768 109.064 10.496C109.32 10.32 109.432 10.256 109.624 10.544L109.816 10.816C109.96 11.04 110.024 11.12 109.752 11.328C109.304 11.68 108.328 12.176 107.048 12.176C104.808 12.176 103.464 10.416 103.464 8.304ZM104.664 7.632H109.208C109.176 6.544 108.312 5.52 107.048 5.52C105.8 5.52 104.808 6.48 104.664 7.632ZM116.178 11.648V4.96C116.178 4.784 116.338 4.608 116.53 4.608H116.786C116.93 4.608 117.058 4.688 117.106 4.864L117.234 5.392C117.234 5.392 117.97 4.448 119.506 4.448C120.066 4.448 120.978 4.528 120.802 5.04L120.594 5.616C120.514 5.856 120.338 5.872 120.162 5.792C119.986 5.712 119.714 5.584 119.362 5.584C117.938 5.584 117.362 6.528 117.362 6.528V11.648C117.362 11.84 117.186 12 117.01 12H116.53C116.338 12 116.178 11.84 116.178 11.648ZM121.635 8.288C121.635 6.208 123.299 4.448 125.347 4.448C127.395 4.448 129.059 6.208 129.059 8.288C129.059 10.4 127.395 12.176 125.347 12.176C123.299 12.176 121.635 10.4 121.635 8.288ZM122.803 8.288C122.803 9.824 123.891 11.104 125.347 11.104C126.803 11.104 127.875 9.824 127.875 8.288C127.875 6.784 126.803 5.52 125.347 5.52C123.891 5.52 122.803 6.784 122.803 8.288ZM131.148 11.648V1.152C131.148 0.976 131.308 0.799999 131.5 0.799999H131.98C132.156 0.799999 132.332 0.976 132.332 1.152V11.648C132.332 11.84 132.156 12 131.98 12H131.5C131.308 12 131.148 11.84 131.148 11.648ZM134.448 8.304C134.448 6.224 135.792 4.448 138.032 4.448C139.968 4.448 141.376 5.872 141.376 7.808C141.376 7.936 141.36 8.128 141.344 8.256C141.328 8.448 141.168 8.576 141.008 8.576H135.632C135.664 9.808 136.704 11.104 138.048 11.104C139.024 11.104 139.632 10.768 140.048 10.496C140.304 10.32 140.416 10.256 140.608 10.544L140.8 10.816C140.944 11.04 141.008 11.12 140.736 11.328C140.288 11.68 139.312 12.176 138.032 12.176C135.792 12.176 134.448 10.416 134.448 8.304ZM135.648 7.632H140.192C140.16 6.544 139.296 5.52 138.032 5.52C136.784 5.52 135.792 6.48 135.648 7.632ZM145.382 12.176C144.15 12.176 143.318 11.632 142.934 11.28C142.854 11.2 142.822 11.088 142.886 10.96L143.11 10.544C143.206 10.368 143.334 10.304 143.542 10.448C143.798 10.64 144.438 11.104 145.382 11.104C146.134 11.104 146.646 10.752 146.646 10.176C146.646 9.472 146.07 9.184 144.998 8.656C144.022 8.176 142.902 7.648 142.902 6.384C142.902 5.616 143.478 4.448 145.19 4.448C146.15 4.448 146.95 4.768 147.302 5.024C147.462 5.152 147.494 5.312 147.382 5.52L147.222 5.824C147.11 6.032 146.87 6.048 146.71 5.952C146.39 5.76 145.878 5.52 145.19 5.52C144.374 5.52 144.102 5.984 144.102 6.336C144.102 6.992 144.614 7.232 145.51 7.648C146.79 8.24 147.894 8.72 147.894 10.064C147.894 11.232 146.886 12.176 145.382 12.176ZM149.466 11.104C149.466 10.528 149.93 10.064 150.506 10.064C151.098 10.064 151.562 10.528 151.562 11.104C151.562 11.68 151.098 12.176 150.506 12.176C149.93 12.176 149.466 11.68 149.466 11.104ZM156.689 12C156.449 12 156.321 11.792 156.417 11.584L161.281 0.815999C161.329 0.719999 161.409 0.639999 161.553 0.639999H161.713C161.857 0.639999 161.937 0.719999 161.985 0.815999L166.817 11.584C166.913 11.792 166.785 12 166.545 12H165.905C165.761 12 165.665 11.904 165.633 11.824L164.449 9.184H158.769L157.601 11.824C157.569 11.904 157.473 12 157.329 12H156.689ZM159.217 8.192H164.017C163.233 6.448 162.465 4.688 161.681 2.944H161.553L159.217 8.192ZM172.325 11.696V1.104C172.325 0.943999 172.453 0.799999 172.629 0.799999H176.773C178.693 0.799999 180.261 2.304 180.261 4.208C180.261 5.68 179.285 6.912 177.893 7.472L180.085 11.536C180.197 11.744 180.085 12 179.813 12H179.045C178.853 12 178.773 11.92 178.693 11.76L176.613 7.616H173.557V11.696C173.557 11.856 173.413 12 173.253 12H172.629C172.453 12 172.325 11.856 172.325 11.696ZM173.589 6.56H176.693C177.925 6.56 178.997 5.536 178.997 4.224C178.997 3.008 177.925 1.968 176.693 1.968H173.589V6.56ZM181.557 8.288C181.557 6.208 183.221 4.448 185.269 4.448C187.317 4.448 188.981 6.208 188.981 8.288C188.981 10.4 187.317 12.176 185.269 12.176C183.221 12.176 181.557 10.4 181.557 8.288ZM182.725 8.288C182.725 9.824 183.813 11.104 185.269 11.104C186.725 11.104 187.797 9.824 187.797 8.288C187.797 6.784 186.725 5.52 185.269 5.52C183.813 5.52 182.725 6.784 182.725 8.288ZM191.07 11.648V1.152C191.07 0.976 191.23 0.799999 191.422 0.799999H191.902C192.078 0.799999 192.254 0.976 192.254 1.152V11.648C192.254 11.84 192.078 12 191.902 12H191.422C191.23 12 191.07 11.84 191.07 11.648ZM194.37 8.304C194.37 6.224 195.714 4.448 197.954 4.448C199.89 4.448 201.298 5.872 201.298 7.808C201.298 7.936 201.282 8.128 201.266 8.256C201.25 8.448 201.09 8.576 200.93 8.576H195.554C195.586 9.808 196.626 11.104 197.97 11.104C198.946 11.104 199.554 10.768 199.97 10.496C200.226 10.32 200.338 10.256 200.53 10.544L200.722 10.816C200.866 11.04 200.93 11.12 200.658 11.328C200.21 11.68 199.234 12.176 197.954 12.176C195.714 12.176 194.37 10.416 194.37 8.304ZM195.57 7.632H200.114C200.082 6.544 199.218 5.52 197.954 5.52C196.706 5.52 195.714 6.48 195.57 7.632ZM209.148 12.176C207.916 12.176 207.084 11.632 206.7 11.28C206.62 11.2 206.588 11.088 206.652 10.96L206.876 10.544C206.972 10.368 207.1 10.304 207.308 10.448C207.564 10.64 208.204 11.104 209.148 11.104C209.9 11.104 210.412 10.752 210.412 10.176C210.412 9.472 209.836 9.184 208.764 8.656C207.788 8.176 206.668 7.648 206.668 6.384C206.668 5.616 207.244 4.448 208.956 4.448C209.916 4.448 210.716 4.768 211.068 5.024C211.228 5.152 211.26 5.312 211.148 5.52L210.988 5.824C210.876 6.032 210.636 6.048 210.476 5.952C210.156 5.76 209.644 5.52 208.956 5.52C208.14 5.52 207.868 5.984 207.868 6.336C207.868 6.992 208.38 7.232 209.276 7.648C210.556 8.24 211.66 8.72 211.66 10.064C211.66 11.232 210.652 12.176 209.148 12.176ZM213.584 11.648V1.152C213.584 0.976 213.744 0.799999 213.936 0.799999H214.416C214.592 0.799999 214.768 0.976 214.768 1.152V5.392C214.768 5.392 215.632 4.448 217.12 4.448C218.96 4.448 219.792 5.584 219.792 7.744V11.648C219.792 11.84 219.616 12 219.44 12H218.944C218.752 12 218.592 11.84 218.592 11.648V7.744C218.592 6.336 218.176 5.52 217.04 5.52C215.632 5.52 214.768 6.576 214.768 6.576V11.648C214.768 11.84 214.592 12 214.416 12H213.936C213.744 12 213.584 11.84 213.584 11.648ZM221.729 8.288C221.729 6.208 223.393 4.448 225.441 4.448C227.489 4.448 229.153 6.208 229.153 8.288C229.153 10.4 227.489 12.176 225.441 12.176C223.393 12.176 221.729 10.4 221.729 8.288ZM222.897 8.288C222.897 9.824 223.985 11.104 225.441 11.104C226.897 11.104 227.969 9.824 227.969 8.288C227.969 6.784 226.897 5.52 225.441 5.52C223.985 5.52 222.897 6.784 222.897 8.288ZM231.082 8.944V4.96C231.082 4.784 231.226 4.608 231.434 4.608H231.914C232.106 4.608 232.266 4.784 232.266 4.96V8.96C232.266 10.432 232.746 11.104 233.818 11.104C234.922 11.104 235.578 10.416 235.914 10.032V4.96C235.914 4.784 236.058 4.608 236.25 4.608H236.746C236.922 4.608 237.082 4.784 237.082 4.96V11.648C237.082 11.84 236.922 12 236.746 12H236.49C236.282 12 236.202 11.872 236.154 11.68L236.01 11.216C235.738 11.504 235.05 12.176 233.722 12.176C231.594 12.176 231.082 10.896 231.082 8.944ZM239.664 11.648V1.152C239.664 0.976 239.824 0.799999 240.016 0.799999H240.496C240.672 0.799999 240.848 0.976 240.848 1.152V11.648C240.848 11.84 240.672 12 240.496 12H240.016C239.824 12 239.664 11.84 239.664 11.648ZM242.964 8.288C242.964 6.128 244.244 4.448 246.468 4.448C247.684 4.448 248.516 4.912 248.516 4.912V1.152C248.516 0.976 248.676 0.799999 248.868 0.799999H249.316C249.508 0.799999 249.684 0.976 249.684 1.152V11.648C249.684 11.84 249.508 12 249.316 12H249.028C248.868 12 248.772 11.872 248.708 11.696L248.612 11.216C248.612 11.216 247.668 12.176 246.276 12.176C244.404 12.176 242.964 10.4 242.964 8.288ZM244.164 8.304C244.164 9.744 245.076 11.104 246.42 11.104C247.748 11.104 248.516 9.92 248.516 9.92V5.936C248.516 5.936 247.652 5.52 246.628 5.52C245.044 5.52 244.164 6.832 244.164 8.304ZM258.085 12.176C256.853 12.176 256.021 11.632 255.637 11.28C255.557 11.2 255.525 11.088 255.589 10.96L255.813 10.544C255.909 10.368 256.037 10.304 256.245 10.448C256.501 10.64 257.141 11.104 258.085 11.104C258.837 11.104 259.349 10.752 259.349 10.176C259.349 9.472 258.773 9.184 257.701 8.656C256.725 8.176 255.605 7.648 255.605 6.384C255.605 5.616 256.181 4.448 257.893 4.448C258.853 4.448 259.653 4.768 260.005 5.024C260.165 5.152 260.197 5.312 260.085 5.52L259.925 5.824C259.813 6.032 259.573 6.048 259.413 5.952C259.093 5.76 258.581 5.52 257.893 5.52C257.077 5.52 256.805 5.984 256.805 6.336C256.805 6.992 257.317 7.232 258.213 7.648C259.493 8.24 260.597 8.72 260.597 10.064C260.597 11.232 259.589 12.176 258.085 12.176ZM263.081 2.704C262.601 2.704 262.217 2.304 262.217 1.84C262.217 1.328 262.601 0.943999 263.081 0.943999C263.577 0.943999 263.961 1.328 263.961 1.84C263.961 2.304 263.577 2.704 263.081 2.704ZM262.521 11.648V4.96C262.521 4.784 262.681 4.608 262.873 4.608H263.353C263.529 4.608 263.705 4.784 263.705 4.96V11.648C263.705 11.84 263.529 12 263.353 12H262.873C262.681 12 262.521 11.84 262.521 11.648ZM266.209 11.648V4.96C266.209 4.784 266.369 4.608 266.561 4.608H266.817C266.977 4.608 267.073 4.672 267.105 4.832L267.265 5.392C267.265 5.392 268.033 4.448 269.553 4.448C270.657 4.448 271.249 4.848 271.729 5.616C271.825 5.552 272.881 4.448 274.369 4.448C276.513 4.448 277.025 5.84 277.025 7.744V11.648C277.025 11.84 276.865 12 276.673 12H276.193C276.001 12 275.841 11.84 275.841 11.648V7.744C275.841 6.368 275.393 5.52 274.273 5.52C273.073 5.52 272.401 6.304 272.129 6.528C272.193 6.848 272.225 7.36 272.225 7.744V11.648C272.225 11.84 272.065 12 271.873 12H271.393C271.217 12 271.041 11.84 271.041 11.648V7.744C271.041 6.336 270.577 5.52 269.377 5.52C268.065 5.52 267.393 6.544 267.393 6.544V11.648C267.393 11.84 267.217 12 267.041 12H266.561C266.369 12 266.209 11.84 266.209 11.648ZM280.611 11.568V15.456C280.611 15.648 280.435 15.808 280.259 15.808H279.795C279.603 15.808 279.443 15.648 279.443 15.456V4.96C279.443 4.784 279.603 4.608 279.795 4.608H280.067C280.243 4.608 280.291 4.656 280.371 4.848L280.483 5.2C280.483 5.2 281.379 4.448 282.707 4.448C284.723 4.448 286.147 6.192 286.147 8.304C286.147 10.464 284.691 12.176 282.659 12.176C281.427 12.176 280.611 11.568 280.611 11.568ZM280.611 10.464C280.611 10.464 281.459 11.104 282.483 11.104C283.907 11.104 284.947 9.904 284.947 8.288C284.947 6.848 284.051 5.52 282.563 5.52C281.379 5.52 280.611 6.416 280.611 6.416V10.464ZM288.258 11.648V1.152C288.258 0.976 288.418 0.799999 288.61 0.799999H289.09C289.266 0.799999 289.442 0.976 289.442 1.152V11.648C289.442 11.84 289.266 12 289.09 12H288.61C288.418 12 288.258 11.84 288.258 11.648ZM293.941 11.984L291.237 5.008C291.141 4.768 291.237 4.608 291.525 4.608H292.197C292.341 4.608 292.469 4.688 292.517 4.816L294.613 10.688H294.645L297.141 4.816C297.189 4.688 297.317 4.608 297.461 4.608H298.053C298.341 4.608 298.453 4.784 298.341 5.024L293.717 15.584C293.669 15.696 293.525 15.808 293.397 15.808H292.821C292.533 15.808 292.405 15.616 292.517 15.36L293.941 11.984ZM303.011 8.288C303.011 6.128 304.291 4.448 306.515 4.448C307.731 4.448 308.563 4.912 308.563 4.912V1.152C308.563 0.976 308.723 0.799999 308.915 0.799999H309.363C309.555 0.799999 309.731 0.976 309.731 1.152V11.648C309.731 11.84 309.555 12 309.363 12H309.075C308.915 12 308.819 11.872 308.755 11.696L308.659 11.216C308.659 11.216 307.715 12.176 306.323 12.176C304.451 12.176 303.011 10.4 303.011 8.288ZM304.211 8.304C304.211 9.744 305.123 11.104 306.467 11.104C307.795 11.104 308.563 9.92 308.563 9.92V5.936C308.563 5.936 307.699 5.52 306.675 5.52C305.091 5.52 304.211 6.832 304.211 8.304ZM311.761 8.304C311.761 6.224 313.105 4.448 315.345 4.448C317.281 4.448 318.689 5.872 318.689 7.808C318.689 7.936 318.673 8.128 318.657 8.256C318.641 8.448 318.481 8.576 318.321 8.576H312.945C312.977 9.808 314.017 11.104 315.361 11.104C316.337 11.104 316.945 10.768 317.361 10.496C317.617 10.32 317.729 10.256 317.921 10.544L318.113 10.816C318.257 11.04 318.321 11.12 318.049 11.328C317.601 11.68 316.625 12.176 315.345 12.176C313.105 12.176 311.761 10.416 311.761 8.304ZM312.961 7.632H317.505C317.473 6.544 316.609 5.52 315.345 5.52C314.097 5.52 313.105 6.48 312.961 7.632ZM322.695 12.176C321.463 12.176 320.631 11.632 320.247 11.28C320.167 11.2 320.135 11.088 320.199 10.96L320.423 10.544C320.519 10.368 320.647 10.304 320.855 10.448C321.111 10.64 321.751 11.104 322.695 11.104C323.447 11.104 323.959 10.752 323.959 10.176C323.959 9.472 323.383 9.184 322.311 8.656C321.335 8.176 320.215 7.648 320.215 6.384C320.215 5.616 320.791 4.448 322.503 4.448C323.463 4.448 324.263 4.768 324.615 5.024C324.775 5.152 324.807 5.312 324.695 5.52L324.535 5.824C324.423 6.032 324.183 6.048 324.023 5.952C323.703 5.76 323.191 5.52 322.503 5.52C321.687 5.52 321.415 5.984 321.415 6.336C321.415 6.992 321.927 7.232 322.823 7.648C324.103 8.24 325.207 8.72 325.207 10.064C325.207 11.232 324.199 12.176 322.695 12.176ZM326.651 8.32C326.651 6.144 328.251 4.448 330.395 4.448C331.499 4.448 332.395 4.88 333.083 5.664C333.227 5.84 333.195 6.048 333.019 6.192L332.763 6.432C332.523 6.64 332.379 6.48 332.235 6.32C331.723 5.744 331.131 5.52 330.379 5.52C328.971 5.52 327.851 6.768 327.851 8.304C327.851 9.872 328.955 11.104 330.331 11.104C331.451 11.104 331.931 10.528 332.347 10.048C332.555 9.808 332.763 9.872 332.971 10.08L333.067 10.176C333.227 10.336 333.291 10.496 333.163 10.688C332.603 11.504 331.611 12.176 330.379 12.176C328.187 12.176 326.651 10.544 326.651 8.32ZM335.131 11.648V4.96C335.131 4.784 335.291 4.608 335.483 4.608H335.739C335.883 4.608 336.011 4.688 336.059 4.864L336.187 5.392C336.187 5.392 336.923 4.448 338.459 4.448C339.019 4.448 339.931 4.528 339.755 5.04L339.547 5.616C339.467 5.856 339.291 5.872 339.115 5.792C338.939 5.712 338.667 5.584 338.315 5.584C336.891 5.584 336.315 6.528 336.315 6.528V11.648C336.315 11.84 336.139 12 335.963 12H335.483C335.291 12 335.131 11.84 335.131 11.648ZM341.863 2.704C341.383 2.704 340.999 2.304 340.999 1.84C340.999 1.328 341.383 0.943999 341.863 0.943999C342.359 0.943999 342.743 1.328 342.743 1.84C342.743 2.304 342.359 2.704 341.863 2.704ZM341.303 11.648V4.96C341.303 4.784 341.463 4.608 341.655 4.608H342.135C342.311 4.608 342.487 4.784 342.487 4.96V11.648C342.487 11.84 342.311 12 342.135 12H341.655C341.463 12 341.303 11.84 341.303 11.648ZM344.99 11.648V1.152C344.99 0.976 345.134 0.799999 345.326 0.799999H345.806C345.982 0.799999 346.158 0.976 346.158 1.152V4.912C346.158 4.912 346.974 4.448 348.206 4.448C350.414 4.448 351.694 6.128 351.694 8.288C351.694 10.4 350.27 12.176 348.382 12.176C346.878 12.176 346.046 11.216 346.046 11.216L345.95 11.696C345.918 11.872 345.806 12 345.63 12H345.342C345.15 12 344.99 11.84 344.99 11.648ZM346.158 9.888C346.158 9.888 346.926 11.104 348.254 11.104C349.598 11.104 350.494 9.744 350.494 8.304C350.494 6.832 349.646 5.52 348.03 5.52C347.006 5.52 346.158 5.984 346.158 5.984V9.888ZM353.261 8.304C353.261 6.224 354.605 4.448 356.845 4.448C358.781 4.448 360.189 5.872 360.189 7.808C360.189 7.936 360.173 8.128 360.157 8.256C360.141 8.448 359.981 8.576 359.821 8.576H354.445C354.477 9.808 355.517 11.104 356.861 11.104C357.837 11.104 358.445 10.768 358.861 10.496C359.117 10.32 359.229 10.256 359.421 10.544L359.613 10.816C359.757 11.04 359.821 11.12 359.549 11.328C359.101 11.68 358.125 12.176 356.845 12.176C354.605 12.176 353.261 10.416 353.261 8.304ZM354.461 7.632H359.005C358.973 6.544 358.109 5.52 356.845 5.52C355.597 5.52 354.605 6.48 354.461 7.632ZM366.205 5.632H365.229C365.005 5.632 364.861 5.472 364.861 5.28V4.96C364.861 4.752 365.005 4.608 365.229 4.608H366.205V2.56C366.205 2.368 366.381 2.224 366.557 2.208L367.053 2.176C367.245 2.16 367.389 2.336 367.389 2.528V4.608H369.565C369.773 4.608 369.933 4.752 369.933 4.96V5.28C369.933 5.472 369.773 5.632 369.565 5.632H367.389V10.048C367.389 10.816 367.629 11.104 368.045 11.104C368.733 11.104 369.197 10.816 369.501 10.624C369.789 10.448 369.885 10.592 369.965 10.768L370.109 11.104C370.205 11.344 370.173 11.456 369.981 11.584C369.661 11.808 368.893 12.176 367.901 12.176C366.493 12.176 366.205 11.28 366.205 10.128V5.632ZM371.787 11.648V1.152C371.787 0.976 371.947 0.799999 372.139 0.799999H372.619C372.795 0.799999 372.971 0.976 372.971 1.152V5.392C372.971 5.392 373.835 4.448 375.323 4.448C377.163 4.448 377.995 5.584 377.995 7.744V11.648C377.995 11.84 377.819 12 377.643 12H377.147C376.955 12 376.795 11.84 376.795 11.648V7.744C376.795 6.336 376.379 5.52 375.243 5.52C373.835 5.52 372.971 6.576 372.971 6.576V11.648C372.971 11.84 372.795 12 372.619 12H372.139C371.947 12 371.787 11.84 371.787 11.648ZM379.948 8.304C379.948 6.224 381.292 4.448 383.532 4.448C385.468 4.448 386.876 5.872 386.876 7.808C386.876 7.936 386.86 8.128 386.844 8.256C386.828 8.448 386.668 8.576 386.508 8.576H381.132C381.164 9.808 382.204 11.104 383.548 11.104C384.524 11.104 385.132 10.768 385.548 10.496C385.804 10.32 385.916 10.256 386.108 10.544L386.3 10.816C386.444 11.04 386.508 11.12 386.236 11.328C385.788 11.68 384.812 12.176 383.532 12.176C381.292 12.176 379.948 10.416 379.948 8.304ZM381.148 7.632H385.692C385.66 6.544 384.796 5.52 383.532 5.52C382.284 5.52 381.292 6.48 381.148 7.632ZM393.068 11.648V5.632H391.884C391.692 5.632 391.532 5.472 391.532 5.28V4.96C391.532 4.752 391.692 4.608 391.884 4.608H393.068V3.44C393.068 1.6 393.932 0.639999 395.532 0.639999C396.54 0.639999 397.228 1.088 397.564 1.408C397.676 1.52 397.708 1.712 397.628 1.824L397.324 2.208C397.196 2.384 397.068 2.368 396.86 2.224C396.46 1.936 396.124 1.712 395.5 1.712C394.652 1.712 394.252 2.336 394.252 3.44V4.608H396.444C396.636 4.608 396.796 4.752 396.796 4.96V5.28C396.796 5.472 396.636 5.632 396.444 5.632H394.252V11.648C394.252 11.84 394.092 12 393.9 12H393.42C393.228 12 393.068 11.84 393.068 11.648ZM398.301 8.944V4.96C398.301 4.784 398.445 4.608 398.653 4.608H399.133C399.325 4.608 399.485 4.784 399.485 4.96V8.96C399.485 10.432 399.965 11.104 401.037 11.104C402.141 11.104 402.797 10.416 403.133 10.032V4.96C403.133 4.784 403.277 4.608 403.469 4.608H403.965C404.141 4.608 404.301 4.784 404.301 4.96V11.648C404.301 11.84 404.141 12 403.965 12H403.709C403.501 12 403.421 11.872 403.373 11.68L403.229 11.216C402.957 11.504 402.269 12.176 400.941 12.176C398.813 12.176 398.301 10.896 398.301 8.944ZM406.803 11.648V4.96C406.803 4.784 406.963 4.608 407.155 4.608H407.411C407.571 4.608 407.667 4.672 407.699 4.832L407.859 5.392C407.859 5.392 408.803 4.448 410.339 4.448C412.483 4.448 413.011 5.84 413.011 7.744V11.648C413.011 11.84 412.835 12 412.659 12H412.179C411.987 12 411.827 11.84 411.827 11.648V7.584C411.827 6.176 411.347 5.52 410.259 5.52C408.867 5.52 407.987 6.544 407.987 6.544V11.648C407.987 11.84 407.811 12 407.635 12H407.155C406.963 12 406.803 11.84 406.803 11.648ZM414.948 8.32C414.948 6.144 416.548 4.448 418.692 4.448C419.796 4.448 420.692 4.88 421.38 5.664C421.524 5.84 421.492 6.048 421.316 6.192L421.06 6.432C420.82 6.64 420.676 6.48 420.532 6.32C420.02 5.744 419.428 5.52 418.676 5.52C417.268 5.52 416.148 6.768 416.148 8.304C416.148 9.872 417.252 11.104 418.628 11.104C419.748 11.104 420.228 10.528 420.644 10.048C420.852 9.808 421.06 9.872 421.268 10.08L421.364 10.176C421.524 10.336 421.588 10.496 421.46 10.688C420.9 11.504 419.908 12.176 418.676 12.176C416.484 12.176 414.948 10.544 414.948 8.32ZM423.908 5.632H422.932C422.708 5.632 422.564 5.472 422.564 5.28V4.96C422.564 4.752 422.708 4.608 422.932 4.608H423.908V2.56C423.908 2.368 424.084 2.224 424.26 2.208L424.756 2.176C424.948 2.16 425.092 2.336 425.092 2.528V4.608H427.268C427.476 4.608 427.636 4.752 427.636 4.96V5.28C427.636 5.472 427.476 5.632 427.268 5.632H425.092V10.048C425.092 10.816 425.332 11.104 425.748 11.104C426.436 11.104 426.9 10.816 427.204 10.624C427.492 10.448 427.588 10.592 427.668 10.768L427.812 11.104C427.908 11.344 427.876 11.456 427.684 11.584C427.364 11.808 426.596 12.176 425.604 12.176C424.196 12.176 423.908 11.28 423.908 10.128V5.632ZM430.05 2.704C429.57 2.704 429.186 2.304 429.186 1.84C429.186 1.328 429.57 0.943999 430.05 0.943999C430.546 0.943999 430.93 1.328 430.93 1.84C430.93 2.304 430.546 2.704 430.05 2.704ZM429.49 11.648V4.96C429.49 4.784 429.65 4.608 429.842 4.608H430.322C430.498 4.608 430.674 4.784 430.674 4.96V11.648C430.674 11.84 430.498 12 430.322 12H429.842C429.65 12 429.49 11.84 429.49 11.648ZM432.698 8.288C432.698 6.208 434.362 4.448 436.41 4.448C438.458 4.448 440.122 6.208 440.122 8.288C440.122 10.4 438.458 12.176 436.41 12.176C434.362 12.176 432.698 10.4 432.698 8.288ZM433.866 8.288C433.866 9.824 434.954 11.104 436.41 11.104C437.866 11.104 438.938 9.824 438.938 8.288C438.938 6.784 437.866 5.52 436.41 5.52C434.954 5.52 433.866 6.784 433.866 8.288ZM442.131 11.648V4.96C442.131 4.784 442.291 4.608 442.483 4.608H442.739C442.899 4.608 442.995 4.672 443.027 4.832L443.187 5.392C443.187 5.392 444.131 4.448 445.667 4.448C447.811 4.448 448.339 5.84 448.339 7.744V11.648C448.339 11.84 448.163 12 447.987 12H447.507C447.315 12 447.155 11.84 447.155 11.648V7.584C447.155 6.176 446.675 5.52 445.587 5.52C444.195 5.52 443.315 6.544 443.315 6.544V11.648C443.315 11.84 443.139 12 442.963 12H442.483C442.291 12 442.131 11.84 442.131 11.648ZM452.82 12.176C451.588 12.176 450.756 11.632 450.372 11.28C450.292 11.2 450.26 11.088 450.324 10.96L450.548 10.544C450.644 10.368 450.772 10.304 450.98 10.448C451.236 10.64 451.876 11.104 452.82 11.104C453.572 11.104 454.084 10.752 454.084 10.176C454.084 9.472 453.508 9.184 452.436 8.656C451.46 8.176 450.34 7.648 450.34 6.384C450.34 5.616 450.916 4.448 452.628 4.448C453.588 4.448 454.388 4.768 454.74 5.024C454.9 5.152 454.932 5.312 454.82 5.52L454.66 5.824C454.548 6.032 454.308 6.048 454.148 5.952C453.828 5.76 453.316 5.52 452.628 5.52C451.812 5.52 451.54 5.984 451.54 6.336C451.54 6.992 452.052 7.232 452.948 7.648C454.228 8.24 455.332 8.72 455.332 10.064C455.332 11.232 454.324 12.176 452.82 12.176ZM463.02 11.984L460.316 5.008C460.22 4.768 460.316 4.608 460.604 4.608H461.276C461.42 4.608 461.548 4.688 461.596 4.816L463.692 10.688H463.724L466.22 4.816C466.268 4.688 466.396 4.608 466.54 4.608H467.132C467.42 4.608 467.532 4.784 467.42 5.024L462.796 15.584C462.748 15.696 462.604 15.808 462.476 15.808H461.9C461.612 15.808 461.484 15.616 461.596 15.36L463.02 11.984ZM468.448 8.288C468.448 6.208 470.112 4.448 472.16 4.448C474.208 4.448 475.872 6.208 475.872 8.288C475.872 10.4 474.208 12.176 472.16 12.176C470.112 12.176 468.448 10.4 468.448 8.288ZM469.616 8.288C469.616 9.824 470.704 11.104 472.16 11.104C473.616 11.104 474.688 9.824 474.688 8.288C474.688 6.784 473.616 5.52 472.16 5.52C470.704 5.52 469.616 6.784 469.616 8.288ZM477.801 8.944V4.96C477.801 4.784 477.945 4.608 478.153 4.608H478.633C478.825 4.608 478.985 4.784 478.985 4.96V8.96C478.985 10.432 479.465 11.104 480.537 11.104C481.641 11.104 482.297 10.416 482.633 10.032V4.96C482.633 4.784 482.777 4.608 482.969 4.608H483.465C483.641 4.608 483.801 4.784 483.801 4.96V11.648C483.801 11.84 483.641 12 483.465 12H483.209C483.001 12 482.921 11.872 482.873 11.68L482.729 11.216C482.457 11.504 481.769 12.176 480.441 12.176C478.313 12.176 477.801 10.896 477.801 8.944ZM494.514 6.432H494.482L492.306 11.984C492.274 12.08 492.178 12.176 492.002 12.176H491.906C491.73 12.176 491.634 12.096 491.586 11.984L489.538 5.024C489.474 4.784 489.538 4.608 489.826 4.608H490.37C490.546 4.608 490.674 4.688 490.706 4.816L492.066 9.84H492.098L494.178 4.624C494.21 4.528 494.322 4.448 494.498 4.448H494.594C494.738 4.448 494.866 4.528 494.898 4.624L496.962 9.856H496.994L498.354 4.816C498.386 4.688 498.514 4.608 498.658 4.608H499.218C499.474 4.608 499.554 4.784 499.474 5.024L497.458 11.984C497.426 12.096 497.298 12.176 497.154 12.176H497.058C496.898 12.176 496.786 12.08 496.738 11.984L494.514 6.432ZM500.727 9.76C500.727 8.352 501.783 7.312 503.687 7.312C504.471 7.312 505.271 7.552 505.271 7.552C505.287 6.192 505.111 5.52 504.055 5.52C503.047 5.52 502.199 5.84 501.863 5.952C501.671 6.032 501.575 5.936 501.511 5.76L501.351 5.328C501.287 5.104 501.399 5.008 501.575 4.928C501.943 4.768 502.903 4.448 504.119 4.448C506.007 4.448 506.407 5.376 506.407 7.552V11.648C506.407 11.84 506.247 12 506.055 12H505.751C505.559 12 505.495 11.888 505.447 11.728L505.303 11.232C504.919 11.616 504.151 12.176 503.015 12.176C501.719 12.176 500.727 11.248 500.727 9.76ZM501.895 9.76C501.895 10.512 502.407 11.104 503.223 11.104C504.135 11.104 504.935 10.592 505.255 10.112V8.608C505.015 8.48 504.423 8.32 503.687 8.32C502.663 8.32 501.895 8.816 501.895 9.76ZM508.834 11.648V4.96C508.834 4.784 508.994 4.608 509.186 4.608H509.442C509.602 4.608 509.698 4.672 509.73 4.832L509.89 5.392C509.89 5.392 510.834 4.448 512.37 4.448C514.514 4.448 515.042 5.84 515.042 7.744V11.648C515.042 11.84 514.866 12 514.69 12H514.21C514.018 12 513.858 11.84 513.858 11.648V7.584C513.858 6.176 513.378 5.52 512.29 5.52C510.898 5.52 510.018 6.544 510.018 6.544V11.648C510.018 11.84 509.842 12 509.666 12H509.186C508.994 12 508.834 11.84 508.834 11.648ZM517.861 5.632H516.885C516.661 5.632 516.517 5.472 516.517 5.28V4.96C516.517 4.752 516.661 4.608 516.885 4.608H517.861V2.56C517.861 2.368 518.037 2.224 518.213 2.208L518.709 2.176C518.901 2.16 519.045 2.336 519.045 2.528V4.608H521.221C521.429 4.608 521.589 4.752 521.589 4.96V5.28C521.589 5.472 521.429 5.632 521.221 5.632H519.045V10.048C519.045 10.816 519.285 11.104 519.701 11.104C520.389 11.104 520.853 10.816 521.157 10.624C521.445 10.448 521.541 10.592 521.621 10.768L521.765 11.104C521.861 11.344 521.829 11.456 521.637 11.584C521.317 11.808 520.549 12.176 519.557 12.176C518.149 12.176 517.861 11.28 517.861 10.128V5.632ZM526.711 9.76C526.711 8.352 527.767 7.312 529.671 7.312C530.455 7.312 531.255 7.552 531.255 7.552C531.271 6.192 531.095 5.52 530.039 5.52C529.031 5.52 528.183 5.84 527.847 5.952C527.655 6.032 527.559 5.936 527.495 5.76L527.335 5.328C527.271 5.104 527.383 5.008 527.559 4.928C527.927 4.768 528.887 4.448 530.103 4.448C531.991 4.448 532.391 5.376 532.391 7.552V11.648C532.391 11.84 532.231 12 532.039 12H531.735C531.543 12 531.479 11.888 531.431 11.728L531.287 11.232C530.903 11.616 530.135 12.176 528.999 12.176C527.703 12.176 526.711 11.248 526.711 9.76ZM527.879 9.76C527.879 10.512 528.391 11.104 529.207 11.104C530.119 11.104 530.919 10.592 531.239 10.112V8.608C530.999 8.48 530.407 8.32 529.671 8.32C528.647 8.32 527.879 8.816 527.879 9.76ZM538.892 5.632H537.916C537.692 5.632 537.548 5.472 537.548 5.28V4.96C537.548 4.752 537.692 4.608 537.916 4.608H538.892V2.56C538.892 2.368 539.068 2.224 539.244 2.208L539.74 2.176C539.932 2.16 540.076 2.336 540.076 2.528V4.608H542.252C542.46 4.608 542.62 4.752 542.62 4.96V5.28C542.62 5.472 542.46 5.632 542.252 5.632H540.076V10.048C540.076 10.816 540.316 11.104 540.732 11.104C541.42 11.104 541.884 10.816 542.188 10.624C542.476 10.448 542.572 10.592 542.652 10.768L542.796 11.104C542.892 11.344 542.86 11.456 542.668 11.584C542.348 11.808 541.58 12.176 540.588 12.176C539.18 12.176 538.892 11.28 538.892 10.128V5.632ZM544.011 8.304C544.011 6.224 545.355 4.448 547.595 4.448C549.531 4.448 550.939 5.872 550.939 7.808C550.939 7.936 550.923 8.128 550.907 8.256C550.891 8.448 550.731 8.576 550.571 8.576H545.195C545.227 9.808 546.267 11.104 547.611 11.104C548.587 11.104 549.195 10.768 549.611 10.496C549.867 10.32 549.979 10.256 550.171 10.544L550.363 10.816C550.507 11.04 550.571 11.12 550.299 11.328C549.851 11.68 548.875 12.176 547.595 12.176C545.355 12.176 544.011 10.416 544.011 8.304ZM545.211 7.632H549.755C549.723 6.544 548.859 5.52 547.595 5.52C546.347 5.52 545.355 6.48 545.211 7.632ZM552.305 9.76C552.305 8.352 553.361 7.312 555.265 7.312C556.049 7.312 556.849 7.552 556.849 7.552C556.865 6.192 556.689 5.52 555.633 5.52C554.625 5.52 553.777 5.84 553.441 5.952C553.249 6.032 553.153 5.936 553.089 5.76L552.929 5.328C552.865 5.104 552.977 5.008 553.153 4.928C553.521 4.768 554.481 4.448 555.697 4.448C557.585 4.448 557.985 5.376 557.985 7.552V11.648C557.985 11.84 557.825 12 557.633 12H557.329C557.137 12 557.073 11.888 557.025 11.728L556.881 11.232C556.497 11.616 555.729 12.176 554.593 12.176C553.297 12.176 552.305 11.248 552.305 9.76ZM553.473 9.76C553.473 10.512 553.985 11.104 554.801 11.104C555.713 11.104 556.513 10.592 556.833 10.112V8.608C556.593 8.48 556.001 8.32 555.265 8.32C554.241 8.32 553.473 8.816 553.473 9.76ZM560.412 11.648V4.96C560.412 4.784 560.572 4.608 560.764 4.608H561.02C561.18 4.608 561.276 4.672 561.308 4.832L561.468 5.392C561.468 5.392 562.236 4.448 563.756 4.448C564.86 4.448 565.452 4.848 565.932 5.616C566.028 5.552 567.084 4.448 568.572 4.448C570.716 4.448 571.228 5.84 571.228 7.744V11.648C571.228 11.84 571.068 12 570.876 12H570.396C570.204 12 570.044 11.84 570.044 11.648V7.744C570.044 6.368 569.596 5.52 568.476 5.52C567.276 5.52 566.604 6.304 566.332 6.528C566.396 6.848 566.428 7.36 566.428 7.744V11.648C566.428 11.84 566.268 12 566.076 12H565.596C565.42 12 565.244 11.84 565.244 11.648V7.744C565.244 6.336 564.78 5.52 563.58 5.52C562.268 5.52 561.596 6.544 561.596 6.544V11.648C561.596 11.84 561.42 12 561.244 12H560.764C560.572 12 560.412 11.84 560.412 11.648ZM577.49 11.648V4.96C577.49 4.784 577.65 4.608 577.842 4.608H578.098C578.258 4.608 578.354 4.672 578.386 4.832L578.546 5.392C578.546 5.392 579.314 4.448 580.834 4.448C581.938 4.448 582.53 4.848 583.01 5.616C583.106 5.552 584.162 4.448 585.65 4.448C587.794 4.448 588.306 5.84 588.306 7.744V11.648C588.306 11.84 588.146 12 587.954 12H587.474C587.282 12 587.122 11.84 587.122 11.648V7.744C587.122 6.368 586.674 5.52 585.554 5.52C584.354 5.52 583.682 6.304 583.41 6.528C583.474 6.848 583.506 7.36 583.506 7.744V11.648C583.506 11.84 583.346 12 583.154 12H582.674C582.498 12 582.322 11.84 582.322 11.648V7.744C582.322 6.336 581.858 5.52 580.658 5.52C579.346 5.52 578.674 6.544 578.674 6.544V11.648C578.674 11.84 578.498 12 578.322 12H577.842C577.65 12 577.49 11.84 577.49 11.648ZM590.261 8.304C590.261 6.224 591.605 4.448 593.845 4.448C595.781 4.448 597.189 5.872 597.189 7.808C597.189 7.936 597.173 8.128 597.157 8.256C597.141 8.448 596.981 8.576 596.821 8.576H591.445C591.477 9.808 592.517 11.104 593.861 11.104C594.837 11.104 595.445 10.768 595.861 10.496C596.117 10.32 596.229 10.256 596.421 10.544L596.613 10.816C596.757 11.04 596.821 11.12 596.549 11.328C596.101 11.68 595.125 12.176 593.845 12.176C591.605 12.176 590.261 10.416 590.261 8.304ZM591.461 7.632H596.005C595.973 6.544 595.109 5.52 593.845 5.52C592.597 5.52 591.605 6.48 591.461 7.632ZM599.131 11.648V4.96C599.131 4.784 599.291 4.608 599.483 4.608H599.739C599.899 4.608 599.995 4.672 600.027 4.832L600.187 5.392C600.187 5.392 600.955 4.448 602.475 4.448C603.579 4.448 604.171 4.848 604.651 5.616C604.747 5.552 605.803 4.448 607.291 4.448C609.435 4.448 609.947 5.84 609.947 7.744V11.648C609.947 11.84 609.787 12 609.595 12H609.115C608.923 12 608.763 11.84 608.763 11.648V7.744C608.763 6.368 608.315 5.52 607.195 5.52C605.995 5.52 605.323 6.304 605.051 6.528C605.115 6.848 605.147 7.36 605.147 7.744V11.648C605.147 11.84 604.987 12 604.795 12H604.315C604.139 12 603.963 11.84 603.963 11.648V7.744C603.963 6.336 603.499 5.52 602.299 5.52C600.987 5.52 600.315 6.544 600.315 6.544V11.648C600.315 11.84 600.139 12 599.963 12H599.483C599.291 12 599.131 11.84 599.131 11.648ZM612.365 11.648V1.152C612.365 0.976 612.509 0.799999 612.701 0.799999H613.181C613.357 0.799999 613.533 0.976 613.533 1.152V4.912C613.533 4.912 614.349 4.448 615.581 4.448C617.789 4.448 619.069 6.128 619.069 8.288C619.069 10.4 617.645 12.176 615.757 12.176C614.253 12.176 613.421 11.216 613.421 11.216L613.325 11.696C613.293 11.872 613.181 12 613.005 12H612.717C612.525 12 612.365 11.84 612.365 11.648ZM613.533 9.888C613.533 9.888 614.301 11.104 615.629 11.104C616.973 11.104 617.869 9.744 617.869 8.304C617.869 6.832 617.021 5.52 615.405 5.52C614.381 5.52 613.533 5.984 613.533 5.984V9.888ZM620.636 8.304C620.636 6.224 621.98 4.448 624.22 4.448C626.156 4.448 627.564 5.872 627.564 7.808C627.564 7.936 627.548 8.128 627.532 8.256C627.516 8.448 627.356 8.576 627.196 8.576H621.82C621.852 9.808 622.892 11.104 624.236 11.104C625.212 11.104 625.82 10.768 626.236 10.496C626.492 10.32 626.604 10.256 626.796 10.544L626.988 10.816C627.132 11.04 627.196 11.12 626.924 11.328C626.476 11.68 625.5 12.176 624.22 12.176C621.98 12.176 620.636 10.416 620.636 8.304ZM621.836 7.632H626.38C626.348 6.544 625.484 5.52 624.22 5.52C622.972 5.52 621.98 6.48 621.836 7.632ZM629.506 11.648V4.96C629.506 4.784 629.666 4.608 629.858 4.608H630.114C630.258 4.608 630.386 4.688 630.434 4.864L630.562 5.392C630.562 5.392 631.298 4.448 632.834 4.448C633.394 4.448 634.306 4.528 634.13 5.04L633.922 5.616C633.842 5.856 633.666 5.872 633.49 5.792C633.314 5.712 633.042 5.584 632.69 5.584C631.266 5.584 630.69 6.528 630.69 6.528V11.648C630.69 11.84 630.514 12 630.338 12H629.858C629.666 12 629.506 11.84 629.506 11.648ZM639.392 5.632H638.416C638.192 5.632 638.048 5.472 638.048 5.28V4.96C638.048 4.752 638.192 4.608 638.416 4.608H639.392V2.56C639.392 2.368 639.568 2.224 639.744 2.208L640.24 2.176C640.432 2.16 640.576 2.336 640.576 2.528V4.608H642.752C642.96 4.608 643.12 4.752 643.12 4.96V5.28C643.12 5.472 642.96 5.632 642.752 5.632H640.576V10.048C640.576 10.816 640.816 11.104 641.232 11.104C641.92 11.104 642.384 10.816 642.688 10.624C642.976 10.448 643.072 10.592 643.152 10.768L643.296 11.104C643.392 11.344 643.36 11.456 643.168 11.584C642.848 11.808 642.08 12.176 641.088 12.176C639.68 12.176 639.392 11.28 639.392 10.128V5.632ZM644.495 8.288C644.495 6.208 646.159 4.448 648.207 4.448C650.255 4.448 651.919 6.208 651.919 8.288C651.919 10.4 650.255 12.176 648.207 12.176C646.159 12.176 644.495 10.4 644.495 8.288ZM645.663 8.288C645.663 9.824 646.751 11.104 648.207 11.104C649.663 11.104 650.735 9.824 650.735 8.288C650.735 6.784 649.663 5.52 648.207 5.52C646.751 5.52 645.663 6.784 645.663 8.288ZM658.939 11.568V15.456C658.939 15.648 658.763 15.808 658.587 15.808H658.123C657.931 15.808 657.771 15.648 657.771 15.456V4.96C657.771 4.784 657.931 4.608 658.123 4.608H658.395C658.571 4.608 658.619 4.656 658.699 4.848L658.811 5.2C658.811 5.2 659.707 4.448 661.035 4.448C663.051 4.448 664.475 6.192 664.475 8.304C664.475 10.464 663.019 12.176 660.987 12.176C659.755 12.176 658.939 11.568 658.939 11.568ZM658.939 10.464C658.939 10.464 659.787 11.104 660.811 11.104C662.235 11.104 663.275 9.904 663.275 8.288C663.275 6.848 662.379 5.52 660.891 5.52C659.707 5.52 658.939 6.416 658.939 6.416V10.464ZM666.042 8.304C666.042 6.224 667.386 4.448 669.626 4.448C671.562 4.448 672.97 5.872 672.97 7.808C672.97 7.936 672.954 8.128 672.938 8.256C672.922 8.448 672.762 8.576 672.602 8.576H667.226C667.258 9.808 668.298 11.104 669.642 11.104C670.618 11.104 671.226 10.768 671.642 10.496C671.898 10.32 672.01 10.256 672.202 10.544L672.394 10.816C672.538 11.04 672.602 11.12 672.33 11.328C671.882 11.68 670.906 12.176 669.626 12.176C667.386 12.176 666.042 10.416 666.042 8.304ZM667.242 7.632H671.786C671.754 6.544 670.89 5.52 669.626 5.52C668.378 5.52 667.386 6.48 667.242 7.632ZM674.912 11.648V4.96C674.912 4.784 675.072 4.608 675.264 4.608H675.52C675.664 4.608 675.792 4.688 675.84 4.864L675.968 5.392C675.968 5.392 676.704 4.448 678.24 4.448C678.8 4.448 679.712 4.528 679.536 5.04L679.328 5.616C679.248 5.856 679.072 5.872 678.896 5.792C678.72 5.712 678.448 5.584 678.096 5.584C676.672 5.584 676.096 6.528 676.096 6.528V11.648C676.096 11.84 675.92 12 675.744 12H675.264C675.072 12 674.912 11.84 674.912 11.648ZM681.756 11.648V5.632H680.572C680.38 5.632 680.22 5.472 680.22 5.28V4.96C680.22 4.752 680.38 4.608 680.572 4.608H681.756V3.44C681.756 1.6 682.62 0.639999 684.22 0.639999C685.228 0.639999 685.916 1.088 686.252 1.408C686.364 1.52 686.396 1.712 686.316 1.824L686.012 2.208C685.884 2.384 685.756 2.368 685.548 2.224C685.148 1.936 684.812 1.712 684.188 1.712C683.34 1.712 682.94 2.336 682.94 3.44V4.608H685.132C685.324 4.608 685.484 4.752 685.484 4.96V5.28C685.484 5.472 685.324 5.632 685.132 5.632H682.94V11.648C682.94 11.84 682.78 12 682.588 12H682.108C681.916 12 681.756 11.84 681.756 11.648ZM686.37 8.288C686.37 6.208 688.034 4.448 690.082 4.448C692.13 4.448 693.794 6.208 693.794 8.288C693.794 10.4 692.13 12.176 690.082 12.176C688.034 12.176 686.37 10.4 686.37 8.288ZM687.538 8.288C687.538 9.824 688.626 11.104 690.082 11.104C691.538 11.104 692.61 9.824 692.61 8.288C692.61 6.784 691.538 5.52 690.082 5.52C688.626 5.52 687.538 6.784 687.538 8.288ZM695.803 11.648V4.96C695.803 4.784 695.963 4.608 696.155 4.608H696.411C696.555 4.608 696.683 4.688 696.731 4.864L696.859 5.392C696.859 5.392 697.595 4.448 699.131 4.448C699.691 4.448 700.603 4.528 700.427 5.04L700.219 5.616C700.139 5.856 699.963 5.872 699.787 5.792C699.611 5.712 699.339 5.584 698.987 5.584C697.563 5.584 696.987 6.528 696.987 6.528V11.648C696.987 11.84 696.811 12 696.635 12H696.155C695.963 12 695.803 11.84 695.803 11.648ZM701.975 11.648V4.96C701.975 4.784 702.135 4.608 702.327 4.608H702.583C702.743 4.608 702.839 4.672 702.871 4.832L703.031 5.392C703.031 5.392 703.799 4.448 705.319 4.448C706.423 4.448 707.015 4.848 707.495 5.616C707.591 5.552 708.647 4.448 710.135 4.448C712.279 4.448 712.791 5.84 712.791 7.744V11.648C712.791 11.84 712.631 12 712.439 12H711.959C711.767 12 711.607 11.84 711.607 11.648V7.744C711.607 6.368 711.159 5.52 710.039 5.52C708.839 5.52 708.167 6.304 707.895 6.528C707.959 6.848 707.991 7.36 707.991 7.744V11.648C707.991 11.84 707.831 12 707.639 12H707.159C706.983 12 706.807 11.84 706.807 11.648V7.744C706.807 6.336 706.343 5.52 705.143 5.52C703.831 5.52 703.159 6.544 703.159 6.544V11.648C703.159 11.84 702.983 12 702.807 12H702.327C702.135 12 701.975 11.84 701.975 11.648ZM714.857 11.104C714.857 10.528 715.321 10.064 715.897 10.064C716.489 10.064 716.953 10.528 716.953 11.104C716.953 11.68 716.489 12.176 715.897 12.176C715.321 12.176 714.857 11.68 714.857 11.104ZM162.043 51.696V41.872H159.259C159.083 41.872 158.955 41.728 158.955 41.568V41.104C158.955 40.944 159.083 40.8 159.259 40.8H166.043C166.219 40.8 166.347 40.944 166.347 41.104V41.568C166.347 41.728 166.219 41.872 166.043 41.872H163.259V51.696C163.259 51.856 163.115 52 162.955 52H162.347C162.187 52 162.043 51.856 162.043 51.696ZM167.912 51.648V41.152C167.912 40.976 168.072 40.8 168.264 40.8H168.744C168.92 40.8 169.096 40.976 169.096 41.152V45.392C169.096 45.392 169.96 44.448 171.448 44.448C173.288 44.448 174.12 45.584 174.12 47.744V51.648C174.12 51.84 173.944 52 173.768 52H173.272C173.08 52 172.92 51.84 172.92 51.648V47.744C172.92 46.336 172.504 45.52 171.368 45.52C169.96 45.52 169.096 46.576 169.096 46.576V51.648C169.096 51.84 168.92 52 168.744 52H168.264C168.072 52 167.912 51.84 167.912 51.648ZM177.097 42.704C176.617 42.704 176.233 42.304 176.233 41.84C176.233 41.328 176.617 40.944 177.097 40.944C177.593 40.944 177.977 41.328 177.977 41.84C177.977 42.304 177.593 42.704 177.097 42.704ZM176.537 51.648V44.96C176.537 44.784 176.697 44.608 176.889 44.608H177.369C177.545 44.608 177.721 44.784 177.721 44.96V51.648C177.721 51.84 177.545 52 177.369 52H176.889C176.697 52 176.537 51.84 176.537 51.648ZM180.225 51.648V44.96C180.225 44.784 180.385 44.608 180.577 44.608H180.833C180.993 44.608 181.089 44.672 181.121 44.832L181.281 45.392C181.281 45.392 182.225 44.448 183.761 44.448C185.905 44.448 186.433 45.84 186.433 47.744V51.648C186.433 51.84 186.257 52 186.081 52H185.601C185.409 52 185.249 51.84 185.249 51.648V47.584C185.249 46.176 184.769 45.52 183.681 45.52C182.289 45.52 181.409 46.544 181.409 46.544V51.648C181.409 51.84 181.233 52 181.057 52H180.577C180.385 52 180.225 51.84 180.225 51.648ZM188.85 51.648V41.152C188.85 40.976 189.01 40.8 189.202 40.8H189.682C189.858 40.8 190.034 40.976 190.034 41.152V47.408L193.106 44.832C193.266 44.688 193.41 44.608 193.554 44.608H194.45C194.77 44.608 194.754 44.96 194.626 45.056L191.218 47.888L194.882 51.536C195.026 51.664 195.01 52 194.69 52H193.778C193.634 52 193.49 51.92 193.41 51.856L190.034 48.288V51.648C190.034 51.84 189.858 52 189.682 52H189.202C189.01 52 188.85 51.84 188.85 51.648ZM199.963 48.288C199.963 46.208 201.627 44.448 203.675 44.448C205.723 44.448 207.387 46.208 207.387 48.288C207.387 50.4 205.723 52.176 203.675 52.176C201.627 52.176 199.963 50.4 199.963 48.288ZM201.131 48.288C201.131 49.824 202.219 51.104 203.675 51.104C205.131 51.104 206.203 49.824 206.203 48.288C206.203 46.784 205.131 45.52 203.675 45.52C202.219 45.52 201.131 46.784 201.131 48.288ZM209.928 51.648V45.632H208.744C208.552 45.632 208.392 45.472 208.392 45.28V44.96C208.392 44.752 208.552 44.608 208.744 44.608H209.928V43.44C209.928 41.6 210.792 40.64 212.392 40.64C213.4 40.64 214.088 41.088 214.424 41.408C214.536 41.52 214.568 41.712 214.488 41.824L214.184 42.208C214.056 42.384 213.928 42.368 213.72 42.224C213.32 41.936 212.984 41.712 212.36 41.712C211.512 41.712 211.112 42.336 211.112 43.44V44.608H213.304C213.496 44.608 213.656 44.752 213.656 44.96V45.28C213.656 45.472 213.496 45.632 213.304 45.632H211.112V51.648C211.112 51.84 210.952 52 210.76 52H210.28C210.088 52 209.928 51.84 209.928 51.648ZM219.314 45.632H218.338C218.114 45.632 217.97 45.472 217.97 45.28V44.96C217.97 44.752 218.114 44.608 218.338 44.608H219.314V42.56C219.314 42.368 219.49 42.224 219.666 42.208L220.162 42.176C220.354 42.16 220.498 42.336 220.498 42.528V44.608H222.674C222.882 44.608 223.042 44.752 223.042 44.96V45.28C223.042 45.472 222.882 45.632 222.674 45.632H220.498V50.048C220.498 50.816 220.738 51.104 221.154 51.104C221.842 51.104 222.306 50.816 222.61 50.624C222.898 50.448 222.994 50.592 223.074 50.768L223.218 51.104C223.314 51.344 223.282 51.456 223.09 51.584C222.77 51.808 222.002 52.176 221.01 52.176C219.602 52.176 219.314 51.28 219.314 50.128V45.632ZM224.896 51.648V41.152C224.896 40.976 225.056 40.8 225.248 40.8H225.728C225.904 40.8 226.08 40.976 226.08 41.152V45.392C226.08 45.392 226.944 44.448 228.432 44.448C230.272 44.448 231.104 45.584 231.104 47.744V51.648C231.104 51.84 230.928 52 230.752 52H230.256C230.064 52 229.904 51.84 229.904 51.648V47.744C229.904 46.336 229.488 45.52 228.352 45.52C226.944 45.52 226.08 46.576 226.08 46.576V51.648C226.08 51.84 225.904 52 225.728 52H225.248C225.056 52 224.896 51.84 224.896 51.648ZM234.081 42.704C233.601 42.704 233.217 42.304 233.217 41.84C233.217 41.328 233.601 40.944 234.081 40.944C234.577 40.944 234.961 41.328 234.961 41.84C234.961 42.304 234.577 42.704 234.081 42.704ZM233.521 51.648V44.96C233.521 44.784 233.681 44.608 233.873 44.608H234.353C234.529 44.608 234.705 44.784 234.705 44.96V51.648C234.705 51.84 234.529 52 234.353 52H233.873C233.681 52 233.521 51.84 233.521 51.648ZM237.209 51.648V44.96C237.209 44.784 237.369 44.608 237.561 44.608H237.817C237.977 44.608 238.073 44.672 238.105 44.832L238.265 45.392C238.265 45.392 239.209 44.448 240.745 44.448C242.889 44.448 243.417 45.84 243.417 47.744V51.648C243.417 51.84 243.241 52 243.065 52H242.585C242.393 52 242.233 51.84 242.233 51.648V47.584C242.233 46.176 241.753 45.52 240.665 45.52C239.273 45.52 238.393 46.544 238.393 46.544V51.648C238.393 51.84 238.217 52 238.041 52H237.561C237.369 52 237.209 51.84 237.209 51.648ZM246.57 48.288C246.57 49.888 247.626 51.088 249.034 51.088C250.058 51.088 250.906 50.48 250.906 50.48V46.432C250.906 46.432 250.154 45.536 248.954 45.536C247.482 45.536 246.57 46.848 246.57 48.288ZM252.09 44.96V52.048C252.09 54.576 250.538 55.504 248.858 55.504C247.69 55.504 246.666 54.896 246.282 54.544C246.154 54.432 246.122 54.224 246.202 54.112L246.522 53.648C246.634 53.472 246.826 53.472 247.002 53.632C247.402 53.968 248.042 54.416 248.858 54.416C250.026 54.416 250.922 53.776 250.922 52.048V51.52C250.922 51.52 250.09 52.176 248.874 52.176C246.842 52.176 245.37 50.464 245.37 48.304C245.37 46.192 246.81 44.448 248.826 44.448C250.154 44.448 251.034 45.2 251.034 45.2L251.146 44.864C251.226 44.72 251.306 44.608 251.498 44.608H251.722C251.914 44.608 252.09 44.784 252.09 44.96ZM256.648 52.176C255.416 52.176 254.584 51.632 254.2 51.28C254.12 51.2 254.088 51.088 254.152 50.96L254.376 50.544C254.472 50.368 254.6 50.304 254.808 50.448C255.064 50.64 255.704 51.104 256.648 51.104C257.4 51.104 257.912 50.752 257.912 50.176C257.912 49.472 257.336 49.184 256.264 48.656C255.288 48.176 254.168 47.648 254.168 46.384C254.168 45.616 254.744 44.448 256.456 44.448C257.416 44.448 258.216 44.768 258.568 45.024C258.728 45.152 258.76 45.312 258.648 45.52L258.488 45.824C258.376 46.032 258.136 46.048 257.976 45.952C257.656 45.76 257.144 45.52 256.456 45.52C255.64 45.52 255.368 45.984 255.368 46.336C255.368 46.992 255.88 47.232 256.776 47.648C258.056 48.24 259.16 48.72 259.16 50.064C259.16 51.232 258.152 52.176 256.648 52.176ZM265.008 51.648V41.152C265.008 40.976 265.168 40.8 265.36 40.8H265.84C266.016 40.8 266.192 40.976 266.192 41.152V51.648C266.192 51.84 266.016 52 265.84 52H265.36C265.168 52 265.008 51.84 265.008 51.648ZM269.331 42.704C268.851 42.704 268.467 42.304 268.467 41.84C268.467 41.328 268.851 40.944 269.331 40.944C269.827 40.944 270.211 41.328 270.211 41.84C270.211 42.304 269.827 42.704 269.331 42.704ZM268.771 51.648V44.96C268.771 44.784 268.931 44.608 269.123 44.608H269.603C269.779 44.608 269.955 44.784 269.955 44.96V51.648C269.955 51.84 269.779 52 269.603 52H269.123C268.931 52 268.771 51.84 268.771 51.648ZM272.459 51.648V41.152C272.459 40.976 272.619 40.8 272.811 40.8H273.291C273.467 40.8 273.643 40.976 273.643 41.152V47.408L276.715 44.832C276.875 44.688 277.019 44.608 277.163 44.608H278.059C278.379 44.608 278.363 44.96 278.235 45.056L274.827 47.888L278.491 51.536C278.635 51.664 278.619 52 278.299 52H277.387C277.243 52 277.099 51.92 277.019 51.856L273.643 48.288V51.648C273.643 51.84 273.467 52 273.291 52H272.811C272.619 52 272.459 51.84 272.459 51.648ZM279.37 48.304C279.37 46.224 280.714 44.448 282.954 44.448C284.89 44.448 286.298 45.872 286.298 47.808C286.298 47.936 286.282 48.128 286.266 48.256C286.25 48.448 286.09 48.576 285.93 48.576H280.554C280.586 49.808 281.626 51.104 282.97 51.104C283.946 51.104 284.554 50.768 284.97 50.496C285.226 50.32 285.338 50.256 285.53 50.544L285.722 50.816C285.866 51.04 285.93 51.12 285.658 51.328C285.21 51.68 284.234 52.176 282.954 52.176C280.714 52.176 279.37 50.416 279.37 48.304ZM280.57 47.632H285.114C285.082 46.544 284.218 45.52 282.954 45.52C281.706 45.52 280.714 46.48 280.57 47.632ZM291.668 46.416C291.668 43.216 294.244 40.64 297.444 40.64C299.06 40.64 300.228 41.2 301.316 42.128C301.444 42.256 301.46 42.448 301.332 42.576L300.9 43.008C300.772 43.168 300.644 43.152 300.484 42.992C299.652 42.272 298.596 41.792 297.428 41.792C294.9 41.792 292.964 43.92 292.964 46.4C292.964 48.864 294.9 50.992 297.428 50.992C298.82 50.992 299.636 50.512 300.484 49.792C300.644 49.664 300.772 49.68 300.9 49.808L301.268 50.176C301.396 50.272 301.364 50.496 301.252 50.608C300.196 51.568 298.868 52.16 297.444 52.16C294.244 52.16 291.668 49.616 291.668 46.416ZM302.805 49.76C302.805 48.352 303.861 47.312 305.765 47.312C306.549 47.312 307.349 47.552 307.349 47.552C307.365 46.192 307.189 45.52 306.133 45.52C305.125 45.52 304.277 45.84 303.941 45.952C303.749 46.032 303.653 45.936 303.589 45.76L303.429 45.328C303.365 45.104 303.477 45.008 303.653 44.928C304.021 44.768 304.981 44.448 306.197 44.448C308.085 44.448 308.485 45.376 308.485 47.552V51.648C308.485 51.84 308.325 52 308.133 52H307.829C307.637 52 307.573 51.888 307.525 51.728L307.381 51.232C306.997 51.616 306.229 52.176 305.093 52.176C303.797 52.176 302.805 51.248 302.805 49.76ZM303.973 49.76C303.973 50.512 304.485 51.104 305.301 51.104C306.213 51.104 307.013 50.592 307.333 50.112V48.608C307.093 48.48 306.501 48.32 305.765 48.32C304.741 48.32 303.973 48.816 303.973 49.76ZM310.912 51.648V44.96C310.912 44.784 311.072 44.608 311.264 44.608H311.52C311.664 44.608 311.792 44.688 311.84 44.864L311.968 45.392C311.968 45.392 312.704 44.448 314.24 44.448C314.8 44.448 315.712 44.528 315.536 45.04L315.328 45.616C315.248 45.856 315.072 45.872 314.896 45.792C314.72 45.712 314.448 45.584 314.096 45.584C312.672 45.584 312.096 46.528 312.096 46.528V51.648C312.096 51.84 311.92 52 311.744 52H311.264C311.072 52 310.912 51.84 310.912 51.648ZM316.386 48.304C316.386 46.224 317.73 44.448 319.97 44.448C321.906 44.448 323.314 45.872 323.314 47.808C323.314 47.936 323.298 48.128 323.282 48.256C323.266 48.448 323.106 48.576 322.946 48.576H317.57C317.602 49.808 318.642 51.104 319.986 51.104C320.962 51.104 321.57 50.768 321.986 50.496C322.242 50.32 322.354 50.256 322.546 50.544L322.738 50.816C322.882 51.04 322.946 51.12 322.674 51.328C322.226 51.68 321.25 52.176 319.97 52.176C317.73 52.176 316.386 50.416 316.386 48.304ZM317.586 47.632H322.13C322.098 46.544 321.234 45.52 319.97 45.52C318.722 45.52 317.73 46.48 317.586 47.632ZM325.992 48.288C325.992 49.888 327.048 51.088 328.456 51.088C329.48 51.088 330.328 50.48 330.328 50.48V46.432C330.328 46.432 329.576 45.536 328.376 45.536C326.904 45.536 325.992 46.848 325.992 48.288ZM331.512 44.96V52.048C331.512 54.576 329.96 55.504 328.28 55.504C327.112 55.504 326.088 54.896 325.704 54.544C325.576 54.432 325.544 54.224 325.624 54.112L325.944 53.648C326.056 53.472 326.248 53.472 326.424 53.632C326.824 53.968 327.464 54.416 328.28 54.416C329.448 54.416 330.344 53.776 330.344 52.048V51.52C330.344 51.52 329.512 52.176 328.296 52.176C326.264 52.176 324.792 50.464 324.792 48.304C324.792 46.192 326.232 44.448 328.248 44.448C329.576 44.448 330.456 45.2 330.456 45.2L330.568 44.864C330.648 44.72 330.728 44.608 330.92 44.608H331.144C331.336 44.608 331.512 44.784 331.512 44.96ZM334.566 42.704C334.086 42.704 333.702 42.304 333.702 41.84C333.702 41.328 334.086 40.944 334.566 40.944C335.062 40.944 335.446 41.328 335.446 41.84C335.446 42.304 335.062 42.704 334.566 42.704ZM334.006 51.648V44.96C334.006 44.784 334.166 44.608 334.358 44.608H334.838C335.014 44.608 335.19 44.784 335.19 44.96V51.648C335.19 51.84 335.014 52 334.838 52H334.358C334.166 52 334.006 51.84 334.006 51.648ZM339.981 51.984L336.861 45.024C336.749 44.8 336.861 44.608 337.133 44.608H337.693C337.869 44.608 337.981 44.688 338.029 44.816L340.317 50.256H340.349L342.781 44.816C342.829 44.688 342.941 44.608 343.069 44.608H343.581C343.869 44.608 343.965 44.8 343.869 45.024L340.685 51.984C340.653 52.08 340.557 52.176 340.381 52.176H340.285C340.125 52.176 340.013 52.08 339.981 51.984ZM344.886 48.304C344.886 46.224 346.23 44.448 348.47 44.448C350.406 44.448 351.814 45.872 351.814 47.808C351.814 47.936 351.798 48.128 351.782 48.256C351.766 48.448 351.606 48.576 351.446 48.576H346.07C346.102 49.808 347.142 51.104 348.486 51.104C349.462 51.104 350.07 50.768 350.486 50.496C350.742 50.32 350.854 50.256 351.046 50.544L351.238 50.816C351.382 51.04 351.446 51.12 351.174 51.328C350.726 51.68 349.75 52.176 348.47 52.176C346.23 52.176 344.886 50.416 344.886 48.304ZM346.086 47.632H350.63C350.598 46.544 349.734 45.52 348.47 45.52C347.222 45.52 346.23 46.48 346.086 47.632ZM353.756 51.648V44.96C353.756 44.784 353.916 44.608 354.108 44.608H354.364C354.508 44.608 354.636 44.688 354.684 44.864L354.812 45.392C354.812 45.392 355.548 44.448 357.084 44.448C357.644 44.448 358.556 44.528 358.38 45.04L358.172 45.616C358.092 45.856 357.916 45.872 357.74 45.792C357.564 45.712 357.292 45.584 356.94 45.584C355.516 45.584 354.94 46.528 354.94 46.528V51.648C354.94 51.84 354.764 52 354.588 52H354.108C353.916 52 353.756 51.84 353.756 51.648ZM358.795 51.216C358.795 50.656 359.115 50.24 359.691 50.24C360.475 50.24 360.891 51.024 360.891 52C360.891 53.216 360.363 54.064 359.803 54.672C359.707 54.768 359.627 54.752 359.547 54.688L359.243 54.416C359.131 54.304 359.179 54.208 359.259 54.128C359.707 53.648 360.155 53.056 360.155 52.224C360.155 52.112 360.139 51.984 360.091 51.856C359.979 51.936 359.723 52 359.563 52C359.051 52 358.795 51.568 358.795 51.216ZM367.122 51.696V41.104C367.122 40.944 367.25 40.8 367.426 40.8H373.73C373.906 40.8 374.034 40.944 374.034 41.104V41.568C374.034 41.728 373.906 41.872 373.73 41.872H368.354V46.256H372.946C373.106 46.256 373.25 46.4 373.25 46.56V47.024C373.25 47.184 373.106 47.328 372.946 47.328H368.354V51.696C368.354 51.856 368.21 52 368.05 52H367.426C367.25 52 367.122 51.856 367.122 51.696ZM375.742 51.648V41.152C375.742 40.976 375.902 40.8 376.094 40.8H376.574C376.75 40.8 376.926 40.976 376.926 41.152V51.648C376.926 51.84 376.75 52 376.574 52H376.094C375.902 52 375.742 51.84 375.742 51.648ZM379.026 48.288C379.026 46.208 380.69 44.448 382.738 44.448C384.786 44.448 386.45 46.208 386.45 48.288C386.45 50.4 384.786 52.176 382.738 52.176C380.69 52.176 379.026 50.4 379.026 48.288ZM380.194 48.288C380.194 49.824 381.282 51.104 382.738 51.104C384.194 51.104 385.266 49.824 385.266 48.288C385.266 46.784 384.194 45.52 382.738 45.52C381.282 45.52 380.194 46.784 380.194 48.288ZM387.979 48.288C387.979 46.208 389.643 44.448 391.691 44.448C393.739 44.448 395.403 46.208 395.403 48.288C395.403 50.4 393.739 52.176 391.691 52.176C389.643 52.176 387.979 50.4 387.979 48.288ZM389.147 48.288C389.147 49.824 390.235 51.104 391.691 51.104C393.147 51.104 394.219 49.824 394.219 48.288C394.219 46.784 393.147 45.52 391.691 45.52C390.235 45.52 389.147 46.784 389.147 48.288ZM397.412 51.648V44.96C397.412 44.784 397.572 44.608 397.764 44.608H398.02C398.164 44.608 398.292 44.688 398.34 44.864L398.468 45.392C398.468 45.392 399.204 44.448 400.74 44.448C401.3 44.448 402.212 44.528 402.036 45.04L401.828 45.616C401.748 45.856 401.572 45.872 401.396 45.792C401.22 45.712 400.948 45.584 400.596 45.584C399.172 45.584 398.596 46.528 398.596 46.528V51.648C398.596 51.84 398.42 52 398.244 52H397.764C397.572 52 397.412 51.84 397.412 51.648ZM407.356 51.696V40.928C407.356 40.768 407.5 40.64 407.66 40.64H407.9C408.012 40.64 408.092 40.672 408.156 40.768L415.276 49.632C415.292 49.632 415.292 49.632 415.308 49.632V41.104C415.308 40.944 415.436 40.8 415.612 40.8H416.172C416.332 40.8 416.476 40.944 416.476 41.104V51.872C416.476 52.032 416.332 52.16 416.172 52.16H416.044C415.932 52.16 415.852 52.128 415.788 52.032L408.54 42.992H408.524V51.696C408.524 51.856 408.396 52 408.22 52H407.66C407.5 52 407.356 51.856 407.356 51.696ZM419.051 48.944V44.96C419.051 44.784 419.195 44.608 419.403 44.608H419.883C420.075 44.608 420.235 44.784 420.235 44.96V48.96C420.235 50.432 420.715 51.104 421.787 51.104C422.891 51.104 423.547 50.416 423.883 50.032V44.96C423.883 44.784 424.027 44.608 424.219 44.608H424.715C424.891 44.608 425.051 44.784 425.051 44.96V51.648C425.051 51.84 424.891 52 424.715 52H424.459C424.251 52 424.171 51.872 424.123 51.68L423.979 51.216C423.707 51.504 423.019 52.176 421.691 52.176C419.563 52.176 419.051 50.896 419.051 48.944ZM427.553 51.648V44.96C427.553 44.784 427.713 44.608 427.905 44.608H428.161C428.305 44.608 428.433 44.688 428.481 44.864L428.609 45.392C428.609 45.392 429.345 44.448 430.881 44.448C431.441 44.448 432.353 44.528 432.177 45.04L431.969 45.616C431.889 45.856 431.713 45.872 431.537 45.792C431.361 45.712 431.089 45.584 430.737 45.584C429.313 45.584 428.737 46.528 428.737 46.528V51.648C428.737 51.84 428.561 52 428.385 52H427.905C427.713 52 427.553 51.84 427.553 51.648ZM435.789 52.176C434.557 52.176 433.725 51.632 433.341 51.28C433.261 51.2 433.229 51.088 433.293 50.96L433.517 50.544C433.613 50.368 433.741 50.304 433.949 50.448C434.205 50.64 434.845 51.104 435.789 51.104C436.541 51.104 437.053 50.752 437.053 50.176C437.053 49.472 436.477 49.184 435.405 48.656C434.429 48.176 433.309 47.648 433.309 46.384C433.309 45.616 433.885 44.448 435.597 44.448C436.557 44.448 437.357 44.768 437.709 45.024C437.869 45.152 437.901 45.312 437.789 45.52L437.629 45.824C437.517 46.032 437.277 46.048 437.117 45.952C436.797 45.76 436.285 45.52 435.597 45.52C434.781 45.52 434.509 45.984 434.509 46.336C434.509 46.992 435.021 47.232 435.917 47.648C437.197 48.24 438.301 48.72 438.301 50.064C438.301 51.232 437.293 52.176 435.789 52.176ZM439.761 48.304C439.761 46.224 441.105 44.448 443.345 44.448C445.281 44.448 446.689 45.872 446.689 47.808C446.689 47.936 446.673 48.128 446.657 48.256C446.641 48.448 446.481 48.576 446.321 48.576H440.945C440.977 49.808 442.017 51.104 443.361 51.104C444.337 51.104 444.945 50.768 445.361 50.496C445.617 50.32 445.729 50.256 445.921 50.544L446.113 50.816C446.257 51.04 446.321 51.12 446.049 51.328C445.601 51.68 444.625 52.176 443.345 52.176C441.105 52.176 439.761 50.416 439.761 48.304ZM440.961 47.632H445.505C445.473 46.544 444.609 45.52 443.345 45.52C442.097 45.52 441.105 46.48 440.961 47.632ZM448.295 51.216C448.295 50.656 448.615 50.24 449.191 50.24C449.975 50.24 450.391 51.024 450.391 52C450.391 53.216 449.863 54.064 449.303 54.672C449.207 54.768 449.127 54.752 449.047 54.688L448.743 54.416C448.631 54.304 448.679 54.208 448.759 54.128C449.207 53.648 449.655 53.056 449.655 52.224C449.655 52.112 449.639 51.984 449.591 51.856C449.479 51.936 449.223 52 449.063 52C448.551 52 448.295 51.568 448.295 51.216ZM456.622 51.696V41.104C456.622 40.944 456.75 40.8 456.926 40.8H457.55C457.71 40.8 457.854 40.944 457.854 41.104V50.928H462.462C462.638 50.928 462.766 51.072 462.766 51.232V51.696C462.766 51.856 462.638 52 462.462 52H456.926C456.75 52 456.622 51.856 456.622 51.696ZM464.8 42.704C464.32 42.704 463.936 42.304 463.936 41.84C463.936 41.328 464.32 40.944 464.8 40.944C465.296 40.944 465.68 41.328 465.68 41.84C465.68 42.304 465.296 42.704 464.8 42.704ZM464.24 51.648V44.96C464.24 44.784 464.4 44.608 464.592 44.608H465.072C465.248 44.608 465.424 44.784 465.424 44.96V51.648C465.424 51.84 465.248 52 465.072 52H464.592C464.4 52 464.24 51.84 464.24 51.648ZM467.928 51.648V44.96C467.928 44.784 468.088 44.608 468.28 44.608H468.536C468.696 44.608 468.792 44.672 468.824 44.832L468.984 45.392C468.984 45.392 469.928 44.448 471.464 44.448C473.608 44.448 474.136 45.84 474.136 47.744V51.648C474.136 51.84 473.96 52 473.784 52H473.304C473.112 52 472.952 51.84 472.952 51.648V47.584C472.952 46.176 472.472 45.52 471.384 45.52C469.992 45.52 469.112 46.544 469.112 46.544V51.648C469.112 51.84 468.936 52 468.76 52H468.28C468.088 52 467.928 51.84 467.928 51.648ZM476.089 48.304C476.089 46.224 477.433 44.448 479.673 44.448C481.609 44.448 483.017 45.872 483.017 47.808C483.017 47.936 483.001 48.128 482.985 48.256C482.969 48.448 482.809 48.576 482.649 48.576H477.273C477.305 49.808 478.345 51.104 479.689 51.104C480.665 51.104 481.273 50.768 481.689 50.496C481.945 50.32 482.057 50.256 482.249 50.544L482.441 50.816C482.585 51.04 482.649 51.12 482.377 51.328C481.929 51.68 480.953 52.176 479.673 52.176C477.433 52.176 476.089 50.416 476.089 48.304ZM477.289 47.632H481.833C481.801 46.544 480.937 45.52 479.673 45.52C478.425 45.52 477.433 46.48 477.289 47.632ZM488.387 46.416C488.387 43.216 490.963 40.64 494.163 40.64C495.779 40.64 496.947 41.2 498.035 42.128C498.163 42.256 498.179 42.448 498.051 42.576L497.619 43.008C497.491 43.168 497.363 43.152 497.203 42.992C496.371 42.272 495.315 41.792 494.147 41.792C491.619 41.792 489.683 43.92 489.683 46.4C489.683 48.864 491.619 50.992 494.147 50.992C495.539 50.992 496.355 50.512 497.203 49.792C497.363 49.664 497.491 49.68 497.619 49.808L497.987 50.176C498.115 50.272 498.083 50.496 497.971 50.608C496.915 51.568 495.587 52.16 494.163 52.16C490.963 52.16 488.387 49.616 488.387 46.416ZM499.51 48.288C499.51 46.208 501.174 44.448 503.222 44.448C505.27 44.448 506.934 46.208 506.934 48.288C506.934 50.4 505.27 52.176 503.222 52.176C501.174 52.176 499.51 50.4 499.51 48.288ZM500.678 48.288C500.678 49.824 501.766 51.104 503.222 51.104C504.678 51.104 505.75 49.824 505.75 48.288C505.75 46.784 504.678 45.52 503.222 45.52C501.766 45.52 500.678 46.784 500.678 48.288ZM508.463 48.288C508.463 46.208 510.127 44.448 512.175 44.448C514.223 44.448 515.887 46.208 515.887 48.288C515.887 50.4 514.223 52.176 512.175 52.176C510.127 52.176 508.463 50.4 508.463 48.288ZM509.631 48.288C509.631 49.824 510.719 51.104 512.175 51.104C513.631 51.104 514.703 49.824 514.703 48.288C514.703 46.784 513.631 45.52 512.175 45.52C510.719 45.52 509.631 46.784 509.631 48.288ZM517.896 51.648V41.152C517.896 40.976 518.056 40.8 518.248 40.8H518.728C518.904 40.8 519.08 40.976 519.08 41.152V47.408L522.152 44.832C522.312 44.688 522.456 44.608 522.6 44.608H523.496C523.816 44.608 523.8 44.96 523.672 45.056L520.264 47.888L523.928 51.536C524.072 51.664 524.056 52 523.736 52H522.824C522.68 52 522.536 51.92 522.456 51.856L519.08 48.288V51.648C519.08 51.84 518.904 52 518.728 52H518.248C518.056 52 517.896 51.84 517.896 51.648ZM525.31 51.216C525.31 50.656 525.63 50.24 526.206 50.24C526.99 50.24 527.406 51.024 527.406 52C527.406 53.216 526.878 54.064 526.318 54.672C526.222 54.768 526.142 54.752 526.062 54.688L525.758 54.416C525.646 54.304 525.694 54.208 525.774 54.128C526.222 53.648 526.67 53.056 526.67 52.224C526.67 52.112 526.654 51.984 526.606 51.856C526.494 51.936 526.238 52 526.078 52C525.566 52 525.31 51.568 525.31 51.216ZM532.886 48.304C532.886 46.224 534.23 44.448 536.47 44.448C538.406 44.448 539.814 45.872 539.814 47.808C539.814 47.936 539.798 48.128 539.782 48.256C539.766 48.448 539.606 48.576 539.446 48.576H534.07C534.102 49.808 535.142 51.104 536.486 51.104C537.462 51.104 538.07 50.768 538.486 50.496C538.742 50.32 538.854 50.256 539.046 50.544L539.238 50.816C539.382 51.04 539.446 51.12 539.174 51.328C538.726 51.68 537.75 52.176 536.47 52.176C534.23 52.176 532.886 50.416 532.886 48.304ZM534.086 47.632H538.63C538.598 46.544 537.734 45.52 536.47 45.52C535.222 45.52 534.23 46.48 534.086 47.632ZM542.236 45.632H541.26C541.036 45.632 540.892 45.472 540.892 45.28V44.96C540.892 44.752 541.036 44.608 541.26 44.608H542.236V42.56C542.236 42.368 542.412 42.224 542.588 42.208L543.084 42.176C543.276 42.16 543.42 42.336 543.42 42.528V44.608H545.596C545.804 44.608 545.964 44.752 545.964 44.96V45.28C545.964 45.472 545.804 45.632 545.596 45.632H543.42V50.048C543.42 50.816 543.66 51.104 544.076 51.104C544.764 51.104 545.228 50.816 545.532 50.624C545.82 50.448 545.916 50.592 545.996 50.768L546.14 51.104C546.236 51.344 546.204 51.456 546.012 51.584C545.692 51.808 544.924 52.176 543.932 52.176C542.524 52.176 542.236 51.28 542.236 50.128V45.632ZM547.338 48.32C547.338 46.144 548.938 44.448 551.082 44.448C552.186 44.448 553.082 44.88 553.77 45.664C553.914 45.84 553.882 46.048 553.706 46.192L553.45 46.432C553.21 46.64 553.066 46.48 552.922 46.32C552.41 45.744 551.818 45.52 551.066 45.52C549.658 45.52 548.538 46.768 548.538 48.304C548.538 49.872 549.642 51.104 551.018 51.104C552.138 51.104 552.618 50.528 553.034 50.048C553.242 49.808 553.45 49.872 553.658 50.08L553.754 50.176C553.914 50.336 553.978 50.496 553.85 50.688C553.29 51.504 552.298 52.176 551.066 52.176C548.874 52.176 547.338 50.544 547.338 48.32ZM555.466 51.104C555.466 50.528 555.93 50.064 556.506 50.064C557.098 50.064 557.562 50.528 557.562 51.104C557.562 51.68 557.098 52.176 556.506 52.176C555.93 52.176 555.466 51.68 555.466 51.104Z" fill="#919FB4"/>
</svg>
