<svg width="16" height="16" viewBox="0 0 16 16" fill="none" xmlns="http://www.w3.org/2000/svg">
<path d="M12.2006 0.433594H2.12103C1.1972 0.433594 0.44043 1.18896 0.44043 2.11314V13.872C0.44043 14.7973 1.1972 15.5526 2.12103 15.5526H13.8801C14.803 15.5526 15.5598 14.7973 15.5598 13.872V3.79247L12.2006 0.433594ZM8.0002 13.872C6.5715 13.872 5.48009 12.7819 5.48009 11.3523C5.48009 9.92484 6.5715 8.83218 8.0002 8.83218C9.42857 8.83218 10.5199 9.92484 10.5199 11.3523C10.5199 12.7819 9.42857 13.872 8.0002 13.872ZM10.5199 5.4731H2.11998V2.11314H10.5199V5.4731Z" fill="#03BF10"/>
</svg>
