<svg viewBox="0 0 22 23" fill="none" xmlns="http://www.w3.org/2000/svg">
<path d="M15.6462 13.0365C15.282 13.0364 14.9303 12.9047 14.6551 12.6661C14.3799 12.4274 14.1997 12.0977 14.1467 11.7373C14.0938 11.3768 14.1716 11.0092 14.3662 10.7012C14.5609 10.3932 14.8597 10.1653 15.2084 10.0596C15.5572 9.95398 15.9322 9.97786 16.2649 10.1268C16.5974 10.2757 16.865 10.5396 17.0194 10.8696C17.1737 11.1996 17.2048 11.5741 17.107 11.925C17.0093 12.2757 16.7893 12.58 16.4863 12.7821C16.2377 12.9483 15.9453 13.0369 15.6462 13.0365ZM15.6462 13.0365L15.6468 12.5365M15.6462 13.0365L15.6468 12.5365M15.6462 13.0365C15.6464 13.0365 15.6466 13.0365 15.6469 13.0365L15.6468 12.5365M15.6462 13.0365L15.6468 12.5365M8.87144 19.6725C8.50724 19.6723 8.15555 19.5407 7.88042 19.3021C7.60517 19.0634 7.42495 18.7336 7.37203 18.3732C7.3191 18.0128 7.39688 17.6451 7.59151 17.3372C7.78617 17.0292 8.08493 16.8012 8.4337 16.6956C8.7825 16.5899 9.15752 16.6138 9.49014 16.7627C9.82271 16.9117 10.0903 17.1755 10.2447 17.5055C10.399 17.8355 10.4301 18.21 10.3323 18.5609C10.2346 18.9116 10.0145 19.2159 9.71163 19.418C9.46294 19.5842 9.17058 19.6728 8.87144 19.6725ZM8.87144 19.6725L8.87211 19.1725M8.87144 19.6725L8.87211 19.1725M8.87144 19.6725C8.87168 19.6725 8.87191 19.6725 8.87214 19.6725L8.87211 19.1725M8.87144 19.6725L8.87211 19.1725M8.94303 4.18416L9.05564 4.52892H9.41832H19.5423C19.6335 4.52892 19.7215 4.56531 19.7867 4.63084C19.852 4.69644 19.8891 4.78591 19.8891 4.87968C19.8891 4.97345 19.852 5.06292 19.7867 5.12852C19.7215 5.19405 19.6335 5.23044 19.5423 5.23044H9.41832H9.05564L8.94303 5.5752C8.7976 6.02046 8.51604 6.40779 8.13896 6.68218C7.76192 6.95655 7.30854 7.10409 6.84351 7.10409C6.37848 7.10409 5.92509 6.95655 5.54805 6.68218C5.17097 6.40779 4.88941 6.02046 4.74398 5.5752L4.63138 5.23044H4.26869H2.26676C2.17552 5.23044 2.08755 5.19405 2.02232 5.12852C1.95702 5.06292 1.91992 4.97345 1.91992 4.87968C1.91992 4.78591 1.95702 4.69644 2.02232 4.63084C2.08755 4.56531 2.17552 4.52892 2.26676 4.52892H4.26869H4.63138L4.74398 4.18416C4.88941 3.7389 5.17097 3.35158 5.54805 3.07718C5.92509 2.80281 6.37848 2.65527 6.84351 2.65527C7.30854 2.65527 7.76192 2.80281 8.13896 3.07718C8.51604 3.35158 8.7976 3.7389 8.94303 4.18416ZM5.85181 6.03022C6.12694 6.26882 6.47863 6.40045 6.84284 6.40059C7.14192 6.40099 7.43422 6.31239 7.68287 6.14623C7.98586 5.94418 8.20597 5.63983 8.3037 5.28905C8.40146 4.93815 8.37041 4.56363 8.21608 4.23366C8.06172 3.90364 7.79411 3.63982 7.46154 3.49088C7.12892 3.34193 6.7539 3.31805 6.40509 3.42372C6.05633 3.52937 5.75757 3.75731 5.5629 4.06531C5.36828 4.37325 5.2905 4.74092 5.34342 5.10132C5.39635 5.46175 5.57657 5.79151 5.85181 6.03022ZM17.7464 10.8201L17.859 11.1649H18.2216H19.5423C19.6335 11.1649 19.7215 11.2012 19.7867 11.2668C19.852 11.3324 19.8891 11.4218 19.8891 11.5156C19.8891 11.6094 19.852 11.6988 19.7867 11.7645C19.7215 11.83 19.6335 11.8664 19.5423 11.8664H18.2216H17.859L17.7464 12.2111C17.6009 12.6564 17.3194 13.0437 16.9423 13.3181C16.5652 13.5925 16.1119 13.74 15.6468 13.74C15.1818 13.74 14.7284 13.5925 14.3514 13.3181C13.9743 13.0437 13.6927 12.6564 13.5473 12.2111L13.4347 11.8664H13.072H2.26676C2.17552 11.8664 2.08755 11.83 2.02232 11.7645C1.95702 11.6988 1.91992 11.6094 1.91992 11.5156C1.91992 11.4218 1.95702 11.3324 2.02232 11.2668C2.08755 11.2012 2.17552 11.1649 2.26676 11.1649H13.072H13.4347L13.5473 10.8201C13.6927 10.3748 13.9743 9.98751 14.3514 9.71311C14.7284 9.43874 15.1818 9.2912 15.6468 9.2912C16.1119 9.2912 16.5652 9.43874 16.9423 9.71311C17.3194 9.98751 17.6009 10.3748 17.7464 10.8201ZM10.9716 17.456L11.0842 17.8008H11.4469H19.5423C19.6335 17.8008 19.7215 17.8372 19.7867 17.9027C19.852 17.9683 19.8891 18.0578 19.8891 18.1515C19.8891 18.2453 19.852 18.3348 19.7867 18.4004C19.7215 18.4659 19.6335 18.5023 19.5423 18.5023H11.4469H11.0842L10.9716 18.8471C10.8262 19.2923 10.5446 19.6796 10.1676 19.954C9.79052 20.2284 9.33714 20.3759 8.87211 20.3759C8.40708 20.3759 7.9537 20.2284 7.57665 19.954C7.19957 19.6796 6.91802 19.2923 6.77259 18.8471L6.65998 18.5023H6.29729H2.26676C2.17552 18.5023 2.08755 18.4659 2.02232 18.4004C1.95702 18.3348 1.91992 18.2453 1.91992 18.1515C1.91992 18.0578 1.95702 17.9683 2.02232 17.9027C2.08755 17.8372 2.17552 17.8008 2.26676 17.8008H6.29729H6.65998L6.77259 17.456C6.91802 17.0108 7.19958 16.6234 7.57665 16.349C7.9537 16.0747 8.40708 15.9271 8.87211 15.9271C9.33714 15.9271 9.79052 16.0747 10.1676 16.349C10.5446 16.6234 10.8262 17.0108 10.9716 17.456Z" fill="currentColor" stroke="#919FB4"/>
</svg>
