<svg width="20" height="20" viewBox="0 0 20 20" fill="none" xmlns="http://www.w3.org/2000/svg">
<path d="M13.1668 12.1085L13.1998 12.1385L17.7958 16.7345C17.8436 16.7806 17.8817 16.8358 17.9079 16.8968C17.9341 16.9578 17.9479 17.0234 17.9484 17.0898C17.949 17.1562 17.9364 17.222 17.9112 17.2835C17.8861 17.3449 17.849 17.4007 17.802 17.4477C17.7551 17.4946 17.6992 17.5317 17.6378 17.5569C17.5763 17.582 17.5105 17.5947 17.4441 17.5941C17.3777 17.5935 17.3121 17.5797 17.2511 17.5535C17.1901 17.5273 17.1349 17.4892 17.0888 17.4415L12.4928 12.8455C12.4915 12.8445 12.4901 12.8435 12.4888 12.8425C11.5883 13.6737 10.4633 14.2219 9.25378 14.4188C8.04421 14.6157 6.80344 14.4527 5.68579 13.95C4.56815 13.4473 3.62295 12.6271 2.96775 11.5915C2.31256 10.5558 1.97629 9.35044 2.00076 8.12519C2.02523 6.89995 2.40937 5.70893 3.10539 4.70028C3.80142 3.69163 4.77862 2.90985 5.91544 2.45219C7.05227 1.99453 8.29856 1.88118 9.4993 2.12623C10.7 2.37129 11.8022 2.96394 12.6688 3.83047C12.7599 3.92477 12.8103 4.05108 12.8092 4.18217C12.808 4.31327 12.7554 4.43868 12.6627 4.53138C12.57 4.62409 12.4446 4.67667 12.3135 4.67781C12.1824 4.67895 12.0561 4.62855 11.9618 4.53747C11.0558 3.63244 9.85018 3.08978 8.57195 3.01164C7.29371 2.93349 6.03099 3.32524 5.02145 4.11316C4.01191 4.90108 3.32517 6.03082 3.09048 7.28976C2.8558 8.54869 3.08937 9.84999 3.74721 10.9487C4.40506 12.0475 5.44181 12.8679 6.66235 13.2555C7.88289 13.6432 9.20303 13.5714 10.3743 13.0536C11.5456 12.5358 12.4872 11.6077 13.022 10.4441C13.5567 9.28047 13.6477 7.96151 13.2778 6.73547C13.259 6.67257 13.2527 6.60657 13.2594 6.54124C13.266 6.47592 13.2855 6.41254 13.3166 6.35474C13.3478 6.29693 13.39 6.24583 13.4409 6.20435C13.4918 6.16287 13.5504 6.13182 13.6133 6.11297C13.6762 6.09413 13.7422 6.08786 13.8075 6.09452C13.8729 6.10118 13.9362 6.12065 13.9941 6.1518C14.0519 6.18295 14.103 6.22519 14.1444 6.27609C14.1859 6.32699 14.217 6.38557 14.2358 6.44847C14.4328 7.10547 14.5208 7.79147 14.4958 8.47847C14.4492 9.79883 13.9837 11.0701 13.1668 12.1085Z" fill="#9DA7B2"/>
</svg>
