<svg width="inherit" height="inherit" viewBox="0 0 15 16" fill="none" xmlns="http://www.w3.org/2000/svg">
<path d="M6.46875 1.74609C7.17578 1.74609 7.86133 1.88477 8.50781 2.1582C9.13086 2.42188 9.69141 2.80078 10.1738 3.28125C10.6562 3.76172 11.0332 4.32227 11.2969 4.94727C11.5703 5.5918 11.709 6.2793 11.709 6.98633C11.709 7.69336 11.5703 8.37891 11.2969 9.02539C11.0332 9.64844 10.6543 10.209 10.1738 10.6914C9.69336 11.1719 9.13281 11.5508 8.50781 11.8145C7.86328 12.0879 7.17578 12.2266 6.46875 12.2266C5.76172 12.2266 5.07617 12.0879 4.42969 11.8145C3.80664 11.5508 3.24609 11.1719 2.76367 10.6914C2.2832 10.2109 1.9043 9.65039 1.64062 9.02539C1.36719 8.38086 1.22852 7.69336 1.22852 6.98633C1.22852 6.2793 1.36719 5.59375 1.64062 4.94727C1.9043 4.32422 2.2832 3.76367 2.76367 3.28125C3.24414 2.79883 3.80469 2.42188 4.42969 2.1582C5.07617 1.88477 5.76172 1.74609 6.46875 1.74609ZM6.46875 0.769531C3.03711 0.769531 0.253906 3.55273 0.253906 6.98437C0.253906 10.416 3.03711 13.1992 6.46875 13.1992C9.90039 13.1992 12.6836 10.416 12.6836 6.98437C12.6836 3.55273 9.90234 0.769531 6.46875 0.769531ZM10.1564 11.8483L10.847 11.1578L14.5275 14.8383L13.837 15.5288L10.1564 11.8483Z" fill="currentColor"/>
</svg>
