<svg viewBox="0 0 29 29" fill="none" xmlns="http://www.w3.org/2000/svg">
<path d="M24.0457 19.937C24.4082 19.8162 24.7707 19.8162 25.0124 20.1787L25.1332 20.2995L28.154 25.9787C28.3957 26.3412 28.154 26.8245 27.9124 26.9454C27.5499 27.0662 27.1874 27.0662 26.9457 26.7037L26.704 26.5829L23.6832 20.9037C23.5624 20.5412 23.6832 20.0579 24.0457 19.937ZM18.6082 2.05371C13.7749 2.05371 9.78737 6.04121 9.78737 10.8745C9.78737 15.7079 13.7749 19.6954 18.6082 19.6954C23.4415 19.6954 27.429 15.7079 27.429 10.8745C27.429 6.04121 23.4415 2.05371 18.6082 2.05371ZM18.6082 3.50371C22.7165 3.50371 25.979 6.76621 25.979 10.8745C25.979 14.9829 22.7165 18.1245 18.6082 18.1245C14.4999 18.1245 11.2374 14.862 11.2374 10.7537C11.2374 6.64538 14.6207 3.50371 18.6082 3.50371ZM9.1832 18.3662H1.69154C1.2082 18.3662 0.845703 18.0037 0.845703 17.5204C0.845703 17.1579 1.08737 16.7954 1.5707 16.6745H8.0957C8.4582 17.2787 8.8207 17.762 9.1832 18.3662ZM6.52487 10.7537V11.5995H1.69154C1.2082 11.5995 0.845703 11.237 0.845703 10.7537C0.845703 10.3912 1.08737 10.0287 1.5707 9.90788H6.52487V10.7537ZM8.0957 4.95371H1.69154C1.2082 4.95371 0.845703 4.59121 0.845703 4.10788C0.845703 3.74538 1.08737 3.38288 1.5707 3.26204H9.1832C8.8207 3.74538 8.4582 4.34954 8.0957 4.95371ZM20.6624 23.562C21.0249 23.562 21.3874 23.9245 21.3874 24.287C21.3874 24.6495 21.1457 24.8912 20.7832 25.012H1.69154C1.32904 25.012 0.966536 24.6495 0.966536 24.287C0.966536 23.9245 1.2082 23.6829 1.5707 23.562H20.6624Z" fill="currentColor" stroke="black" stroke-width="1"/>
</svg>