<svg viewBox="0 0 16 16" fill="none" xmlns="http://www.w3.org/2000/svg">
<g clip-path="url(#clip0_13301_25483)">
<path d="M7.17296 1.7275L6.65981 3.09861C6.64222 3.14556 6.61465 3.18785 6.57911 3.22237C6.54357 3.25689 6.50097 3.28276 6.45444 3.29809C6.02483 3.43974 5.61576 3.64047 5.23829 3.89485C5.19778 3.92214 5.15189 3.93982 5.10394 3.94661C5.05599 3.9534 5.00717 3.94914 4.96101 3.93413L3.58389 3.48607C3.18736 3.875 2.84155 4.31533 2.55513 4.79602L3.28782 6.05687C3.33902 6.14553 3.34828 6.25326 3.3126 6.34978C3.15392 6.77907 3.05337 7.22883 3.01381 7.68638C3.00946 7.73688 2.9941 7.78571 2.96887 7.82924C2.94364 7.87277 2.90919 7.90987 2.86809 7.93776L1.66801 8.75196C1.72031 9.32038 1.84505 9.8672 2.03272 10.3832L3.46486 10.5874C3.51297 10.5943 3.55898 10.6122 3.59955 10.6397C3.64011 10.6672 3.67422 10.7037 3.69937 10.7465C3.93175 11.1413 4.21486 11.502 4.54101 11.8188C4.57679 11.8536 4.60447 11.8964 4.62196 11.9438C4.63946 11.9912 4.64633 12.0421 4.64206 12.0926L4.51949 13.5544C4.98272 13.8629 5.4829 14.1081 6.00747 14.2838L7.05775 13.2713C7.0931 13.2372 7.13537 13.2116 7.18148 13.1965C7.2276 13.1813 7.27641 13.1768 7.3244 13.1835C7.77275 13.2449 8.22703 13.2449 8.67537 13.1835C8.72336 13.1768 8.77218 13.1813 8.81829 13.1965C8.86441 13.2116 8.90667 13.2372 8.94203 13.2713L9.9923 14.2838C10.5169 14.1081 11.0171 13.8629 11.4803 13.5544L11.3577 12.0926C11.3535 12.0421 11.3604 11.9912 11.3779 11.9438C11.3955 11.8963 11.4232 11.8536 11.459 11.8188C11.7851 11.502 12.0681 11.1413 12.3004 10.7465C12.3256 10.7037 12.3597 10.6672 12.4002 10.6397C12.4408 10.6122 12.4868 10.5943 12.5349 10.5874L13.9671 10.3832C14.158 9.85836 14.2807 9.30988 14.332 8.75196L13.1317 7.93776C13.0906 7.90987 13.0561 7.87277 13.0309 7.82924C13.0057 7.78571 12.9903 7.73688 12.986 7.68638C12.9464 7.22883 12.8459 6.77907 12.6872 6.34978C12.6696 6.30218 12.6627 6.25109 12.667 6.20036C12.6714 6.14962 12.6868 6.10056 12.7122 6.05687L13.4449 4.79602C13.1584 4.31521 12.8125 3.87478 12.4159 3.48579L11.0388 3.93413C10.9926 3.94914 10.9438 3.9534 10.8958 3.94661C10.8479 3.93982 10.802 3.92214 10.7615 3.89485C10.384 3.64046 9.97495 3.43973 9.54534 3.29809C9.49881 3.28276 9.45621 3.25689 9.42067 3.22237C9.38513 3.18785 9.35755 3.14556 9.33997 3.09861L8.82681 1.72722C8.27777 1.65475 7.722 1.65475 7.17296 1.72722V1.7275ZM6.88588 1.0895C7.25438 1.02976 7.62685 0.99983 7.99989 1C8.37876 1 8.75082 1.03086 9.1139 1.08978C9.17052 1.09895 9.22381 1.1233 9.26841 1.16038C9.31301 1.19746 9.34737 1.24597 9.36802 1.30104L9.89452 2.70891C10.2761 2.84697 10.6423 3.02672 10.9867 3.24507L12.3998 2.7855C12.454 2.76781 12.5118 2.765 12.5674 2.77735C12.623 2.7897 12.6745 2.81678 12.7169 2.85593C13.2696 3.36714 13.7394 3.96602 14.1087 4.62993C14.1375 4.68178 14.1525 4.74061 14.1519 4.80037C14.1514 4.86012 14.1354 4.91866 14.1057 4.96997L13.3529 6.26561C13.4822 6.6483 13.5729 7.04922 13.6206 7.46333L14.8528 8.29941C14.9509 8.3659 15.0067 8.48149 14.9994 8.60242C14.9519 9.36353 14.7847 10.1116 14.5042 10.8175C14.4825 10.872 14.4473 10.9198 14.4021 10.9559C14.3568 10.992 14.3032 11.0153 14.2465 11.0234L12.776 11.233C12.5587 11.5801 12.306 11.9023 12.0223 12.1942L12.1481 13.6949C12.1531 13.7541 12.1427 13.8135 12.1181 13.8672C12.0935 13.9209 12.0556 13.967 12.0081 14.0007C11.3937 14.4371 10.7157 14.7698 9.99966 14.9863C9.94511 15.0029 9.88733 15.0044 9.83201 14.9909C9.7767 14.9774 9.72577 14.9492 9.68425 14.9092L8.60619 13.8703C8.2031 13.914 7.79667 13.914 7.39358 13.8703L6.31553 14.9092C6.27401 14.9492 6.22308 14.9774 6.16776 14.9909C6.11245 15.0044 6.05467 15.0029 6.00012 14.9863C5.28414 14.7699 4.60624 14.4373 3.9919 14.001C3.94432 13.9673 3.90628 13.9211 3.88164 13.8673C3.857 13.8135 3.84664 13.7539 3.85163 13.6946L3.97747 12.1942C3.69376 11.9024 3.44111 11.5803 3.22381 11.2333L1.75326 11.0234C1.69662 11.0153 1.64304 10.992 1.59787 10.9558C1.5527 10.9197 1.51753 10.872 1.49587 10.8175C1.21532 10.1116 1.04808 9.36335 1.00069 8.60214C0.996938 8.54283 1.00849 8.48355 1.03418 8.43033C1.05987 8.37711 1.09878 8.33184 1.14696 8.29913L2.37918 7.46305C2.42684 7.04922 2.51754 6.6483 2.64692 6.26561L1.89408 4.96997C1.86433 4.91866 1.84837 4.86012 1.84784 4.80037C1.84731 4.74061 1.86224 4.68178 1.89108 4.62993C2.26036 3.96602 2.73022 3.36714 3.28291 2.85593C3.32522 2.81683 3.37668 2.78978 3.43223 2.77743C3.48778 2.76508 3.5455 2.76786 3.59969 2.7855L5.01276 3.24507C5.35722 3.02678 5.72338 2.84713 6.10498 2.70919L6.63175 1.30104C6.65237 1.24592 6.68671 1.19735 6.73131 1.16022C6.77592 1.12308 6.82922 1.0987 6.88588 1.0895ZM8.09821 5.63518C6.77911 5.63518 5.71658 6.72208 5.71658 8.05448C5.71658 9.38659 6.77883 10.4738 8.09821 10.4738C9.41759 10.4738 10.4801 9.38659 10.4801 8.05448C10.4801 6.72208 9.41759 5.63518 8.09821 5.63518ZM5.06288 8.05448C5.06288 6.34248 6.42557 4.96183 8.09821 4.96183C9.77086 4.96183 11.1338 6.3422 11.1338 8.05448C11.1338 9.76619 9.77086 11.1471 8.09821 11.1471C6.42584 11.1471 5.06288 9.76619 5.06288 8.05448Z" fill="#919FB4" stroke="#919FB4" stroke-width="0.4"/>
</g>
<defs>
<clipPath id="clip0_13301_25483">
<rect width="16" height="16" fill="white"/>
</clipPath>
</defs>
</svg>
