<svg width="28" height="28" viewBox="0 0 28 28" fill="none" xmlns="http://www.w3.org/2000/svg">
<path d="M17.9375 13.4934C16.149 13.4934 14.5854 14.4857 13.7594 15.9522L11.8571 15.0133C12.3305 14.3921 12.6131 13.6142 12.6131 12.7716C12.6131 12.2194 12.4924 11.6962 12.2754 11.2254L15.7535 9.71869C16.0366 10.1155 16.4103 10.439 16.8436 10.6624C17.2769 10.8859 17.7572 11.0027 18.2446 11.0032C19.9404 11.0032 21.3203 9.61281 21.3203 7.90394C21.3203 6.19506 19.9404 4.80469 18.2455 4.80469C16.5498 4.80469 15.1708 6.19506 15.1708 7.90394C15.1708 8.14019 15.197 8.37031 15.2469 8.59169L11.5631 10.1894C11.2244 9.8399 10.8189 9.56197 10.3706 9.37214C9.92243 9.1823 9.44065 9.08442 8.95389 9.08431C6.93701 9.08431 5.29639 10.7381 5.29639 12.7716C5.29639 14.8051 6.93701 16.4588 8.95389 16.4588C9.66001 16.4588 10.3198 16.2558 10.8789 15.9058L13.2948 17.0993C13.1915 17.4931 13.1364 17.9061 13.1364 18.3322C13.1364 21.0009 15.2906 23.1718 17.9375 23.1718C20.5853 23.1718 22.7404 21.0009 22.7404 18.3322C22.7404 15.6643 20.5853 13.4934 17.9375 13.4934ZM18.2455 5.79344C18.8029 5.79622 19.3365 6.01997 19.7292 6.41561C20.1219 6.81126 20.3417 7.3465 20.3403 7.90394C20.3417 8.46138 20.1219 8.99662 19.7292 9.39226C19.3365 9.78791 18.8029 10.0117 18.2455 10.0144C17.6882 10.0117 17.1547 9.78788 16.7621 9.39221C16.3696 8.99654 16.15 8.4613 16.1516 7.90394C16.1498 7.34651 16.3693 6.81113 16.7619 6.41541C17.1545 6.01969 17.6881 5.79599 18.2455 5.79344ZM17.9375 21.9363C15.9661 21.9363 14.3623 20.3193 14.3623 18.3331C14.3623 16.3451 15.9661 14.7281 17.9375 14.7281C19.9098 14.7281 21.5136 16.3451 21.5136 18.3331C21.5136 20.3193 19.9098 21.9363 17.9375 21.9363Z" fill="white"/>
</svg>
