<svg width="14" height="14" viewBox="0 0 14 14" fill="none" xmlns="http://www.w3.org/2000/svg">
<path d="M6.77344 12.5601C6.42149 12.2102 6.14245 11.7939 5.95249 11.3353C5.76253 10.8768 5.66542 10.3851 5.66677 9.88881C5.66547 9.39249 5.7626 8.90084 5.95256 8.4423C6.14252 7.98377 6.42153 7.56746 6.77344 7.21747C7.1234 6.86558 7.53967 6.58658 7.99816 6.39662C8.45665 6.20666 8.94827 6.10952 9.44455 6.11081C9.94087 6.10954 10.4325 6.20669 10.891 6.39664C11.3496 6.5866 11.7659 6.86559 12.1159 7.21747C12.4678 7.56749 12.7468 7.9838 12.9367 8.44232C13.1267 8.90085 13.2238 9.39249 13.2226 9.88881C13.2238 10.3851 13.1267 10.8767 12.9367 11.3352C12.7468 11.7937 12.4678 12.21 12.1159 12.5599C11.7659 12.9118 11.3496 13.1908 10.8911 13.3808C10.4325 13.5708 9.94087 13.6679 9.44455 13.6666C8.44233 13.6693 7.48011 13.271 6.77344 12.5601ZM9.00011 8.11103V9.88881C9.00011 9.97281 9.02389 10.0553 9.069 10.1261C9.08109 10.197 9.11017 10.2638 9.15375 10.3209C9.19732 10.3781 9.2541 10.4238 9.31922 10.4541L10.5277 11.0177C10.5863 11.0453 10.6503 11.0595 10.7152 11.0595C10.7998 11.0592 10.8826 11.0349 10.9539 10.9895C11.0253 10.944 11.0822 10.8792 11.1181 10.8026C11.1683 10.6959 11.1737 10.5737 11.1332 10.4628C11.0932 10.3517 11.0106 10.2615 10.9034 10.2119L9.889 9.73881V8.11103C9.889 7.99316 9.84217 7.88011 9.75882 7.79676C9.67547 7.71341 9.56243 7.66659 9.44455 7.66659C9.32668 7.66659 9.21363 7.71341 9.13028 7.79676C9.04693 7.88011 9.00011 7.99316 9.00011 8.11103ZM6.70389 13.6666H1.44455C1.2089 13.6663 0.982974 13.5725 0.816338 13.4059C0.649703 13.2393 0.555958 13.0134 0.555664 12.7777V1.22214C0.555664 0.986393 0.649315 0.7603 0.816014 0.593601C0.982713 0.426902 1.2088 0.333252 1.44455 0.333252H10.7779C11.0136 0.333252 11.2397 0.426902 11.4064 0.593601C11.5731 0.7603 11.6668 0.986393 11.6668 1.22214V5.78414C10.9842 5.41518 10.2205 5.22204 9.44455 5.22214C6.86855 5.22525 4.781 7.31281 4.77789 9.88881C4.77925 10.6256 4.95439 11.3517 5.28908 12.0081C5.62377 12.6645 6.10857 13.2327 6.70411 13.6666H6.70389ZM2.77789 6.33325C2.77789 6.39162 2.78938 6.44941 2.81172 6.50333C2.83405 6.55726 2.86679 6.60625 2.90806 6.64752C2.94933 6.68879 2.99833 6.72153 3.05225 6.74387C3.10617 6.7662 3.16397 6.7777 3.22233 6.7777H5.00011C5.05847 6.7777 5.11627 6.7662 5.17019 6.74387C5.22411 6.72153 5.27311 6.68879 5.31438 6.64752C5.35565 6.60625 5.38839 6.55726 5.41072 6.50333C5.43306 6.44941 5.44455 6.39162 5.44455 6.33325C5.44455 6.27489 5.43306 6.21709 5.41072 6.16317C5.38839 6.10925 5.35565 6.06025 5.31438 6.01898C5.27311 5.97771 5.22411 5.94497 5.17019 5.92264C5.11627 5.9003 5.05847 5.88881 5.00011 5.88881H3.22233C3.10446 5.88881 2.99141 5.93563 2.90806 6.01898C2.82471 6.10233 2.77789 6.21538 2.77789 6.33325ZM2.77789 3.66658C2.77789 3.78446 2.82471 3.89751 2.90806 3.98085C2.99141 4.0642 3.10446 4.11103 3.22233 4.11103H9.00011C9.11798 4.11103 9.23103 4.0642 9.31438 3.98085C9.39773 3.89751 9.44455 3.78446 9.44455 3.66658C9.44455 3.54871 9.39773 3.43566 9.31438 3.35232C9.23103 3.26897 9.11798 3.22214 9.00011 3.22214H3.22233C3.16397 3.22214 3.10617 3.23364 3.05225 3.25597C2.99833 3.27831 2.94933 3.31104 2.90806 3.35232C2.86679 3.39359 2.83405 3.44258 2.81172 3.4965C2.78938 3.55043 2.77789 3.60822 2.77789 3.66658Z" fill="#FC8A8A"/>
</svg>
