<svg viewBox="0 0 23 22" fill="none" xmlns="http://www.w3.org/2000/svg">
<path d="M12.9484 11.025C13.8579 10.5641 14.9892 9.99031 14.9892 8.43609C14.9892 6.66545 13.4694 5.42871 11.2928 5.42871C9.70939 5.42871 8.31424 6.34074 7.82149 7.69816C7.70796 8.01098 7.61015 8.53053 7.70699 8.96641C7.76566 9.22948 8.02684 9.39444 8.28783 9.33665C8.55002 9.27771 8.71477 9.01649 8.65639 8.75314C8.61698 8.57565 8.65069 8.266 8.73523 8.03286C9.02923 7.22297 9.93398 6.40592 11.2927 6.40592C12.8966 6.40592 14.0166 7.24064 14.0166 8.43611C14.0166 9.34309 13.4442 9.67931 12.5105 10.1528C11.6974 10.5651 10.6853 11.0783 10.6853 12.3463V13.5553C10.6853 13.8252 10.9029 14.0441 11.1717 14.0441C11.4405 14.0441 11.658 13.8252 11.658 13.5553V12.3463C11.658 11.7105 12.1245 11.443 12.9484 11.025Z" fill="currentColor" stroke="currentColor" stroke-width="0.4"/>
<path d="M11.1719 16.1867C10.8803 16.1867 10.6424 15.949 10.6424 15.6538C10.6424 15.3586 10.8803 15.1209 11.1719 15.1209C11.4634 15.1209 11.7014 15.3587 11.7014 15.6538C11.7014 15.949 11.4635 16.1867 11.1719 16.1867Z" fill="currentColor" stroke="currentColor" stroke-width="0.4"/>
<path d="M20.7469 10.9208C20.7469 5.79388 16.6099 1.6377 11.5061 1.6377C6.40262 1.63722 2.26562 5.79332 2.26562 10.9208C2.26562 16.0479 6.40266 20.2041 11.5064 20.2041C13.6013 20.2041 15.5204 19.4879 17.0702 18.3079C17.1339 18.2355 17.1758 18.1427 17.1758 18.0385C17.1758 17.8112 16.9923 17.6269 16.7661 17.6269C16.6483 17.6269 16.5437 17.6738 16.4697 17.7531H16.4639C15.0771 18.7786 13.3697 19.3926 11.5157 19.3926C6.89455 19.3926 3.14782 15.628 3.14782 10.9854C3.14782 6.34233 6.89455 2.57876 11.5157 2.57876C16.1374 2.57876 19.8837 6.34233 19.8837 10.9854C19.8837 12.4036 19.5528 13.7381 18.9353 14.9108V14.9177C18.9242 14.9567 18.9115 14.9949 18.9115 15.037C18.9115 15.2643 19.0949 15.4486 19.3212 15.4486C19.4968 15.4486 19.6443 15.3351 19.7022 15.1782V15.1811C20.3591 13.9038 20.7469 12.4583 20.7469 10.9208Z" fill="currentColor" stroke="currentColor" stroke-width="0.6"/>
</svg>
