<svg width="10" height="6" viewBox="0 0 10 6" fill="none" xmlns="http://www.w3.org/2000/svg">
<path d="M5.11289 5.13288L8.83901 1.39231C8.95261 1.27824 9.02996 1.13293 9.0613 0.974728C9.09264 0.81653 9.07655 0.652556 9.01506 0.503537C8.95358 0.354518 8.84947 0.227144 8.71589 0.137517C8.5823 0.0478899 8.42525 3.44402e-05 8.26458 0H0.812326C0.651654 3.44402e-05 0.4946 0.0478899 0.361017 0.137517C0.227434 0.227144 0.123321 0.354518 0.0618387 0.503537C0.000356786 0.652556 -0.0157334 0.81653 0.0156028 0.974728C0.0469389 1.13293 0.124294 1.27824 0.237889 1.39231L3.96401 5.13288C4.11638 5.28579 4.32301 5.37169 4.53845 5.37169C4.7539 5.37169 4.96052 5.28579 5.11289 5.13288Z" fill="currentColor"/>
</svg>
