<svg width="10" height="6" viewBox="0 0 10 6" fill="none" xmlns="http://www.w3.org/2000/svg">
<path opacity="currentOpacity" d="M3.96426 0.238701L0.238135 3.97927C0.12454 4.09334 0.0471839 4.23866 0.0158481 4.39686C-0.0154877 4.55505 0.000602665 4.71903 0.0620842 4.86805C0.123566 5.01706 0.227679 5.14444 0.361262 5.23407C0.494845 5.32369 0.6519 5.37155 0.812572 5.37158L8.26482 5.37158C8.42549 5.37155 8.58255 5.32369 8.71613 5.23407C8.84971 5.14444 8.95383 5.01706 9.01531 4.86804C9.07679 4.71903 9.09288 4.55505 9.06155 4.39685C9.03021 4.23866 8.95285 4.09334 8.83926 3.97927L5.11313 0.238701C4.96077 0.0857905 4.75414 -0.000110248 4.5387 -0.000110229C4.32325 -0.000110211 4.11662 0.0857906 3.96426 0.238701Z" fill="currentColor"/>
</svg>
