<svg  viewBox="0 0 26 27" fill="none" xmlns="http://www.w3.org/2000/svg">
<path d="M13.5743 6.80335L17.3004 10.5452C17.414 10.6593 17.4914 10.8047 17.5227 10.9629C17.5541 11.1212 17.538 11.2852 17.4765 11.4343C17.415 11.5833 17.3109 11.7108 17.1773 11.8004C17.0437 11.8901 16.8867 11.9379 16.726 11.938H9.27375C9.11308 11.9379 8.95603 11.8901 8.82244 11.8004C8.68886 11.7108 8.58475 11.5833 8.52326 11.4343C8.46178 11.2852 8.44569 11.1212 8.47703 10.9629C8.50836 10.8047 8.58572 10.6593 8.69932 10.5452L12.4254 6.80335C12.5778 6.65038 12.7844 6.56445 12.9999 6.56445C13.2153 6.56445 13.4219 6.65038 13.5743 6.80335ZM13.5743 20.3363L17.3004 16.5945C17.414 16.4804 17.4914 16.335 17.5227 16.1768C17.5541 16.0185 17.538 15.8545 17.4765 15.7054C17.415 15.5563 17.3109 15.4289 17.1773 15.3393C17.0437 15.2496 16.8867 15.2017 16.726 15.2017H9.27375C9.11308 15.2017 8.95603 15.2496 8.82244 15.3393C8.68886 15.4289 8.58475 15.5563 8.52326 15.7054C8.46178 15.8545 8.44569 16.0185 8.47703 16.1768C8.50836 16.335 8.58572 16.4804 8.69932 16.5945L12.4254 20.3363C12.5778 20.4893 12.7844 20.5752 12.9999 20.5752C13.2153 20.5752 13.4219 20.4893 13.5743 20.3363Z" fill="currentColor"/>
</svg>
