<svg  viewBox="0 0 24 22" fill="none" xmlns="http://www.w3.org/2000/svg">
<path d="M18.5566 13.8653C18.8157 15.0743 19.0443 16.1685 19.2425 17.148C19.334 17.5612 19.4178 17.9744 19.494 18.3876C19.5702 18.8008 19.6426 19.1757 19.7112 19.5124C19.7798 19.8491 19.837 20.1361 19.8827 20.3733C19.9285 20.6105 19.9589 20.7597 19.9742 20.8209C20.0199 21.127 19.9513 21.3298 19.7684 21.4292C19.5855 21.5287 19.3797 21.5784 19.151 21.5784C19.0748 21.5784 18.9643 21.5517 18.8195 21.4981C18.6747 21.4445 18.5642 21.4025 18.488 21.3718L12.5202 17.8826C11.4379 18.5253 10.4547 19.0992 9.57058 19.6042C9.1895 19.8185 8.81222 20.0328 8.43876 20.247C8.0653 20.4613 7.72613 20.6602 7.42127 20.8439C7.1164 21.0275 6.85345 21.1805 6.63242 21.303C6.41139 21.4254 6.26277 21.5019 6.18655 21.5325C6.03412 21.6091 5.87787 21.6358 5.71782 21.6129C5.55776 21.5899 5.41295 21.5325 5.28338 21.4407C5.15381 21.3489 5.05854 21.2379 4.99757 21.1079C4.9366 20.9778 4.92135 20.8439 4.95184 20.7061C4.96708 20.6449 5.00519 20.4957 5.06616 20.2585C5.12714 20.0213 5.19573 19.7382 5.27195 19.4091C5.34817 19.0801 5.43582 18.7166 5.5349 18.3187C5.63398 17.9208 5.73687 17.5153 5.84358 17.1021C6.07223 16.1532 6.33136 15.082 6.62099 13.8883C5.72163 13.1078 4.91373 12.4114 4.19729 11.7993C3.89243 11.5391 3.59137 11.2828 3.29412 11.0303C2.99688 10.7777 2.73012 10.5482 2.49384 10.3416C2.25757 10.135 2.06322 9.96664 1.91079 9.83656C1.75835 9.70648 1.67451 9.63378 1.65927 9.61848C1.47635 9.45014 1.32011 9.26266 1.19054 9.05606C1.06097 8.84946 1.01143 8.63903 1.04191 8.42478C1.0724 8.21052 1.15624 8.04218 1.29343 7.91975C1.43062 7.79732 1.58305 7.7208 1.75073 7.69019L8.81604 7.04743L11.4455 0.895276C11.537 0.650414 11.6665 0.439986 11.8342 0.263992C12.0019 0.0879972 12.2306 0 12.5202 0C12.6726 0 12.806 0.0344337 12.9203 0.103301C13.0346 0.172168 13.1299 0.252514 13.2061 0.344337C13.2823 0.43616 13.3471 0.527983 13.4005 0.619806C13.4538 0.71163 13.4958 0.788149 13.5262 0.849364L16.0871 7.00152L23.1524 7.66724C23.4573 7.74375 23.6707 7.83558 23.7927 7.94271C23.9146 8.04983 23.9756 8.21817 23.9756 8.44773C23.9756 8.66199 23.9108 8.84946 23.7812 9.01015C23.6516 9.17084 23.4878 9.36596 23.2896 9.59552L18.5566 13.8653Z" fill="currentColor"/>
</svg>
