<svg viewBox="0 0 16 16" fill="none" xmlns="http://www.w3.org/2000/svg">
<path d="M13.7219 7.50008C13.7936 7.4983 13.8641 7.51962 13.9229 7.56093C13.9818 7.60224 14.026 7.66138 14.0491 7.72974L14.9846 10.5355C15.0039 10.5951 15.0051 10.659 14.988 10.7193C14.971 10.7795 14.9364 10.8332 14.8888 10.8735L11.4366 13.9101C11.3732 13.9686 11.2901 14.0008 11.2041 14C11.1187 14.0011 11.0361 13.9698 10.9726 13.9122L7.51724 10.8735C7.4706 10.8323 7.4369 10.7782 7.42027 10.718C7.40364 10.6578 7.40479 10.594 7.42359 10.5344L8.35795 7.72866C8.38302 7.66153 8.42793 7.60373 8.48663 7.56306C8.54533 7.52239 8.615 7.50079 8.68627 7.50117H13.7219V7.50008ZM7.12865 1.06194C8.39778 1.3046 9.24925 2.08026 9.61955 3.32282C9.98877 4.58272 9.65184 5.6812 8.73578 6.61718C8.09207 7.278 7.28904 7.5055 6.40527 7.473C4.10598 7.3755 2.27386 9.08714 1.80884 11.1064C1.74425 11.3653 1.71196 11.6383 1.69473 11.8973C1.66244 12.5429 2.06503 12.947 2.70767 12.9632L6.53337 13.012C6.77449 13.012 6.99947 13.0445 6.99947 13.3348C6.99947 13.6576 6.75835 13.6891 6.51722 13.6891C5.15013 13.6728 3.76905 13.6566 2.40196 13.6241C1.56556 13.61 0.955215 12.8831 1.00258 11.9796C1.13175 9.71763 2.25664 8.10349 4.28252 7.11875C4.42676 7.05376 4.571 6.98876 4.74862 6.92376C3.23728 5.6487 2.93157 3.77673 4.0091 2.33917C4.78091 1.28835 5.82507 0.821446 7.12865 1.06194ZM8.95 8.12515L8.14266 10.5344L11.1739 13.2557L14.2763 10.5648L13.5077 8.15657L8.95 8.12407V8.12515ZM12.5453 9.91046C12.5836 9.92231 12.6181 9.94404 12.6454 9.97348C12.6727 10.0029 12.6919 10.0391 12.7011 10.0783C12.7102 10.1175 12.709 10.1584 12.6975 10.197C12.6861 10.2356 12.6648 10.2705 12.6358 10.2983L11.4086 11.4488C11.3887 11.4702 11.3645 11.487 11.3375 11.4982C11.3106 11.5094 11.2816 11.5147 11.2525 11.5138C11.2237 11.5138 11.1952 11.508 11.1686 11.4968C11.142 11.4857 11.1178 11.4694 11.0975 11.4488L9.87251 10.2994C9.83398 10.2564 9.81287 10.2005 9.81336 10.1427C9.81386 10.0848 9.83593 10.0293 9.8752 9.98704C9.91447 9.94479 9.96807 9.91893 10.0254 9.91458C10.0827 9.91023 10.1396 9.9277 10.1847 9.96354L11.2536 10.9656L12.3214 9.96246C12.3509 9.93473 12.3871 9.91532 12.4264 9.90619C12.4658 9.89706 12.5068 9.89853 12.5453 9.91046ZM6.56459 1.69351C5.15013 1.74226 4.04139 2.90358 4.07369 4.30972C4.12213 5.69853 5.29438 6.82843 6.67654 6.77968C8.0587 6.73093 9.16851 5.53603 9.13622 4.14722C9.08778 2.792 7.89831 1.66101 6.56459 1.69351Z" fill="#919FB4" stroke="#919FB4" stroke-width="0.4"/>
</svg>
