<svg width="16" height="16" viewBox="0 0 16 16" fill="none" xmlns="http://www.w3.org/2000/svg">
<path d="M7.98714 0.500977C3.85645 0.500977 0.507812 3.84963 0.507812 7.98041C0.507812 12.1111 3.85647 15.4597 7.98714 15.4597C12.1179 15.4597 15.4666 12.1111 15.4666 7.98041C15.4666 3.84963 12.1179 0.500977 7.98714 0.500977ZM11.7006 11.6937C11.6148 11.7795 11.5024 11.8224 11.3902 11.8224C11.2778 11.8224 11.1654 11.7795 11.0797 11.6937L7.5482 8.1622V3.69609C7.5482 3.45345 7.74492 3.25695 7.98723 3.25695C8.22966 3.25695 8.42637 3.45346 8.42637 3.69609V7.79862L11.7006 11.0728C11.8721 11.2441 11.8721 11.5223 11.7006 11.6938V11.6937Z" fill="#3FBD6B"/>
</svg>
