<svg width="16" height="16" viewBox="0 0 16 16" fill="none" xmlns="http://www.w3.org/2000/svg">
<g clip-path="url(#clip0_2386_28819)">
<path d="M12.1379 7.72404C11.0201 7.72404 10.0028 8.1428 9.22538 8.82749H2.75862C2.61229 8.82749 2.47196 8.88562 2.36849 8.98909C2.26502 9.09256 2.2069 9.23289 2.2069 9.37922C2.2069 9.52554 2.26502 9.66588 2.36849 9.76935C2.47196 9.87281 2.61229 9.93094 2.75862 9.93094H8.31945C8.1195 10.2764 7.96783 10.6477 7.86869 11.0344H2.75862C2.61231 11.0344 2.472 11.0926 2.36855 11.196C2.2651 11.2995 2.20699 11.4398 2.20699 11.5861C2.20699 11.7324 2.2651 11.8727 2.36855 11.9762C2.472 12.0797 2.61231 12.1378 2.75862 12.1378H7.72414C7.72401 12.7647 7.85788 13.3844 8.1168 13.9553C8.37572 14.5263 8.75369 15.0353 9.22538 15.4482H1.65517C1.21619 15.4482 0.795194 15.2738 0.484789 14.9634C0.174384 14.653 0 14.232 0 13.793L0 6.6206H15.4483V9.22529C15.0354 8.7536 14.5264 8.37563 13.9554 8.11671C13.3845 7.85779 12.7648 7.72391 12.1379 7.72404ZM0 2.75853C0 2.31955 0.174384 1.89855 0.484789 1.58814C0.795194 1.27774 1.21619 1.10336 1.65517 1.10336H3.31034V3.31025C3.31038 3.60288 3.42665 3.88351 3.63358 4.09042C3.84052 4.29733 4.12116 4.41357 4.41379 4.41357C4.70642 4.41357 4.98707 4.29733 5.194 4.09042C5.40094 3.88351 5.51721 3.60288 5.51724 3.31025V1.10336H9.93103V3.31025C9.93107 3.60288 10.0473 3.88351 10.2543 4.09042C10.4612 4.29733 10.7419 4.41357 11.0345 4.41357C11.3271 4.41357 11.6078 4.29733 11.8147 4.09042C12.0216 3.88351 12.1379 3.60288 12.1379 3.31025V1.10336H13.7931C14.2321 1.10336 14.6531 1.27774 14.9635 1.58814C15.2739 1.89855 15.4483 2.31955 15.4483 2.75853V6.06887H0V2.75853ZM11.0345 3.31025C10.8882 3.31025 10.7478 3.25212 10.6444 3.14866C10.5409 3.04519 10.4828 2.90485 10.4828 2.75853V0.551631C10.4828 0.405321 10.5409 0.265012 10.6444 0.161563C10.7479 0.0581152 10.8882 0 11.0345 0C11.1808 0 11.3211 0.0581152 11.4246 0.161563C11.528 0.265012 11.5862 0.405321 11.5862 0.551631V2.75853C11.5862 2.90485 11.5281 3.04519 11.4246 3.14866C11.3211 3.25212 11.1808 3.31025 11.0345 3.31025ZM4.41379 3.31025C4.26747 3.31025 4.12713 3.25212 4.02367 3.14866C3.9202 3.04519 3.86207 2.90485 3.86207 2.75853V0.551631C3.86209 0.405321 3.92023 0.265012 4.0237 0.161563C4.12716 0.0581152 4.26748 0 4.41379 0C4.5601 0 4.70042 0.0581152 4.80389 0.161563C4.90735 0.265012 4.96549 0.405321 4.96552 0.551631V2.75853C4.96552 2.90485 4.90739 3.04519 4.80392 3.14866C4.70045 3.25212 4.56012 3.31025 4.41379 3.31025ZM12.1379 8.27577C13.1622 8.27577 14.1445 8.68266 14.8688 9.40694C15.5931 10.1312 16 11.1136 16 12.1378C16 13.1621 15.5931 14.1445 14.8688 14.8687C14.1445 15.593 13.1622 15.9999 12.1379 15.9999C11.1136 15.9999 10.1313 15.593 9.40704 14.8687C8.68276 14.1445 8.27586 13.1621 8.27586 12.1378C8.27586 11.1136 8.68276 10.1312 9.40704 9.40694C10.1313 8.68266 11.1136 8.27577 12.1379 8.27577ZM11.5862 11.5861V12.6896H13.7931C13.9394 12.6896 14.0798 12.6314 14.1832 12.528C14.2867 12.4245 14.3448 12.2842 14.3448 12.1378C14.3448 11.9915 14.2867 11.8512 14.1832 11.7477C14.0798 11.6442 13.9394 11.5861 13.7931 11.5861H12.6897V10.4827C12.6897 10.3363 12.6315 10.196 12.5281 10.0925C12.4246 9.98907 12.2843 9.93094 12.1379 9.93094C11.9916 9.93094 11.8513 9.98907 11.7478 10.0925C11.6443 10.196 11.5862 10.3363 11.5862 10.4827V11.5861Z" fill="#FAAA5E"/>
</g>
<defs>
<clipPath id="clip0_2386_28819">
<rect width="16" height="16" fill="white"/>
</clipPath>
</defs>
</svg>
