<svg viewBox="0 0 20 20" fill="none" xmlns="http://www.w3.org/2000/svg">
<g clip-path="url(#clip0_2507_64198)">
<path d="M8.22799 4.82499C8.42292 4.82499 8.60987 4.74349 8.74771 4.59841C8.88555 4.45334 8.96299 4.25658 8.96299 4.05142V1.64563C8.96299 1.44047 8.88555 1.24371 8.74771 1.09864C8.60987 0.953571 8.42292 0.87207 8.22799 0.87207C8.03305 0.87207 7.8461 0.953571 7.70827 1.09864C7.57043 1.24371 7.49299 1.44047 7.49299 1.64563V4.05142C7.49299 4.25658 7.57043 4.45334 7.70827 4.59841C7.8461 4.74349 8.03305 4.82499 8.22799 4.82499ZM5.31529 4.82499C5.51022 4.82499 5.69717 4.74349 5.83501 4.59841C5.97285 4.45334 6.05029 4.25658 6.05029 4.05142V2.16282C6.05029 1.95766 5.97285 1.7609 5.83501 1.61583C5.69717 1.47075 5.51022 1.38925 5.31529 1.38925C5.12035 1.38925 4.9334 1.47075 4.79556 1.61583C4.65773 1.7609 4.58029 1.95766 4.58029 2.16282V4.05142C4.58029 4.25658 4.65773 4.45334 4.79556 4.59841C4.9334 4.74349 5.12035 4.82499 5.31529 4.82499ZM11.1144 4.82499C11.3094 4.82499 11.4963 4.74349 11.6342 4.59841C11.772 4.45334 11.8494 4.25658 11.8494 4.05142V2.16282C11.8494 2.06123 11.8304 1.96064 11.7935 1.86679C11.7566 1.77293 11.7024 1.68766 11.6342 1.61583C11.5659 1.54399 11.4849 1.48701 11.3957 1.44814C11.3065 1.40926 11.211 1.38925 11.1144 1.38925C11.0179 1.38925 10.9223 1.40926 10.8332 1.44814C10.744 1.48701 10.663 1.54399 10.5947 1.61583C10.5265 1.68766 10.4723 1.77293 10.4354 1.86679C10.3984 1.96064 10.3794 2.06123 10.3794 2.16282V4.05142C10.3794 4.25658 10.4569 4.45334 10.5947 4.59841C10.7326 4.74349 10.9195 4.82499 11.1144 4.82499ZM16.4453 8.70607V6.81415C16.4453 6.60899 16.3679 6.41223 16.23 6.26716C16.0922 6.12209 15.9052 6.04059 15.7103 6.04059H1.03969C0.844754 6.04059 0.657803 6.12209 0.519964 6.26716C0.382125 6.41223 0.304688 6.60899 0.304688 6.81415V10.8698C0.305667 12.372 0.685212 13.8471 1.40461 15.1445C2.124 16.4419 3.1575 17.5153 4.39969 18.2552H2.63464C2.4397 18.2552 2.25275 18.3367 2.11491 18.4817C1.97707 18.6268 1.89964 18.8236 1.89964 19.0287C1.89964 19.2339 1.97707 19.4307 2.11491 19.5757C2.25275 19.7208 2.4397 19.8023 2.63464 19.8023H14.1846C14.3796 19.8023 14.5665 19.7208 14.7044 19.5757C14.8422 19.4307 14.9196 19.2339 14.9196 19.0287C14.9196 18.8236 14.8422 18.6268 14.7044 18.4817C14.5665 18.3367 14.3796 18.2552 14.1846 18.2552H12.3503C13.7192 17.4358 14.8322 16.2152 15.5538 14.7421C15.7519 14.7868 15.9539 14.8094 16.1565 14.8095C16.9003 14.8059 17.6145 14.5025 18.1522 13.9616C18.6899 13.4208 19.0102 12.6836 19.0472 11.9017C19.0842 11.1198 18.8351 10.3528 18.3511 9.75839C17.8671 9.16396 17.1851 8.78737 16.4453 8.70607ZM8.37289 17.8153C6.62327 17.8136 4.9458 17.0812 3.70873 15.779C2.47166 14.4769 1.77608 12.7113 1.77469 10.8698V7.58772H14.9753V10.8698C14.9753 10.987 14.9753 11.103 14.9669 11.2179C14.9669 11.2533 14.9616 11.2865 14.9595 11.3207C14.9595 11.4025 14.9501 11.4832 14.9427 11.5638C14.9427 11.6036 14.9333 11.6434 14.9291 11.6832C14.9207 11.7572 14.9123 11.8313 14.9018 11.9042C14.8955 11.9473 14.8881 11.9904 14.8808 12.0335C14.8692 12.102 14.8587 12.1716 14.8461 12.2391C14.8367 12.2866 14.8262 12.3341 14.8157 12.3805C14.8052 12.4269 14.7894 12.5065 14.7747 12.5695C14.76 12.6325 14.7485 12.67 14.7348 12.7209C14.7212 12.7717 14.7054 12.8314 14.6886 12.8933C14.6718 12.9551 14.6561 13.0038 14.6393 13.0513C14.6225 13.0988 14.6057 13.1618 14.5868 13.2148C14.5679 13.2679 14.5511 13.3154 14.5322 13.3662C14.0521 14.6754 13.2069 15.8011 12.1075 16.5952C11.0082 17.3893 9.70624 17.8147 8.37289 17.8153ZM16.1513 13.2646H16.1145C16.1355 13.1861 16.1555 13.1077 16.1754 13.0281L16.188 12.9828C16.2174 12.8612 16.2437 12.7397 16.2678 12.6159C16.2741 12.586 16.2804 12.5551 16.2857 12.5242C16.3046 12.4225 16.3224 12.3208 16.3382 12.2181L16.3508 12.1363C16.3686 12.0092 16.3844 11.8821 16.397 11.7539C16.397 11.734 16.397 11.713 16.4022 11.6931C16.4117 11.5826 16.4201 11.4721 16.4253 11.3616C16.4253 11.3285 16.4253 11.2942 16.4306 11.2599C16.4369 11.1306 16.44 11.0002 16.44 10.8698V10.2687C16.7899 10.3429 17.1011 10.5515 17.3129 10.8538C17.5247 11.1562 17.6221 11.5307 17.5861 11.9044C17.5501 12.2781 17.3832 12.6244 17.118 12.8758C16.8528 13.1272 16.5082 13.2658 16.1513 13.2646Z" fill="currentColor"/>
<path d="M13.2405 10.12C13.1262 9.95393 12.954 9.84235 12.7617 9.80982C12.5693 9.77728 12.3725 9.82646 12.2146 9.94654C11.9626 10.1377 10.6081 11.0395 8.64462 10.0173C5.93247 8.60275 3.77682 10.5068 3.68652 10.5886C3.54473 10.7237 3.45857 10.9117 3.44633 11.1126C3.4341 11.3135 3.49675 11.5115 3.62099 11.6645C3.74524 11.8176 3.92127 11.9136 4.11172 11.9323C4.30217 11.9509 4.49203 11.8907 4.64097 11.7644C4.70292 11.7114 6.16662 10.4516 7.99152 11.4031C8.74938 11.8148 9.58834 12.0339 10.4412 12.0429C11.377 12.0485 12.2924 11.7549 13.0662 11.2008C13.1452 11.142 13.2124 11.0674 13.264 10.9812C13.3155 10.895 13.3504 10.799 13.3666 10.6985C13.3828 10.5981 13.38 10.4953 13.3584 10.396C13.3367 10.2968 13.2966 10.203 13.2405 10.12Z" fill="currentColor"/>
</g>
<defs>
<clipPath id="clip0_2507_64198">
<rect width="20" height="20" fill="currentColor" transform="translate(0 0.000976562)"/>
</clipPath>
</defs>
</svg>
