<svg width="inherit" height="inherit" viewBox="0 0 10 6" fill="none" xmlns="http://www.w3.org/2000/svg">
<path d="M8.99127 5.73222C8.92948 5.73231 8.86827 5.72017 8.81119 5.69651C8.7541 5.67285 8.70226 5.63812 8.65865 5.59434L4.99977 1.93621L1.34102 5.59446C1.15727 5.77821 0.859648 5.77821 0.675898 5.59446C0.492148 5.41071 0.492148 5.11309 0.675898 4.92934L4.66715 0.93859C4.71079 0.894902 4.76261 0.860245 4.81965 0.836598C4.87669 0.812952 4.93784 0.800781 4.99959 0.800781C5.06134 0.800781 5.12248 0.812952 5.17952 0.836598C5.23656 0.860245 5.28838 0.894902 5.33202 0.93859L9.32377 4.92934C9.38964 4.99508 9.43451 5.07888 9.45271 5.17014C9.47091 5.26139 9.46162 5.356 9.42602 5.44197C9.39041 5.52794 9.33009 5.60142 9.2527 5.65309C9.17531 5.70475 9.08433 5.73229 8.99127 5.73222Z" fill="currentColor"/>
</svg>
