<svg width="inherit" height="inherit" viewBox="0 0 18 20" fill="none" xmlns="http://www.w3.org/2000/svg">
<path d="M12.937 9.49252C11.1485 9.49252 9.5849 10.4848 8.7589 11.9513L6.85665 11.0124C7.33002 10.3911 7.61265 9.61327 7.61265 8.77065C7.61265 8.21852 7.4919 7.69527 7.2749 7.22452L10.753 5.71777C11.0361 6.11459 11.4099 6.43813 11.8431 6.66153C12.2764 6.88493 12.7567 7.00175 13.2441 7.00227C14.9399 7.00227 16.3198 5.6119 16.3198 3.90302C16.3198 2.19415 14.9399 0.803772 13.245 0.803772C11.5493 0.803772 10.1703 2.19415 10.1703 3.90302C10.1703 4.13927 10.1965 4.3694 10.2464 4.59077L6.56265 6.18852C6.22389 5.83899 5.81837 5.56106 5.37015 5.37122C4.92194 5.18138 4.44016 5.08351 3.9534 5.0834C1.93652 5.0834 0.295898 6.73715 0.295898 8.77065C0.295898 10.8041 1.93652 12.4579 3.9534 12.4579C4.65952 12.4579 5.31927 12.2549 5.8784 11.9049L8.29427 13.0984C8.19102 13.4921 8.1359 13.9051 8.1359 14.3313C8.1359 17 10.2901 19.1709 12.937 19.1709C15.5848 19.1709 17.7399 17 17.7399 14.3313C17.7399 11.6634 15.5848 9.49252 12.937 9.49252ZM13.245 1.79252C13.8025 1.7953 14.336 2.01905 14.7287 2.4147C15.1214 2.81034 15.3412 3.34558 15.3398 3.90302C15.3412 4.46046 15.1214 4.9957 14.7287 5.39135C14.336 5.78699 13.8025 6.01074 13.245 6.01352C12.6877 6.01074 12.1542 5.78697 11.7616 5.3913C11.3691 4.99563 11.1495 4.46038 11.1511 3.90302C11.1493 3.34559 11.3688 2.81022 11.7614 2.41449C12.154 2.01877 12.6876 1.79507 13.245 1.79252ZM12.937 17.9354C10.9656 17.9354 9.36177 16.3184 9.36177 14.3321C9.36177 12.3441 10.9656 10.7271 12.937 10.7271C14.9093 10.7271 16.5131 12.3441 16.5131 14.3321C16.5131 16.3184 14.9093 17.9354 12.937 17.9354Z" fill="currentColor"/>
</svg>
