<svg viewBox="0 0 16 16" fill="none" xmlns="http://www.w3.org/2000/svg">
<path d="M8.50398 10.999C8.50398 10.4057 8.67993 9.82568 9.00957 9.33234C9.33922 8.83899 9.80775 8.45447 10.3559 8.22741C10.9041 8.00035 11.5073 7.94094 12.0893 8.05669C12.6712 8.17245 13.2057 8.45817 13.6253 8.87773C14.0449 9.29728 14.3306 9.83183 14.4463 10.4138C14.5621 10.9957 14.5027 11.5989 14.2756 12.1471C14.0486 12.6953 13.664 13.1638 13.1707 13.4935C12.6773 13.8231 12.0973 13.999 11.504 13.999C10.7083 13.999 9.94527 13.683 9.38266 13.1204C8.82005 12.5578 8.50398 11.7947 8.50398 10.999ZM12.297 12.326C12.3314 12.3638 12.3731 12.3942 12.4197 12.4154C12.4662 12.4366 12.5165 12.4481 12.5676 12.4493C12.6187 12.4505 12.6695 12.4413 12.717 12.4223C12.7644 12.4033 12.8075 12.3748 12.8436 12.3387C12.8798 12.3026 12.9082 12.2595 12.9272 12.212C12.9462 12.1646 12.9554 12.1138 12.9542 12.0627C12.9531 12.0116 12.9415 11.9612 12.9203 11.9147C12.8992 11.8682 12.8688 11.8265 12.831 11.792L12.031 10.999L12.831 10.199C12.8688 10.1646 12.8992 10.1229 12.9203 10.0764C12.9415 10.0299 12.9531 9.97952 12.9542 9.92843C12.9554 9.87733 12.9462 9.82652 12.9272 9.77907C12.9082 9.73163 12.8798 9.68853 12.8436 9.65239C12.8075 9.61625 12.7644 9.58781 12.717 9.5688C12.6695 9.54979 12.6187 9.5406 12.5676 9.54178C12.5165 9.54296 12.4662 9.55449 12.4197 9.57568C12.3731 9.59687 12.3314 9.62727 12.297 9.66505L11.504 10.465L10.704 9.66505C10.6321 9.59955 10.5378 9.56427 10.4406 9.56652C10.3434 9.56877 10.2508 9.60838 10.1821 9.67713C10.1133 9.74588 10.0737 9.83847 10.0715 9.93567C10.0692 10.0329 10.1045 10.1272 10.17 10.199L10.97 10.999L10.17 11.792C10.1045 11.8639 10.0692 11.9582 10.0715 12.0554C10.0737 12.1526 10.1133 12.2452 10.1821 12.314C10.2508 12.3827 10.3434 12.4223 10.4406 12.4246C10.5378 12.4268 10.6321 12.3915 10.704 12.326L11.504 11.526L12.297 12.326ZM6.21598 12.996V9.93405C6.2179 9.82895 6.25289 9.72712 6.31598 9.64305L10.934 3.25705L2.68798 6.97305L4.56798 7.87305C4.68725 7.93068 4.77877 8.03329 4.82246 8.15835C4.86614 8.2834 4.85842 8.42068 4.80098 8.54005C4.76031 8.62495 4.69651 8.69664 4.6169 8.74688C4.53729 8.79712 4.44512 8.82387 4.35098 8.82405C4.27452 8.82479 4.19902 8.80694 4.13098 8.77205L1.28998 7.41005C1.20343 7.36816 1.1308 7.3022 1.08078 7.22008C1.03077 7.13796 1.00549 7.04317 1.00798 6.94705C1.00827 6.85293 1.03594 6.76094 1.08761 6.68228C1.13928 6.60362 1.21272 6.54169 1.29898 6.50405L12.299 1.54305C12.364 1.51343 12.4346 1.49809 12.506 1.49805C12.6002 1.49829 12.6923 1.5261 12.771 1.57805C12.8416 1.6235 12.8998 1.68574 12.9405 1.75921C12.9811 1.83268 13.003 1.91508 13.004 1.99905V7.83705C12.6876 7.68742 12.3505 7.58628 12.004 7.53705V3.48505L7.22098 10.1V13C7.22098 13.1327 7.1683 13.2598 7.07453 13.3536C6.98077 13.4474 6.85359 13.5 6.72098 13.5C6.58837 13.5 6.46119 13.4474 6.36743 13.3536C6.27366 13.2598 6.22098 13.1327 6.22098 13L6.21598 12.996Z" fill="currentColor"/>
</svg>
