<svg width="inherit" height="inherit" viewBox="0 0 23 18" fill="none" xmlns="http://www.w3.org/2000/svg">
<path d="M10.9919 2.23999V9.39999C10.9919 9.63999 11.1839 9.79999 11.4719 9.79999C11.7599 9.79999 11.9519 9.63999 11.9519 9.39999V2.15999L14.5439 4.27999C14.7359 4.43999 15.0239 4.43999 15.2159 4.27999C15.4079 4.11999 15.4079 3.87999 15.2159 3.71999L11.9519 1.07999C11.9519 1.03999 11.9039 0.959988 11.8559 0.919988C11.7599 0.839988 11.6159 0.799988 11.4719 0.799988C11.3279 0.799988 11.1839 0.839988 11.0879 0.919988C11.0399 0.959988 10.9919 0.999988 10.9919 1.07999L7.72788 3.71999C7.53588 3.87999 7.53588 4.11999 7.72788 4.27999C7.91988 4.43999 8.20788 4.43999 8.39988 4.27999L10.9919 2.23999ZM5.85588 7.35999C6.14388 7.35999 6.33588 7.19999 6.33588 6.95999C6.33588 6.71999 6.14388 6.55999 5.85588 6.55999H3.45588V7.35999H3.55188V6.55999C1.96788 6.55999 0.671875 7.63999 0.671875 8.95999V14.96C0.671875 16.28 1.96788 17.36 3.55188 17.36H19.3919C20.9759 17.36 22.2719 16.28 22.2719 14.96V8.95999C22.2719 7.63999 20.9759 6.55999 19.3919 6.55999H17.1359C16.8479 6.55999 16.6559 6.71999 16.6559 6.95999C16.6559 7.19999 16.8479 7.35999 17.1359 7.35999H19.3919C20.4479 7.35999 21.3119 8.07999 21.3119 8.95999V14.96C21.3119 15.84 20.4479 16.56 19.3919 16.56H3.55188C2.49588 16.56 1.63188 15.84 1.63188 14.96V8.95999C1.63188 8.07999 2.49588 7.35999 3.55188 7.35999V6.55999H3.45588V7.35999H5.85588ZM8.59188 12.8C8.30387 12.8 8.11188 12.96 8.11188 13.2C8.11188 13.44 8.30387 13.6 8.59188 13.6H14.3519C14.6399 13.6 14.8319 13.44 14.8319 13.2C14.8319 12.96 14.6399 12.8 14.3519 12.8H8.59188Z" fill="currentColor"/>
</svg>
