<svg width="inherit" height="inherit" viewBox="0 0 18 14" fill="none" xmlns="http://www.w3.org/2000/svg">
<path d="M9.47621 1.63229V8.85706C9.47621 8.98335 9.42604 9.10447 9.33674 9.19377C9.24744 9.28308 9.12632 9.33325 9.00002 9.33325C8.87373 9.33325 8.75261 9.28308 8.66331 9.19377C8.574 9.10447 8.52383 8.98335 8.52383 8.85706V1.63229L6.64288 3.5142C6.55307 3.60094 6.43278 3.64894 6.30793 3.64785C6.18307 3.64677 6.06364 3.59669 5.97535 3.5084C5.88706 3.42011 5.83698 3.30068 5.83589 3.17582C5.83481 3.05096 5.8828 2.93068 5.96955 2.84087L8.66288 0.147533C8.70698 0.102958 8.75949 0.0675716 8.81736 0.0434213C8.87523 0.0192709 8.93732 0.00683594 9.00002 0.00683594C9.06273 0.00683594 9.12481 0.0192709 9.18268 0.0434213C9.24055 0.0675716 9.29306 0.102958 9.33717 0.147533L12.0305 2.84087C12.1172 2.93068 12.1652 3.05096 12.1642 3.17582C12.1631 3.30068 12.113 3.42011 12.0247 3.5084C11.9364 3.59669 11.817 3.64677 11.6921 3.64785C11.5673 3.64894 11.447 3.60094 11.3572 3.5142L9.47621 1.63229ZM0.904785 10.2856C0.904785 10.1593 0.954955 10.0382 1.04426 9.94891C1.13356 9.85961 1.25468 9.80944 1.38098 9.80944C1.50727 9.80944 1.62839 9.85961 1.71769 9.94891C1.807 10.0382 1.85717 10.1593 1.85717 10.2856V12.1904C1.85717 12.2529 1.86948 12.3148 1.89341 12.3726C1.91734 12.4304 1.95242 12.4829 1.99664 12.5271C2.04086 12.5713 2.09335 12.6064 2.15113 12.6303C2.2089 12.6543 2.27082 12.6666 2.33336 12.6666H15.6667C15.7292 12.6666 15.7911 12.6543 15.8489 12.6303C15.9067 12.6064 15.9592 12.5713 16.0034 12.5271C16.0476 12.4829 16.0827 12.4304 16.1066 12.3726C16.1306 12.3148 16.1429 12.2529 16.1429 12.1904V10.2856C16.1429 10.1593 16.193 10.0382 16.2824 9.94891C16.3717 9.85961 16.4928 9.80944 16.6191 9.80944C16.7454 9.80944 16.8665 9.85961 16.9558 9.94891C17.0451 10.0382 17.0953 10.1593 17.0953 10.2856V12.1904C17.0953 12.5693 16.9447 12.9326 16.6768 13.2005C16.4089 13.4685 16.0456 13.619 15.6667 13.619H2.33336C2.14575 13.619 1.95999 13.582 1.78667 13.5102C1.61334 13.4384 1.45586 13.3332 1.3232 13.2005C1.19055 13.0679 1.08532 12.9104 1.01353 12.7371C0.941736 12.5638 0.904785 12.378 0.904785 12.1904V10.2856Z" fill="currentColor"/>
</svg>
