<svg width="inherit" height="inherit" viewBox="0 0 18 20" fill="none" xmlns="http://www.w3.org/2000/svg">
<path d="M10.9821 19.9433H7.01834C3.25854 19.9433 0.289062 19.9433 0.289062 17.9932V17.6031C0.289062 13.9484 3.3082 10.9755 7.01834 10.9755H10.982C14.6921 10.9755 17.7114 13.9484 17.7114 17.6031V17.9932C17.7107 19.9433 14.5919 19.9433 10.9821 19.9433ZM7.01766 12.1445C3.95239 12.1445 1.45813 14.5927 1.45813 17.6024V17.9924C1.45813 18.7729 4.67112 18.7729 7.01766 18.7729H10.9814C12.9239 18.7729 16.5411 18.7729 16.5411 17.9924V17.6024C16.5411 14.5927 14.0467 12.1445 10.9814 12.1445H7.01766ZM8.80171 10.5843C5.85575 10.5843 3.46024 8.22284 3.46024 5.32017C3.46024 2.41763 5.85587 0.0568848 8.80171 0.0568848C11.7476 0.0568848 14.1432 2.41763 14.1432 5.32017C14.1432 8.22284 11.747 10.5843 8.80171 10.5843ZM4.62999 5.32017C4.62999 7.57728 6.50142 9.41451 8.80171 9.41451C11.1022 9.41451 12.9735 7.57796 12.9735 5.32017C12.9735 3.06238 11.1021 1.22652 8.80171 1.22652C6.50142 1.22652 4.62999 3.06318 4.62999 5.32017Z" fill="currentColor" fill-opacity="0.25"/>
</svg>
