<svg width="20" height="21" viewBox="0 0 20 21" fill="none" xmlns="http://www.w3.org/2000/svg">
<path d="M4.68942 19.1057H3.2797V12.4397C3.2797 8.65688 6.28241 5.58883 9.98942 5.58883C13.6959 5.58883 16.6986 8.65744 16.6986 12.4397V19.1057H4.68999L4.68942 19.1057ZM10.4748 8.35005L7.1651 13.9155H9.81214L9.14944 18.0896L12.4592 12.5242H9.81214L10.4748 8.35005ZM15.5505 2.23599C15.6998 2.32481 15.8086 2.4703 15.8531 2.64071C15.8977 2.81111 15.8744 2.9926 15.7884 3.14555L14.5986 5.25769L13.4743 4.5932L14.6635 2.48102C14.7057 2.4057 14.762 2.33961 14.8293 2.28653C14.8965 2.23345 14.9734 2.19441 15.0554 2.17166C15.1374 2.1489 15.223 2.14287 15.3073 2.1539C15.3916 2.16494 15.473 2.19283 15.5467 2.23597H15.5505L15.5505 2.23599ZM9.98725 0.671875C10.3764 0.671875 10.691 0.971006 10.691 1.34245V3.73609H9.28346V1.34077C9.28348 0.971006 9.59807 0.671875 9.98727 0.671875H9.98725ZM4.4278 2.23599C4.50164 2.19237 4.58317 2.16404 4.66774 2.15264C4.75231 2.14123 4.83826 2.14697 4.92065 2.16953C5.00305 2.19209 5.08028 2.23102 5.14792 2.28409C5.21555 2.33716 5.27228 2.40334 5.31483 2.47883L6.50456 4.59099L5.38024 5.25606L4.18942 3.14334C4.10349 2.99072 4.08028 2.80956 4.12485 2.63951C4.16943 2.46946 4.27817 2.32436 4.42727 2.23597L4.4278 2.23599ZM0.357566 6.41009C0.399968 6.33451 0.456587 6.26825 0.524166 6.2151C0.591745 6.16195 0.66895 6.12297 0.751339 6.1004C0.833727 6.07783 0.919674 6.07212 1.00423 6.08359C1.08879 6.09507 1.17029 6.1235 1.24405 6.16725L3.30512 7.38807L2.65649 8.54046L0.594812 7.31797C0.445574 7.22958 0.336739 7.08438 0.292159 6.91421C0.247579 6.74403 0.270889 6.56275 0.35698 6.41009H0.357566ZM19.6208 6.41009C19.7068 6.56304 19.7301 6.74453 19.6855 6.91494C19.641 7.08534 19.5322 7.23083 19.383 7.31964L17.3224 8.5388L16.6738 7.38587L18.7343 6.1656C18.883 6.07801 19.0596 6.05415 19.2254 6.09925C19.3913 6.14435 19.5329 6.25473 19.6192 6.40622C19.6192 6.40843 19.6208 6.40843 19.6208 6.41009ZM0.980789 19.1057H18.9997C19.3889 19.1057 19.7057 19.4291 19.7057 19.8265C19.7057 20.2238 19.3889 20.5473 18.9997 20.5473H0.980808C0.591609 20.5473 0.274851 20.2244 0.274851 19.8265C0.274638 19.7318 0.292752 19.6379 0.328154 19.5504C0.363556 19.4628 0.415549 19.3833 0.481146 19.3163C0.546743 19.2493 0.624652 19.1963 0.710399 19.1601C0.796146 19.124 0.888022 19.1055 0.980789 19.1057Z" fill="#F55A02"/>
</svg>
