<svg viewBox="0 0 16 16" fill="none" xmlns="http://www.w3.org/2000/svg">
<path d="M14.7199 12.0179L9.17325 2.80901C8.4977 1.60012 7.39548 1.60012 6.71992 2.80901L1.17325 12.0179C0.497698 13.2268 1.06659 14.1868 2.4177 14.1868H13.511C14.8266 14.1868 15.3955 13.1912 14.7199 12.0179ZM7.43103 5.58234C7.43103 5.2979 7.67992 5.04901 7.96436 5.04901C8.24881 5.04901 8.4977 5.2979 8.4977 5.58234V9.31568C8.4977 9.60012 8.24881 9.84901 7.96436 9.84901C7.67992 9.84901 7.43103 9.60012 7.43103 9.31568V5.58234ZM7.92881 12.1246C7.50214 12.1246 7.18214 11.769 7.18214 11.3779C7.18214 10.9868 7.5377 10.6312 7.92881 10.6312C8.31992 10.6312 8.67548 10.9868 8.67548 11.3779C8.67548 11.769 8.35548 12.1246 7.92881 12.1246Z" fill="currentColor"/>
</svg>
