<svg width="32" height="32" viewBox="0 0 32 32" fill="none" xmlns="http://www.w3.org/2000/svg">
<path d="M25.8896 28.1754C25.3761 28.1754 24.8993 27.9729 24.5468 27.6051L4.88176 7.09385C4.53957 6.73697 4.35676 6.26604 4.36738 5.76791C4.37801 5.26979 4.58019 4.80697 4.93738 4.46479L4.95988 4.44322C5.30613 4.11104 5.76301 3.92822 6.24613 3.92822C6.75957 3.92822 7.23644 4.13072 7.58894 4.49854L27.2539 25.0098C27.9636 25.7498 27.9386 26.9292 27.1986 27.6388L27.1761 27.6604C26.8293 27.9926 26.3724 28.1754 25.8896 28.1754Z" fill="#919FB4"/>
<path d="M6.24601 3.94385C6.75507 3.94385 7.22788 4.14479 7.57726 4.50947L27.2423 25.0207C27.5816 25.3748 27.7629 25.8417 27.7526 26.3354C27.7423 26.8292 27.5416 27.2882 27.1876 27.6276L27.1651 27.6492C26.8216 27.9785 26.3688 28.1598 25.8898 28.1598C25.3807 28.1598 24.9079 27.9588 24.5582 27.5942L4.89319 7.08291C4.55382 6.72885 4.37257 6.26197 4.38288 5.76822C4.39319 5.27447 4.59382 4.81541 4.94788 4.47604L4.97038 4.45447C5.31413 4.1251 5.76694 3.94385 6.24601 3.94385ZM6.24601 3.9126C5.77882 3.9126 5.31069 4.0851 4.94913 4.43197L4.92663 4.45354C4.18226 5.16729 4.15726 6.3601 4.87069 7.10447L24.5357 27.6157C24.9026 27.9982 25.3957 28.1907 25.8898 28.1907C26.3569 28.1907 26.8251 28.0182 27.1866 27.6713L27.2091 27.6498C27.9535 26.936 27.9785 25.7432 27.2651 24.9988L7.60007 4.4876C7.23319 4.1051 6.74007 3.9126 6.24601 3.9126Z" fill="#919FB4"/>
<path d="M5.6768 27.914C5.16336 27.914 4.6868 27.7115 4.33398 27.3437L4.31242 27.3212C3.97023 26.9643 3.78742 26.4934 3.79805 25.9953C3.80867 25.4971 4.01086 25.0343 4.36805 24.6921L25.5468 4.38683C25.893 4.05464 26.3499 3.87183 26.833 3.87183C27.3462 3.87183 27.823 4.07433 28.1759 4.44214L28.1974 4.46464C28.5396 4.82151 28.7224 5.29245 28.7118 5.79058C28.7012 6.2887 28.499 6.75151 28.1418 7.0937L6.96305 27.399C6.61648 27.7312 6.15992 27.914 5.6768 27.914Z" fill="#919FB4"/>
<path d="M26.8331 3.8877C27.3421 3.8877 27.8149 4.08863 28.1643 4.45332L28.1859 4.47582C28.5252 4.82988 28.7065 5.29676 28.6962 5.79051C28.6859 6.28426 28.4852 6.74332 28.1312 7.0827L6.95212 27.3877C6.60868 27.7171 6.15587 27.8983 5.67681 27.8983C5.16775 27.8983 4.69493 27.6974 4.34525 27.3327L4.32368 27.3102C3.98431 26.9561 3.80306 26.4893 3.81337 25.9955C3.82368 25.5018 4.02431 25.0427 4.37837 24.7033L25.5574 4.39832C25.9009 4.06895 26.3537 3.8877 26.8331 3.8877ZM26.8327 3.85645C26.3656 3.85645 25.8974 4.02895 25.5359 4.37582L4.35681 24.6808C3.61243 25.3946 3.58743 26.5874 4.30087 27.3318L4.32243 27.3543C4.68931 27.7368 5.18243 27.9293 5.6765 27.9293C6.14368 27.9293 6.61181 27.7568 6.97337 27.4099L28.1524 7.10488C28.8968 6.39113 28.9218 5.19832 28.2084 4.45395L28.1868 4.43145C27.8202 4.04895 27.3268 3.85645 26.8327 3.85645Z" fill="#919FB4"/>
</svg>
