<svg width="18" height="16" viewBox="0 0 18 16" fill="none" xmlns="http://www.w3.org/2000/svg">
<path d="M4.27907 3.47624L5.14613 2.97046L4.22288 1.37284C4.08639 1.13199 3.77329 1.0517 3.54047 1.18819C3.29962 1.32467 3.21934 1.63777 3.35582 1.87862L4.27907 3.47624ZM0.570008 5.03373L2.16764 5.95698L2.67342 5.0819L1.07579 4.15865C1.0189 4.12579 0.956082 4.1045 0.890939 4.09599C0.825796 4.08749 0.759615 4.09195 0.696201 4.10911C0.632786 4.12627 0.573388 4.15579 0.52142 4.19598C0.469453 4.23617 0.425941 4.28624 0.393386 4.3433H0.385357C0.248877 4.58415 0.329159 4.88922 0.570008 5.03373ZM8.38955 0.505782C8.38955 0.224792 8.1487 0 7.84363 0C7.53855 0 7.29771 0.224792 7.29771 0.505782V2.32017H8.38955V0.505782ZM12.3314 1.87059C12.4679 1.62974 12.3876 1.32467 12.1468 1.18016C12.0899 1.1473 12.0271 1.12601 11.9619 1.1175C11.8968 1.109 11.8306 1.11346 11.7672 1.13062C11.7038 1.14778 11.6444 1.1773 11.5924 1.21749C11.5405 1.25768 11.4969 1.30775 11.4644 1.36481L10.5411 2.96244L11.4082 3.46822L12.3314 1.87059ZM15.1173 5.03373C15.3581 4.89725 15.4384 4.58415 15.3019 4.3433C15.1654 4.10245 14.8523 4.02217 14.6195 4.15865L13.0219 5.0819L13.5276 5.95698L15.1253 5.03373H15.1173ZM8.38955 11.4564C8.38955 11.3761 8.38955 11.2878 8.40561 11.2075L7.20137 13.1905L7.71518 10.0273H5.66796L8.22899 5.81247L7.71518 8.97562H9.15224C9.54328 8.39215 10.0676 7.91016 10.6819 7.56953C11.2961 7.22889 11.9827 7.0394 12.6847 7.01672C11.93 5.08993 10.0514 3.72512 7.85166 3.72512C4.98556 3.72512 2.65736 6.05332 2.65736 8.91942V13.7123H0.666347C0.297046 13.7123 0 14.0093 0 14.3786C0 14.7479 0.297046 15.045 0.666347 15.045H10.2039C9.64044 14.6331 9.18182 14.0943 8.86521 13.4723C8.54861 12.8502 8.38291 12.1624 8.38152 11.4644L8.38955 11.4564Z" fill="#D35445"/>
<g clip-path="url(#clip0_3923_46157)">
<path d="M14.9446 11.6528C14.9446 11.6215 14.9322 11.5915 14.9101 11.5693C14.8879 11.5472 14.8579 11.5348 14.8266 11.5348H12.9871V9.5829C12.9871 9.55159 12.9747 9.52156 12.9525 9.49942C12.9304 9.47728 12.9003 9.46484 12.869 9.46484C12.8377 9.46484 12.8077 9.47728 12.7856 9.49942C12.7634 9.52156 12.751 9.55159 12.751 9.5829V11.6528C12.751 11.6841 12.7634 11.7142 12.7856 11.7363C12.8077 11.7584 12.8377 11.7709 12.869 11.7709H14.8266C14.8579 11.7709 14.8879 11.7584 14.9101 11.7363C14.9322 11.7142 14.9446 11.6841 14.9446 11.6528Z" fill="#D35445" stroke="#D35445" stroke-width="0.2"/>
<path d="M15.6886 10.4572C15.4967 10.0032 15.1979 9.60226 14.8178 9.28845C14.4377 8.97465 13.9875 8.75726 13.5054 8.65478C13.0232 8.55231 12.5235 8.56776 12.0486 8.69984C11.5737 8.83192 11.1378 9.07671 10.7778 9.41341C10.4178 9.7501 10.1444 10.1687 9.98093 10.6337C9.81743 11.0987 9.76864 11.5963 9.83869 12.0842C9.90875 12.5721 10.0956 13.0359 10.3833 13.4361C10.671 13.8363 11.0511 14.1612 11.4913 14.383C11.5052 14.3899 11.5202 14.3941 11.5357 14.3953C11.5512 14.3964 11.5667 14.3945 11.5814 14.3897C11.5961 14.3848 11.6098 14.3771 11.6215 14.367C11.6333 14.3569 11.6429 14.3446 11.6499 14.3307C11.6569 14.3169 11.6611 14.3018 11.6622 14.2863C11.6634 14.2709 11.6615 14.2553 11.6566 14.2406C11.6518 14.2259 11.6441 14.2123 11.634 14.2005C11.6239 14.1888 11.6115 14.1791 11.5977 14.1721C11.1223 13.9323 10.7245 13.5629 10.4501 13.1066C10.1757 12.6503 10.0359 12.1257 10.0469 11.5934C10.0579 11.061 10.2192 10.5427 10.5122 10.0981C10.8052 9.65349 11.2179 9.30082 11.7027 9.08077C12.1876 8.86072 12.7248 8.78225 13.2523 8.85444C13.7798 8.92662 14.2762 9.14651 14.6841 9.48872C15.092 9.83093 15.3948 10.2815 15.5576 10.7885C15.7204 11.2954 15.7365 11.8381 15.6041 12.3538C15.6 12.3689 15.599 12.3846 15.6011 12.4001C15.6031 12.4155 15.6082 12.4305 15.6161 12.4439C15.624 12.4574 15.6344 12.4692 15.6469 12.4786C15.6594 12.4881 15.6736 12.4949 15.6887 12.4988C15.7038 12.5027 15.7196 12.5035 15.735 12.5013C15.7505 12.499 15.7653 12.4938 15.7787 12.4857C15.7921 12.4777 15.8038 12.4671 15.8131 12.4546C15.8223 12.442 15.829 12.4277 15.8327 12.4126C15.9992 11.7626 15.9484 11.076 15.6883 10.4575L15.6886 10.4572Z" fill="#D35445" stroke="#D35445" stroke-width="0.2"/>
<path d="M12.8272 14.9849V13.4159L12.5812 13.5329C12.5542 13.5449 12.5212 13.5389 12.5122 13.5119L12.4762 13.4039C12.4672 13.3799 12.4732 13.3559 12.4852 13.3409L12.8782 12.9839C12.9112 12.9569 12.9412 12.9449 12.9832 12.9449H13.0762C13.1062 12.9449 13.1302 12.9719 13.1302 13.0019V14.9849C13.1302 15.0179 13.1062 15.0449 13.0762 15.0449H12.8872C12.8542 15.0449 12.8272 15.0179 12.8272 14.9849ZM13.6116 14.2109C13.6116 13.3499 14.3526 12.9989 14.6346 12.8909C14.6736 12.8789 14.7006 12.8939 14.7126 12.9269L14.7666 13.0559C14.7816 13.0919 14.7696 13.1249 14.7096 13.1429C14.5686 13.1909 14.0766 13.4309 13.9746 13.8119C13.9986 13.7969 14.1786 13.6979 14.3856 13.6979C14.7126 13.6979 15.0306 13.9409 15.0306 14.3669C15.0306 14.7569 14.7156 15.0749 14.3436 15.0749C13.8486 15.0749 13.6116 14.6879 13.6116 14.2109ZM14.3376 14.7989C14.5686 14.7989 14.7456 14.6039 14.7456 14.3699C14.7456 14.1389 14.5656 13.9499 14.3346 13.9499C14.1126 13.9499 13.9566 14.1089 13.9116 14.1869C13.8876 14.4449 14.0016 14.7989 14.3376 14.7989ZM15.3148 15.0009V13.6889C15.3148 13.6669 15.3348 13.6449 15.3588 13.6449H15.4708C15.4928 13.6449 15.5148 13.6669 15.5148 13.6889V14.1969C15.5368 14.1809 15.6368 14.1009 15.7828 14.1009C16.0448 14.1009 16.1408 14.2849 16.1408 14.5369V15.0009C16.1408 15.0249 16.1188 15.0449 16.0968 15.0449H15.9848C15.9608 15.0449 15.9408 15.0249 15.9408 15.0009V14.5329C15.9408 14.3809 15.8768 14.2909 15.7568 14.2909C15.6148 14.2909 15.5348 14.3849 15.5148 14.4249V15.0009C15.5148 15.0269 15.4968 15.0449 15.4688 15.0449H15.3588C15.3348 15.0449 15.3148 15.0249 15.3148 15.0009Z" fill="#D35445"/>
</g>
<defs>
<clipPath id="clip0_3923_46157">
<rect width="40%" height="50%" fill="white" transform="translate(9.36816 8.04492)"/>
</clipPath>
</defs>
</svg>
