<svg viewBox="0 0 15 16" fill="none" xmlns="http://www.w3.org/2000/svg">
<path d="M6.95842 14.2402H0V14.9812C0 15.5485 0.426696 16 0.962801 16H8.24945C7.70241 15.5253 7.25383 14.9233 6.95842 14.2402ZM11.3129 8.18524C9.81401 8.18524 8.46827 9.13459 7.89934 10.5933C7.33042 12.0521 7.6477 13.7308 8.69803 14.8538C9.7593 15.9653 11.3457 16.301 12.7243 15.699C14.1028 15.097 15 13.6729 15 12.0868C15 11.0564 14.6061 10.0608 13.9168 9.31983C13.2276 8.59045 12.2976 8.18524 11.3129 8.18524ZM13.6652 11.1027L10.9956 13.9276L10.9847 13.9508C10.7549 14.2055 10.372 14.2055 10.1313 13.9624V13.9392L8.9825 12.7236C8.75274 12.4805 8.75274 12.0753 8.9825 11.8321C9.21225 11.589 9.59519 11.589 9.82495 11.8321L10.5689 12.6194L12.8337 10.2229C13.0635 9.97974 13.4464 9.97974 13.6761 10.2229C13.9059 10.466 13.9059 10.8596 13.6652 11.1027ZM0.404814 12.9783H6.67396C6.6302 12.6889 6.59737 12.3878 6.59737 12.0868C6.59737 11.1606 6.82713 10.2576 7.26477 9.44718C7.63676 8.76411 8.15099 8.17366 8.77462 7.73372C8.66521 7.09696 8.6105 6.64544 8.6105 5.99711C8.6105 5.42981 8.64333 5.04776 8.73085 4.48046C9.24508 3.98263 9.54048 3.27641 9.54048 2.53546V2.45441V2.55861C9.54048 1.14616 8.45733 0 7.12254 0C5.78775 0 4.7046 1.14616 4.7046 2.55861V2.68596C4.7046 3.49638 5.06565 4.26049 5.68928 4.74674C5.75492 5.25615 5.78775 5.56874 5.78775 6.07815C5.78775 7.79161 5.44858 9.04197 4.98906 9.47033H1.37856C0.634573 9.47033 0.0328228 10.1071 0.0218819 10.8944V12.5731C0.0218819 12.6889 0.0656453 12.7931 0.142232 12.8741C0.196936 12.932 0.295405 12.9783 0.404814 12.9783Z" fill="#3FBD6B"/>
</svg>
