<svg  viewBox="0 0 16 16" fill="none" xmlns="http://www.w3.org/2000/svg">
<g clip-path="url(#clip0_3923_46146)">
<path d="M10.6713 3.336C10.6713 2.99067 10.6687 2.35933 10.6687 2.00267C10.6687 1.64467 10.37 1.334 10.002 1.334L2.002 1.33067C1.59533 1.33067 1.33533 1.65067 1.33533 2.002C1.33533 2.35333 1.33333 9.62467 1.334 10C1.33453 10.1769 1.40498 10.3464 1.53 10.4715C1.65502 10.5967 1.82445 10.6673 2.00133 10.668H3.33733C3.42521 10.669 3.51239 10.6524 3.59373 10.6191C3.67508 10.5859 3.74893 10.5366 3.81095 10.4744C3.87296 10.4121 3.92188 10.3381 3.95481 10.2566C3.98773 10.1751 4.00401 10.0879 4.00267 10L4 5.33533C4 4.45733 4.494 4.00533 5.33533 4.00533L10.0013 4.00067C10.3707 4.00067 10.6707 3.68067 10.6707 3.336H10.6713ZM12.0033 10.6707C12.0033 11.5453 11.566 11.9987 10.67 11.9987H6.00267C5.91433 11.9983 5.8268 12.0155 5.74517 12.0493C5.66354 12.083 5.58944 12.1327 5.52716 12.1953C5.46488 12.258 5.41568 12.3324 5.3824 12.4142C5.34913 12.496 5.33245 12.5837 5.33333 12.672C5.33333 13.0413 5.32533 13.6387 5.32933 13.9987C5.33333 14.3587 5.65267 14.6707 6.00267 14.6707H14.0033C14.386 14.6707 14.68 14.3593 14.68 13.9993V6.00333C14.68 5.65467 14.374 5.33133 14.0033 5.32667C13.6327 5.322 13.062 5.33133 12.6693 5.33133C12.5814 5.33043 12.4941 5.34716 12.4127 5.38053C12.3313 5.41389 12.2575 5.46323 12.1954 5.52562C12.1334 5.588 12.0845 5.66218 12.0517 5.74377C12.0188 5.82536 12.0026 5.91271 12.004 6.00067V10.6707H12.0033ZM12.006 3.33467C12.006 3.682 12.3467 3.998 12.664 3.998H14.668C15.4847 3.998 16 4.51133 16 5.33333V14.6733C16 15.464 15.4587 16 14.664 16H5.338C4.512 16 4.00533 15.4747 4.00533 14.6727C4 13.5593 3.99867 12.8907 4.00133 12.666C3.99793 12.4907 3.92683 12.3236 3.80293 12.1995C3.67903 12.0755 3.51194 12.0042 3.33667 12.0007L1.33267 11.9987C0.505333 11.9987 0 11.4827 0 10.6687V1.34C0 0.526 0.526 0 1.32667 0H10.6707C11.5367 0 12.006 0.513333 12.006 1.34V3.33467ZM7.336 7.99467C7.336 8.39667 7.60067 8.67467 8.00267 8.67467C8.404 8.67467 8.66933 8.39667 8.66933 7.99467V6C8.66933 5.598 8.40133 5.342 8 5.342C7.59867 5.342 7.336 5.598 7.336 6V7.99533V7.99467ZM7.336 10.0013C7.338 10.336 7.61467 10.668 8.006 10.67C8.39733 10.6727 8.66733 10.4067 8.66733 10.01C8.66733 9.61267 8.38067 9.33 7.99733 9.33C7.61333 9.33 7.33333 9.66733 7.33533 10.002L7.336 10.0013Z" fill="#EF4444"/>
</g>
<defs>
<clipPath id="clip0_3923_46146">
<rect width="100%" height="100%" fill="white"/>
</clipPath>
</defs>
</svg>
