<svg viewBox="0 0 16 16" fill="none" xmlns="http://www.w3.org/2000/svg">
<g clip-path="url(#clip0_3923_46138)">
<path d="M12.4019 8.98394C12.979 8.98518 13.5455 9.13927 14.0437 9.43054C14.5419 9.72181 14.9541 10.1399 15.2383 10.6421C15.5259 11.1479 15.6772 11.7197 15.6772 12.3015C15.6772 12.8833 15.5259 13.4551 15.2383 13.9609C14.9541 14.4634 14.5419 14.8817 14.0435 15.1731C13.5452 15.4645 12.9785 15.6187 12.4012 15.6198C11.9705 15.6201 11.544 15.5345 11.1468 15.3681C10.7495 15.2016 10.3895 14.9577 10.0876 14.6505C9.47149 14.0237 9.12614 13.18 9.12588 12.3011C9.12655 11.4224 9.47216 10.579 10.0883 9.9525C10.3903 9.64544 10.7504 9.40164 11.1476 9.23534C11.5449 9.06904 11.9713 8.98357 12.4019 8.98394ZM7.4509 0.381954C8.46781 0.383 9.47367 0.592954 10.4061 0.998798C11.3385 1.40464 12.1776 1.99772 12.8713 2.74125C13.571 3.49096 14.1122 4.37406 14.4627 5.33775C14.8133 6.30143 14.9658 7.32591 14.9113 8.34991C13.9751 7.72295 12.8412 7.462 11.7251 7.6167C10.609 7.7714 9.58876 8.33096 8.8584 9.18893C8.12065 10.0526 7.71741 11.1524 7.72202 12.2883C7.72664 13.4241 8.1388 14.5206 8.88355 15.3783C6.10056 15.9224 3.25431 14.822 1.5298 12.5351C0.685779 11.4097 0.168439 10.0733 0.0346679 8.67294C-0.0991035 7.27258 0.155874 5.86244 0.771565 4.5976C2.03199 2.01654 4.6199 0.383479 7.45319 0.378906L7.45166 0.381954H7.4509ZM12.3989 13.493C12.3308 13.4904 12.263 13.5023 12.1998 13.5278C12.1367 13.5532 12.0796 13.5918 12.0323 13.6408C11.9804 13.6889 11.9396 13.7478 11.9129 13.8134C11.8862 13.879 11.8741 13.9496 11.8776 14.0203C11.87 14.1651 11.9272 14.3045 12.0331 14.4006C12.0797 14.4507 12.1364 14.4904 12.1994 14.517C12.2625 14.5437 12.3304 14.5567 12.3989 14.5553C12.5396 14.5574 12.6756 14.5043 12.7776 14.4074C12.8757 14.3027 12.9287 14.1637 12.9254 14.0203C12.927 13.9504 12.9147 13.8809 12.8893 13.8158C12.864 13.7507 12.826 13.6912 12.7776 13.6408C12.7274 13.5922 12.6679 13.554 12.6028 13.5286C12.5376 13.5033 12.468 13.4911 12.3981 13.493H12.3989ZM12.9719 10.0356H11.8311L12.0415 13.1089H12.7616L12.9712 10.0356H12.9719ZM7.44252 2.74963L7.30078 2.75954C6.94109 2.8045 6.74144 3.03007 6.70181 3.43547L6.69419 3.59474V7.15121H4.48197C3.91806 7.15121 3.61324 7.36001 3.56294 7.77914L3.55532 7.91097L3.56294 8.04052C3.60866 8.41774 3.86166 8.62501 4.32194 8.66159L4.48197 8.66769H7.2642C7.30307 8.66769 7.34117 8.66769 7.37851 8.66464L7.44176 8.66769L7.58502 8.66007C7.82659 8.62958 7.99653 8.5168 8.09331 8.32248C8.14434 8.23176 8.17551 8.13124 8.18475 8.02757L8.19009 7.91021L8.18704 7.86906L8.19009 7.82258V3.5955C8.19009 3.03159 7.9409 2.74963 7.441 2.74963H7.44176H7.44252Z" fill="#DA3776"/>
</g>
<defs>
<clipPath id="clip0_3923_46138">
<rect width="100%" height="100%" fill="white"/>
</clipPath>
</defs>
</svg>
