<svg viewBox="0 0 16 16" fill="none" xmlns="http://www.w3.org/2000/svg">
<g clip-path="url(#clip0_3923_46134)">
<path d="M8.56025 7.97622C8.56025 7.98422 8.56025 7.98422 8.56025 7.97622C8.55225 8.40022 8.56025 8.43222 8.36025 8.49622L4.54425 9.67222L4.27225 8.61622L7.40825 7.52022L7.44825 3.60822H8.57625L8.56025 7.97622ZM6.88825 14.6482C6.92825 14.6082 6.97625 14.5842 7.01625 14.5442C4.08025 14.2162 1.24025 11.1842 1.33625 8.16022C1.47225 3.93622 4.56025 1.57622 7.95225 1.54422C10.9762 1.51222 13.7762 3.96822 14.4722 6.68822C14.5282 6.72022 14.8002 7.09622 15.0482 7.41622C15.4802 7.96822 15.5842 8.21622 15.6642 8.32822C15.6642 8.29622 15.6722 8.24822 15.6722 8.22422C15.8562 3.96822 12.4242 0.296215 7.95225 0.344215C3.85625 0.384215 0.232248 3.39222 0.240248 8.06422C0.248248 11.8082 2.98425 14.9522 6.92825 15.6802C6.76025 15.4002 6.72825 14.8402 6.88825 14.6482Z" fill="#F5894E"/>
<path d="M14.8157 13.0073H13.5917C13.2077 13.0073 12.9037 12.7033 12.9037 12.3193V12.1913C12.9037 11.9273 13.0317 11.6793 13.2237 11.5033C13.6557 11.1113 13.9117 10.5193 13.8317 9.87133C13.7277 9.01533 13.0317 8.31933 12.1677 8.21533C11.0317 8.08733 10.0637 8.98333 10.0637 10.0953C10.0637 10.6633 10.3197 11.1753 10.7117 11.5193C10.9037 11.6873 11.0077 11.9433 11.0077 12.1993V12.3113C11.0077 12.6953 10.7037 12.9993 10.3197 12.9993H9.09569C8.86369 12.9993 8.67969 13.1833 8.67969 13.4153V14.6073H15.2237V13.4153C15.2237 13.1833 15.0477 13.0073 14.8157 13.0073ZM8.67969 15.1993C8.67969 15.4393 8.86369 15.6233 9.10369 15.6233H14.7997C15.0397 15.6233 15.2237 15.4393 15.2237 15.1993V15.1913H8.67969V15.1993Z" fill="#F5894E"/>
</g>
<defs>
<clipPath id="clip0_3923_46134">
<rect width="100%" height="100%" fill="white"/>
</clipPath>
</defs>
</svg>
