<svg viewBox="0 0 16 16" fill="none" xmlns="http://www.w3.org/2000/svg">
<g clip-path="url(#clip0_3923_46154)">
<path d="M12.3815 9.0317C11.8718 9.03121 11.37 9.15647 10.9204 9.39637C10.4707 9.63627 10.0873 9.98341 9.80393 10.407C9.52059 10.8306 9.34614 11.3175 9.29605 11.8247C9.24597 12.3318 9.32179 12.8435 9.5168 13.3143C9.7118 13.7852 10.02 14.2006 10.414 14.5238C10.808 14.847 11.2756 15.0681 11.7755 15.1673C12.2754 15.2665 12.792 15.2408 13.2796 15.0926C13.7671 14.9443 14.2106 14.678 14.5706 14.3173C15.7678 13.1197 15.7678 11.1376 14.5706 9.94088C13.9901 9.36 13.2027 9.03348 12.3815 9.03311V9.0317ZM8.80687 9.86605C8.49184 10.428 8.29548 11.0487 8.22993 11.6896C8.22381 11.7498 8.2191 11.8566 8.21581 11.9719C8.2125 12.0902 8.1632 12.2024 8.07839 12.2849C7.99359 12.3673 7.87996 12.4134 7.76169 12.4133H1.86569C1.60774 12.4123 1.3607 12.3092 1.17865 12.1264C0.996609 11.9437 0.894397 11.6962 0.894399 11.4383V9.34793C0.894772 9.09065 0.99711 8.84401 1.17899 8.66204C1.36087 8.48007 1.60747 8.37761 1.86475 8.37711H4.11134C4.25234 8.37712 4.38873 8.32693 4.49609 8.23553C4.60345 8.14412 4.67475 8.01748 4.69722 7.87829L4.84734 6.95688C4.86551 6.83715 4.85317 6.71478 4.81146 6.6011C4.76976 6.48741 4.70003 6.38609 4.60875 6.30652C4.12152 5.87231 3.77984 5.29858 3.63017 4.66334C3.4805 4.02809 3.5301 3.36217 3.77222 2.75611C4.01435 2.15005 4.43726 1.63327 4.98344 1.27603C5.52962 0.918785 6.17257 0.738423 6.82487 0.759465C7.47716 0.780507 8.10715 1.00193 8.62917 1.39363C9.15119 1.78533 9.53991 2.32829 9.74248 2.9487C9.94504 3.5691 9.95162 4.23684 9.76132 4.86111C9.57102 5.48539 9.19307 6.03591 8.67887 6.43782C8.57595 6.51745 8.49704 6.62398 8.45087 6.74564C8.40469 6.8673 8.39305 6.99936 8.41722 7.12723L8.5631 7.89335C8.57613 7.96182 8.60114 8.02745 8.63699 8.08723C8.64443 8.09871 8.65421 8.10849 8.66569 8.11593C9.18993 8.48676 9.33628 9.19358 8.93487 9.69476C8.88897 9.74936 8.84623 9.80656 8.80687 9.86605ZM7.96687 14.3065H1.32687C1.04734 14.3065 0.802634 14.0905 0.796046 13.811C0.794414 13.7432 0.806354 13.6758 0.831164 13.6127C0.855973 13.5497 0.893151 13.4922 0.940509 13.4437C0.987866 13.3952 1.04445 13.3566 1.10692 13.3303C1.16939 13.304 1.2365 13.2905 1.30428 13.2905H7.9631C8.06858 13.2902 8.17145 13.3233 8.257 13.385C8.34254 13.4467 8.40637 13.5339 8.43934 13.6341C8.43934 13.6373 8.43934 13.6406 8.4431 13.6444C8.46828 13.7199 8.47517 13.8004 8.46319 13.8791C8.45122 13.9578 8.42074 14.0326 8.37425 14.0972C8.32775 14.1618 8.26658 14.2145 8.19576 14.2509C8.12494 14.2873 8.04649 14.3064 7.96687 14.3065Z" fill="#EF4444"/>
<path d="M13.7248 12.9936C13.7881 13.0572 13.8236 13.1432 13.8236 13.2329C13.8236 13.3225 13.7881 13.4086 13.7248 13.4722L13.7187 13.4783C13.6874 13.5098 13.6502 13.5348 13.6091 13.5517C13.5681 13.5687 13.5241 13.5773 13.4796 13.5771C13.4352 13.5772 13.3911 13.5685 13.35 13.5515C13.3089 13.5346 13.2716 13.5097 13.2401 13.4783L12.3756 12.6124L11.5112 13.4769C11.4475 13.5401 11.3614 13.5757 11.2716 13.5757C11.1819 13.5757 11.0958 13.5401 11.0321 13.4769L11.0265 13.4708C10.995 13.4394 10.97 13.4021 10.9529 13.361C10.9359 13.3199 10.9271 13.2759 10.9271 13.2315C10.9271 13.187 10.9359 13.143 10.9529 13.1019C10.97 13.0608 10.995 13.0236 11.0265 12.9922L11.8914 12.1272L11.0274 11.2628C10.9955 11.2314 10.9702 11.1941 10.9529 11.1529C10.9357 11.1117 10.9268 11.0674 10.9268 11.0228C10.9268 10.9781 10.9357 10.9338 10.9529 10.8926C10.9702 10.8514 10.9955 10.8141 11.0274 10.7828L11.0326 10.7785C11.064 10.747 11.1013 10.722 11.1424 10.705C11.1835 10.6881 11.2276 10.6795 11.2721 10.6797C11.3618 10.6793 11.4479 10.7145 11.5116 10.7776L12.3756 11.6453L13.2396 10.7795C13.3033 10.7164 13.3893 10.6811 13.4789 10.6811C13.5685 10.6811 13.6545 10.7164 13.7182 10.7795L13.7243 10.7856C13.7876 10.8492 13.8231 10.9352 13.8231 11.0249C13.8231 11.1146 13.7876 11.2006 13.7243 11.2642L12.8594 12.1296L13.7248 12.9936Z" fill="white"/>
</g>
<defs>
<clipPath id="clip0_3923_46154">
<rect width="100%" height="100%" fill="white"/>
</clipPath>
</defs>
</svg>
