<svg viewBox="0 0 16 16" fill="none" xmlns="http://www.w3.org/2000/svg">
<g clip-path="url(#clip0_3923_46142)">
<path d="M0.303711 14.5529V15.6169C0.303711 15.8249 0.471711 16.0009 0.687711 16.0009H10.7517C10.9597 16.0009 11.1357 15.8329 11.1357 15.6169V14.5529C11.1357 12.4249 9.76771 10.5529 7.71971 9.74491L7.37571 9.70491L7.59171 9.53691C8.39971 8.93691 8.83171 8.08891 8.83171 7.15291C8.83171 5.52091 7.47971 4.18491 5.77571 4.12891H5.67171C3.97571 4.17691 2.62371 5.52091 2.62371 7.14491C2.62371 8.08091 3.04771 8.92891 3.86371 9.52891L4.07971 9.69691L3.73571 9.73691C1.67171 10.5529 0.303711 12.4249 0.303711 14.5529Z" fill="#9747FF" fill-opacity="0.92"/>
<path d="M10.3521 0C8.61607 0 6.98407 0.848 5.98407 2.264C5.82407 2.488 5.88007 2.8 6.10407 2.96C6.32807 3.12 6.64007 3.064 6.80007 2.84C7.61607 1.688 8.93607 1 10.3521 1C12.6961 1 14.6081 2.856 14.6881 5.168C14.7761 7.632 12.7841 9.648 10.3121 9.648C10.0561 9.648 9.85607 9.856 9.84807 10.104V10.192C9.84807 10.448 10.0561 10.648 10.3041 10.648C13.2961 10.648 15.7441 8.208 15.6881 5.216C15.6321 2.336 13.2641 0 10.3521 0Z" fill="#9747FF" fill-opacity="0.92"/>
<path d="M10.3204 2.48047C10.0404 2.48047 9.81641 2.70447 9.81641 2.97647V5.60047C9.81641 5.87247 10.0404 6.09647 10.3124 6.10447H12.6644C12.9444 6.12047 13.1764 5.90447 13.1924 5.63247C13.2084 5.35247 12.9924 5.12047 12.7204 5.10447H10.8244V2.98447C10.8164 2.70447 10.5924 2.48047 10.3204 2.48047Z" fill="#9747FF" fill-opacity="0.92"/>
</g>
<defs>
<clipPath id="clip0_3923_46142">
<rect width="100%" height="100%" fill="white"/>
</clipPath>
</defs>
</svg>
